<svg width="107" height="26" viewBox="0 0 107 26" fill="none" xmlns="http://www.w3.org/2000/svg">
<path d="M66.0482 23.4483C65.9197 21.9019 65.9158 15.1826 67.7933 6.91888C68.5271 3.68896 72.1404 1.77523 74.1562 1.05071C75.0048 0.745699 75.7824 1.89208 76.431 2.47442C77.9113 3.80359 78.3727 9.26187 78.9668 16.7368C79.031 18.1196 79.1596 18.6338 79.2258 19.4128C79.292 20.1919 79.292 21.2202 79.292 22.2797" stroke="#B42B0C" stroke-width="2" stroke-linecap="round"/>
<path d="M67.6063 16.8264H79.292" stroke="#B42B0C" stroke-width="2" stroke-linecap="round"/>
<path d="M36 4C36.1285 5.67106 36.2571 7.34211 36.3233 9.6812C36.3895 12.0203 36.3895 14.9768 36.3895 18.0228" stroke="#B42B0C" stroke-width="2" stroke-linecap="round"/>
<path d="M36 4.38953C36 4.64661 38.5709 9.02096 43.3016 16.2194C46.5469 21.1575 49.2399 22.5647 49.8885 22.3758C50.1514 21.9298 50.2799 20.7729 50.3461 17.9917C50.4124 15.2105 50.4124 10.84 50.4124 6.33714" stroke="#B42B0C" stroke-width="2" stroke-linecap="round"/>
<path d="M19.118 7.23694C22.5809 5.02834 26.7098 4 29.1716 4C29.9585 4.6544 30.3441 4.91148 30.7356 5.17247C31.8983 8.72881 31.3763 15.1715 30.2701 17.2516C28.9068 19.1992 25.8089 23.7105 21.3714 22.9542C20.5943 22.8218 20.1651 22.5985 19.8172 22.105C19.0401 21.0027 17.8712 19.6782 17.6125 18.0774C17.0964 14.8833 16.0056 9.22206 19.118 7.23694Z" stroke="#B42B0C" stroke-width="2" stroke-linecap="round"/>
<path d="M58.2848 3.38953C58.799 7.50289 59.0638 13.4782 58.9996 19.5138C58.9353 21.6932 58.8068 22.0789 58.7405 22.5346C58.6743 22.9903 58.6743 23.5045 58.6743 24.0343" stroke="#B42B0C" stroke-width="2" stroke-linecap="round"/>
<path d="M102.285 3.38953C102.799 7.50289 103.064 13.4782 103 19.5138C102.935 21.6932 102.807 22.0789 102.741 22.5346C102.674 22.9903 102.674 23.5045 102.674 24.0343" stroke="#B42B0C" stroke-width="2" stroke-linecap="round"/>
<path d="M54 3C54.2571 3.12854 54.5142 3.25709 55.4179 3.3233C56.3216 3.38952 57.8641 3.38952 58.8515 3.45379C59.839 3.51807 60.2246 3.64661 61.4009 3.77905" stroke="#B42B0C" stroke-width="2" stroke-linecap="round"/>
<path d="M98 3C98.2571 3.12854 98.5142 3.25709 99.4179 3.3233C100.322 3.38952 101.864 3.38952 102.852 3.45379C103.839 3.51807 104.225 3.64661 105.401 3.77905" stroke="#B42B0C" stroke-width="2" stroke-linecap="round"/>
<path d="M8.44829 7.04039C7.9499 6.87259 6.62002 7.20569 4.86437 8.45417C3.31334 9.55715 2.02679 11.9592 1.27043 14.8732C0.644311 17.2854 1.26793 19.0594 1.51713 19.683C2.18486 21.354 3.43431 21.7317 4.43736 22.2739C6.28314 23.2717 10.1914 22.2376 11.9483 21.2371C12.3678 20.9027 12.7811 20.4895 13.0353 20.1526C13.2895 19.8158 13.3721 19.5678 13.4573 19.3124" stroke="#B42B0C" stroke-width="2" stroke-linecap="round"/>
<path d="M92.4483 6.04039C91.9499 5.87259 90.62 6.20569 88.8644 7.45417C87.3133 8.55715 86.0268 10.9592 85.2704 13.8732C84.6443 16.2854 85.2679 18.0594 85.5171 18.683C86.1849 20.354 87.4343 20.7317 88.4374 21.2739C90.2831 22.2717 94.1914 21.2376 95.9483 20.2371C96.3678 19.9027 96.7811 19.4895 97.0353 19.1526C97.2895 18.8158 97.3721 18.5678 97.4573 18.3124" stroke="#B42B0C" stroke-width="2" stroke-linecap="round"/>
</svg>
