<svg width="171" height="62" viewBox="0 0 171 62" fill="none" xmlns="http://www.w3.org/2000/svg">
<path d="M81 6C81 9.85628 81 13.1283 81.1928 15.5258C81.7713 17.5377 82.1686 19.4931 82.2971 21.244C82.4257 21.9666 82.6827 22.3522 82.9476 23.9181" stroke="#B42B0C" stroke-width="2" stroke-linecap="round"/>
<path d="M100 7C100.129 8.67106 100.257 10.3421 100.323 12.6812C100.39 15.0203 100.39 17.9768 100.39 21.0228" stroke="#B42B0C" stroke-width="2" stroke-linecap="round"/>
<path d="M100 7.38951C100 7.6466 102.571 12.0209 107.302 19.2193C110.547 24.1575 113.24 25.5647 113.888 25.3758C114.151 24.9298 114.28 23.7729 114.346 20.9917C114.412 18.2105 114.412 13.84 114.412 9.33713" stroke="#B42B0C" stroke-width="2" stroke-linecap="round"/>
<path d="M35 7C35.1285 7.25709 35.2571 7.51417 35.6447 9.18912C36.0322 10.8641 36.675 13.9491 37.0703 17.2094C37.4657 20.4697 37.5942 23.8118 37.7267 27.2552" stroke="#B42B0C" stroke-width="2" stroke-linecap="round"/>
<path d="M36.5581 7.77905C40.4494 7.65051 42.7749 7.64662 45.7022 8.48993C46.2999 8.66214 46.6779 8.81519 46.9409 9.20276C47.5596 10.1148 47.4648 11.538 47.3362 12.7046C47.228 13.6865 46.3001 14.2685 45.523 14.7223C45.1315 14.919 44.7459 15.0476 43.3903 15.1138C42.0348 15.18 39.721 15.18 37.3372 15.18" stroke="#B42B0C" stroke-width="2" stroke-linecap="round"/>
<path d="M63 7.82173C63.3856 9.87842 63.7713 11.9351 63.9699 14.6014C64.1686 17.2677 64.1686 20.4812 64.1686 23.7922" stroke="#B42B0C" stroke-width="2" stroke-linecap="round"/>
<path d="M63.3895 8.60078C64.1608 7.82562 66.755 6.7856 71.032 7.03879C72.2678 7.11194 73.2367 8.19567 73.8307 8.7858C74.6921 9.64152 74.6857 11.4443 74.4286 13.8418C74.1989 15.9842 72.4849 17.0379 71.3183 17.5559C69.5067 18.3604 68.0677 18.4674 67.869 19.0478C70.3932 21.5797 72.3447 22.8807 73.1218 23.3345C73.5132 23.5312 73.8989 23.6598 74.2962 23.7922" stroke="#B42B0C" stroke-width="2" stroke-linecap="round"/>
<path d="M23.0752 10.7791C19.8344 15.1846 16.4767 19.5823 14.1882 22.6498C13.6059 23.3646 12.7061 24.2644 12.1783 24.9207C11.6505 25.577 11.522 25.9627 11 26.7495" stroke="#B42B0C" stroke-width="2" stroke-linecap="round"/>
<path d="M12.5581 10C16.1612 11.932 23.7141 16.0921 27.1516 18.4955C29.6932 20.3847 30.8618 21.1637 31.5746 21.7461C31.9018 22.0713 32.1589 22.457 32.8133 23.2438" stroke="#B42B0C" stroke-width="2" stroke-linecap="round"/>
<path d="M142.617 3C141.883 3 140.402 3.09149 139.524 3.57525C139.136 3.78941 139.014 4.47485 138.806 5.60109C138.46 7.4746 138.644 9.46079 138.437 10.9135C138.34 11.5915 138.184 12.1374 138.113 14.593C138.042 17.0485 138.042 21.3941 138.02 23.8157C137.993 26.6039 137.904 27.7121 138.544 28.5923C140.465 28.2832 142.288 27.7204 143.119 27.5818C143.447 27.5347 143.584 27.5347 143.726 27.3961" stroke="#B42B0C" stroke-width="2.10189" stroke-linecap="round"/>
<path d="M138.458 16.8614C138.458 16.9529 138.641 17.0457 139.376 17.1151C140.842 17.1386 141.922 17.0471 142.244 16.9085C142.43 16.8614 142.658 16.8614 142.894 16.8614" stroke="#B42B0C" stroke-width="2.10189" stroke-linecap="round"/>
<path d="M94.6167 2C93.8834 2 92.4016 2.09149 91.5242 2.57525C91.1358 2.78941 91.0141 3.47485 90.8062 4.60109C90.4603 6.4746 90.644 8.46079 90.4368 9.91347C90.3401 10.5915 90.1838 11.1374 90.1131 13.593C90.0424 16.0485 90.0424 20.3941 90.0196 22.8157C89.9932 25.6039 89.9038 26.7121 90.5442 27.5923C92.4654 27.2832 94.2882 26.7204 95.1192 26.5818C95.447 26.5347 95.5842 26.5347 95.7256 26.3961" stroke="#B42B0C" stroke-width="2.10189" stroke-linecap="round"/>
<path d="M90.4583 15.8614C90.4583 15.9529 90.6412 16.0457 91.3759 16.1151C92.8424 16.1386 93.9222 16.0471 94.2445 15.9085C94.4295 15.8614 94.6583 15.8614 94.8939 15.8614" stroke="#B42B0C" stroke-width="2.10189" stroke-linecap="round"/>
<path d="M56.6167 2C55.8834 2 54.4016 2.09149 53.5242 2.57525C53.1358 2.78941 53.0141 3.47485 52.8062 4.60109C52.4603 6.4746 52.644 8.46079 52.4368 9.91347C52.3401 10.5915 52.1838 11.1374 52.1131 13.593C52.0424 16.0485 52.0424 20.3941 52.0196 22.8157C51.9932 25.6039 51.9038 26.7121 52.5442 27.5923C54.4654 27.2832 56.2882 26.7204 57.1192 26.5818C57.447 26.5347 57.5842 26.5347 57.7256 26.3961" stroke="#B42B0C" stroke-width="2.10189" stroke-linecap="round"/>
<path d="M52.4583 15.8614C52.4583 15.9529 52.6412 16.0457 53.3759 16.1151C54.8424 16.1386 55.9222 16.0471 56.2445 15.9085C56.4295 15.8614 56.6583 15.8614 56.8939 15.8614" stroke="#B42B0C" stroke-width="2.10189" stroke-linecap="round"/>
<path d="M6.61668 4C5.88341 4 4.40163 4.09149 3.52421 4.57525C3.13576 4.78941 3.01411 5.47485 2.80619 6.60109C2.46031 8.4746 2.64401 10.4608 2.43678 11.9135C2.34006 12.5915 2.18381 13.1374 2.11312 15.593C2.04242 18.0485 2.04242 22.3941 2.01955 24.8157C1.99322 27.6039 1.90381 28.7121 2.54421 29.5923C4.46539 29.2832 6.28817 28.7204 7.11916 28.5818C7.44698 28.5347 7.58421 28.5347 7.72559 28.3961" stroke="#B42B0C" stroke-width="2.10189" stroke-linecap="round"/>
<path d="M2.45825 17.8614C2.45825 17.9529 2.64122 18.0457 3.37588 18.1151C4.84241 18.1386 5.92221 18.0471 6.24449 17.9085C6.42954 17.8614 6.65825 17.8614 6.8939 17.8614" stroke="#B42B0C" stroke-width="2.10189" stroke-linecap="round"/>
<path d="M127.448 8.04039C126.95 7.87259 125.62 8.20569 123.864 9.45417C122.313 10.5572 121.027 12.9592 120.27 15.8732C119.644 18.2854 120.268 20.0594 120.517 20.683C121.185 22.354 122.434 22.7317 123.437 23.2739C125.283 24.2717 129.191 23.2376 130.948 22.2371C131.368 21.9027 131.781 21.4895 132.035 21.1526C132.289 20.8158 132.372 20.5678 132.457 20.3124" stroke="#B42B0C" stroke-width="2" stroke-linecap="round"/>
<path d="M32.8999 57.3546C32.0126 57.0603 30.2334 55.5799 28.4475 54.0906C25.9799 52.0327 23.9996 46.9738 21.1658 42.5794C19.7559 40.3929 18.7824 38.1894 18.1135 35.8127C17.6509 34.1687 17.2931 32.3925 17.4402 30.8341C17.6481 28.6327 20.4055 27.7818 22.8558 27.1085C23.6482 26.8907 24.7041 27.0327 25.4555 27.2534C26.2068 27.4741 26.6483 27.9156 26.9493 28.3637C27.2502 28.8119 27.3974 29.2533 27.326 29.775C26.861 33.176 22.207 35.6477 20.4211 37.1348C18.7339 38.5398 16.4102 39.9552 14.6243 40.9273C12.3425 42.1693 10.4617 44.8602 8.97459 47.0162C7.78424 48.7419 8.08054 51.103 8.0025 53.2589C7.93098 55.2351 9.41381 56.4583 9.85749 57.2008C10.7792 58.7432 13.2709 58.5407 19.128 58.5452C22.1384 58.5475 23.9728 55.5799 25.4621 53.794C27.3473 51.5335 28.4408 48.4542 28.8845 45.7699C29.0339 45.1723 29.181 44.5837 29.2568 44.0598C29.3326 43.5358 29.3326 43.0944 29.3326 42.6396" stroke="#B42B0C" stroke-width="2" stroke-linecap="round"/>
<path d="M99.0482 56.4483C98.9197 54.9019 98.9158 48.1826 100.793 39.9189C101.527 36.689 105.14 34.7752 107.156 34.0507C108.005 33.7457 108.782 34.8921 109.431 35.4744C110.911 36.8036 111.373 42.2619 111.967 49.7368C112.031 51.1196 112.16 51.6338 112.226 52.4128C112.292 53.1919 112.292 54.2202 112.292 55.2797" stroke="#B42B0C" stroke-width="2" stroke-linecap="round"/>
<path d="M100.606 49.8264H112.292" stroke="#B42B0C" stroke-width="2" stroke-linecap="round"/>
<path d="M130 38C130 41.8563 130 45.1283 130.193 47.5258C130.771 49.5377 131.169 51.4931 131.297 53.244C131.426 53.9666 131.683 54.3522 131.948 55.9181" stroke="#B42B0C" stroke-width="2" stroke-linecap="round"/>
<path d="M138.118 40.2369C141.581 38.0283 145.71 37 148.172 37C148.958 37.6544 149.344 37.9115 149.736 38.1725C150.898 41.7288 150.376 48.1715 149.27 50.2516C147.907 52.1992 144.809 56.7105 140.371 55.9542C139.594 55.8218 139.165 55.5985 138.817 55.105C138.04 54.0027 136.871 52.6782 136.613 51.0774C136.096 47.8833 135.006 42.2221 138.118 40.2369Z" stroke="#B42B0C" stroke-width="2" stroke-linecap="round"/>
<path d="M68 39C68.3895 42.755 68.6466 45.6141 68.9076 48.7245C69.2034 52.2502 71.4979 54.4407 73.058 55.6813C73.4009 55.954 73.8351 56.0066 74.2265 55.88C76.2356 55.2303 76.6942 50.452 77.6056 46.3542C77.7381 44.8662 77.7381 42.5525 77.5453 41.232C77.3525 39.9115 76.9668 39.6544 76.5695 39.3895" stroke="#B42B0C" stroke-width="2" stroke-linecap="round"/>
<path d="M120.285 34.3895C120.799 38.5029 121.064 44.4782 121 50.5138C120.935 52.6932 120.807 53.0789 120.741 53.5346C120.674 53.9903 120.674 54.5045 120.674 55.0343" stroke="#B42B0C" stroke-width="2" stroke-linecap="round"/>
<path d="M116 34C116.257 34.1285 116.514 34.2571 117.418 34.3233C118.322 34.3895 119.864 34.3895 120.852 34.4538C121.839 34.5181 122.225 34.6466 123.401 34.779" stroke="#B42B0C" stroke-width="2" stroke-linecap="round"/>
<path d="M53 33.1386C53 33.2301 53 33.3216 53.2058 34.741C53.4117 36.1604 53.8234 38.9049 54.0583 43.4751C54.2933 48.0452 54.339 54.3576 54.3861 60.8614" stroke="#B42B0C" stroke-width="2.10189" stroke-linecap="round"/>
<path d="M53.9703 33C54.7992 33.5059 56.7288 34.7937 59.1607 37.9769C60.1722 39.3008 60.6183 41.3057 61.5414 43.2436C62.1851 44.5946 62.3787 45.6097 62.5401 47.3542C62.8698 50.915 62.6573 53.4663 62.5194 53.9959C62.1928 55.2495 61.827 55.8685 60.3757 57.3441C59.4391 58.2963 58.3173 58.7351 57.6921 58.943C57.0212 59.2438 56.5596 59.6111 55.9366 60.0512C55.7737 60.1669 55.6365 60.3042 55.3565 60.4456" stroke="#B42B0C" stroke-width="2.10189" stroke-linecap="round"/>
<path d="M46.6167 30C45.8834 30 44.4016 30.0915 43.5242 30.5752C43.1358 30.7894 43.0141 31.4749 42.8062 32.6011C42.4603 34.4746 42.644 36.4608 42.4368 37.9135C42.3401 38.5915 42.1838 39.1374 42.1131 41.593C42.0424 44.0485 42.0424 48.3941 42.0196 50.8157C41.9932 53.6039 41.9038 54.7121 42.5442 55.5923C44.4654 55.2832 46.2882 54.7204 47.1192 54.5818C47.447 54.5347 47.5842 54.5347 47.7256 54.3961" stroke="#B42B0C" stroke-width="2.10189" stroke-linecap="round"/>
<path d="M42.4583 43.8614C42.4583 43.9529 42.6412 44.0457 43.3759 44.1151C44.8424 44.1386 45.9222 44.0471 46.2445 43.9085C46.4295 43.8614 46.6583 43.8614 46.8939 43.8614" stroke="#B42B0C" stroke-width="2.10189" stroke-linecap="round"/>
<path d="M90.4483 37.0404C89.9499 36.8726 88.62 37.2057 86.8644 38.4542C85.3133 39.5572 84.0268 41.9592 83.2704 44.8732C82.6443 47.2854 83.2679 49.0594 83.5171 49.683C84.1849 51.354 85.4343 51.7317 86.4374 52.2739C88.2831 53.2717 92.1914 52.2376 93.9483 51.2371C94.3678 50.9027 94.7811 50.4895 95.0353 50.1526C95.2895 49.8158 95.3721 49.5678 95.4573 49.3124" stroke="#B42B0C" stroke-width="2" stroke-linecap="round"/>
<path d="M155 37C155.129 38.6711 155.257 40.3421 155.323 42.6812C155.39 45.0203 155.39 47.9768 155.39 51.0228" stroke="#B42B0C" stroke-width="2" stroke-linecap="round"/>
<path d="M155 37.3895C155 37.6466 157.571 42.021 162.302 49.2194C165.547 54.1575 168.24 55.5647 168.888 55.3758C169.151 54.9298 169.28 53.7729 169.346 50.9917C169.412 48.2105 169.412 43.84 169.412 39.3371" stroke="#B42B0C" stroke-width="2" stroke-linecap="round"/>
</svg>
