<svg width="314" height="35" viewBox="0 0 314 35" fill="none" xmlns="http://www.w3.org/2000/svg">
<path d="M242.048 28.4483C241.92 26.9019 241.916 20.1826 243.793 11.9189C244.527 8.68896 248.14 6.77523 250.156 6.05071C251.005 5.7457 251.782 6.89208 252.431 7.47442C253.911 8.80359 254.373 14.2619 254.967 21.7368C255.031 23.1196 255.16 23.6338 255.226 24.4128C255.292 25.1919 255.292 26.2202 255.292 27.2797" stroke="#B42B0C" stroke-width="2" stroke-linecap="round"/>
<path d="M243.606 21.8264H255.292" stroke="#B42B0C" stroke-width="2" stroke-linecap="round"/>
<path d="M273 10C273 13.8563 273 17.1283 273.193 19.5258C273.771 21.5377 274.169 23.4931 274.297 25.244C274.426 25.9666 274.683 26.3522 274.948 27.9181" stroke="#B42B0C" stroke-width="2" stroke-linecap="round"/>
<path d="M81 7C81 10.8563 81 14.1283 81.1928 16.5258C81.7713 18.5377 82.1686 20.4931 82.2971 22.244C82.4257 22.9666 82.6827 23.3522 82.9476 24.9181" stroke="#B42B0C" stroke-width="2" stroke-linecap="round"/>
<path d="M100 8C100.129 9.67106 100.257 11.3421 100.323 13.6812C100.39 16.0203 100.39 18.9768 100.39 22.0228" stroke="#B42B0C" stroke-width="2" stroke-linecap="round"/>
<path d="M100 8.38951C100 8.6466 102.571 13.0209 107.302 20.2193C110.547 25.1575 113.24 26.5647 113.888 26.3758C114.151 25.9298 114.28 24.7729 114.346 21.9917C114.412 19.2105 114.412 14.84 114.412 10.3371" stroke="#B42B0C" stroke-width="2" stroke-linecap="round"/>
<path d="M281.118 12.2369C284.581 10.0283 288.71 9 291.172 9C291.958 9.6544 292.344 9.91148 292.736 10.1725C293.898 13.7288 293.376 20.1715 292.27 22.2516C290.907 24.1992 287.809 28.7105 283.371 27.9542C282.594 27.8218 282.165 27.5985 281.817 27.105C281.04 26.0027 279.871 24.6782 279.613 23.0774C279.096 19.8833 278.006 14.2221 281.118 12.2369Z" stroke="#B42B0C" stroke-width="2" stroke-linecap="round"/>
<path d="M35 8C35.1285 8.25709 35.2571 8.51417 35.6447 10.1891C36.0322 11.8641 36.675 14.9491 37.0703 18.2094C37.4657 21.4697 37.5942 24.8118 37.7267 28.2552" stroke="#B42B0C" stroke-width="2" stroke-linecap="round"/>
<path d="M36.5581 8.77905C40.4494 8.65051 42.7749 8.64662 45.7022 9.48993C46.2999 9.66214 46.6779 9.81519 46.9409 10.2028C47.5596 11.1148 47.4648 12.538 47.3362 13.7046C47.228 14.6865 46.3001 15.2685 45.523 15.7223C45.1315 15.919 44.7459 16.0476 43.3903 16.1138C42.0348 16.18 39.721 16.18 37.3372 16.18" stroke="#B42B0C" stroke-width="2" stroke-linecap="round"/>
<path d="M63 8.82173C63.3856 10.8784 63.7713 12.9351 63.9699 15.6014C64.1686 18.2677 64.1686 21.4812 64.1686 24.7922" stroke="#B42B0C" stroke-width="2" stroke-linecap="round"/>
<path d="M63.3895 9.60078C64.1608 8.82562 66.755 7.7856 71.032 8.03879C72.2678 8.11194 73.2367 9.19567 73.8307 9.7858C74.6921 10.6415 74.6857 12.4443 74.4286 14.8418C74.1989 16.9842 72.4849 18.0379 71.3183 18.5559C69.5067 19.3604 68.0677 19.4674 67.869 20.0478C70.3932 22.5797 72.3447 23.8807 73.1218 24.3345C73.5132 24.5312 73.8989 24.6598 74.2962 24.7922" stroke="#B42B0C" stroke-width="2" stroke-linecap="round"/>
<path d="M211 11C211.39 14.755 211.647 17.6141 211.908 20.7245C212.203 24.2502 214.498 26.4407 216.058 27.6813C216.401 27.954 216.835 28.0066 217.227 27.88C219.236 27.2303 219.694 22.452 220.606 18.3542C220.738 16.8662 220.738 14.5525 220.545 13.232C220.352 11.9115 219.967 11.6544 219.57 11.3895" stroke="#B42B0C" stroke-width="2" stroke-linecap="round"/>
<path d="M23.0752 11.7791C19.8344 16.1846 16.4767 20.5823 14.1882 23.6498C13.6059 24.3646 12.7061 25.2644 12.1783 25.9207C11.6505 26.577 11.522 26.9627 11 27.7495" stroke="#B42B0C" stroke-width="2" stroke-linecap="round"/>
<path d="M12.5581 11C16.1612 12.932 23.7141 17.0921 27.1516 19.4955C29.6932 21.3847 30.8618 22.1637 31.5746 22.7461C31.9018 23.0713 32.1589 23.457 32.8133 24.2438" stroke="#B42B0C" stroke-width="2" stroke-linecap="round"/>
<path d="M263.285 6.38953C263.799 10.5029 264.064 16.4782 264 22.5138C263.935 24.6932 263.807 25.0789 263.741 25.5346C263.674 25.9903 263.674 26.5045 263.674 27.0343" stroke="#B42B0C" stroke-width="2" stroke-linecap="round"/>
<path d="M259 6C259.257 6.12854 259.514 6.25709 260.418 6.3233C261.322 6.38952 262.864 6.38952 263.852 6.45379C264.839 6.51807 265.225 6.64661 266.401 6.77905" stroke="#B42B0C" stroke-width="2" stroke-linecap="round"/>
<path d="M196 5.13861C196 5.2301 196 5.32158 196.206 6.74099C196.412 8.16039 196.823 10.9049 197.058 15.4751C197.293 20.0452 197.339 26.3576 197.386 32.8614" stroke="#B42B0C" stroke-width="2.10189" stroke-linecap="round"/>
<path d="M196.97 5C197.799 5.50594 199.729 6.79366 202.161 9.97693C203.172 11.3008 203.618 13.3057 204.541 15.2436C205.185 16.5946 205.379 17.6097 205.54 19.3542C205.87 22.915 205.657 25.4663 205.519 25.9959C205.193 27.2495 204.827 27.8685 203.376 29.3441C202.439 30.2963 201.317 30.7351 200.692 30.943C200.021 31.2438 199.56 31.6111 198.937 32.0512C198.774 32.1669 198.636 32.3042 198.356 32.4456" stroke="#B42B0C" stroke-width="2.10189" stroke-linecap="round"/>
<path d="M189.617 2C188.883 2 187.402 2.09149 186.524 2.57525C186.136 2.78941 186.014 3.47485 185.806 4.60109C185.46 6.4746 185.644 8.46079 185.437 9.91347C185.34 10.5915 185.184 11.1374 185.113 13.593C185.042 16.0485 185.042 20.3941 185.02 22.8157C184.993 25.6039 184.904 26.7121 185.544 27.5923C187.465 27.2832 189.288 26.7204 190.119 26.5818C190.447 26.5347 190.584 26.5347 190.726 26.3961" stroke="#B42B0C" stroke-width="2.10189" stroke-linecap="round"/>
<path d="M185.458 15.8614C185.458 15.9529 185.641 16.0457 186.376 16.1151C187.842 16.1386 188.922 16.0471 189.244 15.9085C189.43 15.8614 189.658 15.8614 189.894 15.8614" stroke="#B42B0C" stroke-width="2.10189" stroke-linecap="round"/>
<path d="M142.617 4C141.883 4 140.402 4.09149 139.524 4.57525C139.136 4.78941 139.014 5.47485 138.806 6.60109C138.46 8.4746 138.644 10.4608 138.437 11.9135C138.34 12.5915 138.184 13.1374 138.113 15.593C138.042 18.0485 138.042 22.3941 138.02 24.8157C137.993 27.6039 137.904 28.7121 138.544 29.5923C140.465 29.2832 142.288 28.7204 143.119 28.5818C143.447 28.5347 143.584 28.5347 143.726 28.3961" stroke="#B42B0C" stroke-width="2.10189" stroke-linecap="round"/>
<path d="M138.458 17.8614C138.458 17.9529 138.641 18.0457 139.376 18.1151C140.842 18.1386 141.922 18.0471 142.244 17.9085C142.43 17.8614 142.658 17.8614 142.894 17.8614" stroke="#B42B0C" stroke-width="2.10189" stroke-linecap="round"/>
<path d="M94.6167 3C93.8834 3 92.4016 3.09149 91.5242 3.57525C91.1358 3.78941 91.0141 4.47485 90.8062 5.60109C90.4603 7.4746 90.644 9.46079 90.4368 10.9135C90.3401 11.5915 90.1838 12.1374 90.1131 14.593C90.0424 17.0485 90.0424 21.3941 90.0196 23.8157C89.9932 26.6039 89.9038 27.7121 90.5442 28.5923C92.4654 28.2832 94.2882 27.7204 95.1192 27.5818C95.447 27.5347 95.5842 27.5347 95.7256 27.3961" stroke="#B42B0C" stroke-width="2.10189" stroke-linecap="round"/>
<path d="M90.4583 16.8614C90.4583 16.9529 90.6412 17.0457 91.3759 17.1151C92.8424 17.1386 93.9222 17.0471 94.2445 16.9085C94.4295 16.8614 94.6583 16.8614 94.8939 16.8614" stroke="#B42B0C" stroke-width="2.10189" stroke-linecap="round"/>
<path d="M56.6167 3C55.8834 3 54.4016 3.09149 53.5242 3.57525C53.1358 3.78941 53.0141 4.47485 52.8062 5.60109C52.4603 7.4746 52.644 9.46079 52.4368 10.9135C52.3401 11.5915 52.1838 12.1374 52.1131 14.593C52.0424 17.0485 52.0424 21.3941 52.0196 23.8157C51.9932 26.6039 51.9038 27.7121 52.5442 28.5923C54.4654 28.2832 56.2882 27.7204 57.1192 27.5818C57.447 27.5347 57.5842 27.5347 57.7256 27.3961" stroke="#B42B0C" stroke-width="2.10189" stroke-linecap="round"/>
<path d="M52.4583 16.8614C52.4583 16.9529 52.6412 17.0457 53.3759 17.1151C54.8424 17.1386 55.9222 17.0471 56.2445 16.9085C56.4295 16.8614 56.6583 16.8614 56.8939 16.8614" stroke="#B42B0C" stroke-width="2.10189" stroke-linecap="round"/>
<path d="M6.61668 5C5.88341 5 4.40163 5.09149 3.52421 5.57525C3.13576 5.78941 3.01411 6.47485 2.80619 7.60109C2.46031 9.4746 2.64401 11.4608 2.43678 12.9135C2.34006 13.5915 2.18381 14.1374 2.11312 16.593C2.04242 19.0485 2.04242 23.3941 2.01955 25.8157C1.99322 28.6039 1.90381 29.7121 2.54421 30.5923C4.46539 30.2832 6.28817 29.7204 7.11916 29.5818C7.44698 29.5347 7.58421 29.5347 7.72559 29.3961" stroke="#B42B0C" stroke-width="2.10189" stroke-linecap="round"/>
<path d="M2.45825 18.8614C2.45825 18.9529 2.64122 19.0457 3.37588 19.1151C4.84241 19.1386 5.92221 19.0471 6.24449 18.9085C6.42954 18.8614 6.65825 18.8614 6.8939 18.8614" stroke="#B42B0C" stroke-width="2.10189" stroke-linecap="round"/>
<path d="M233.448 9.04039C232.95 8.87259 231.62 9.20569 229.864 10.4542C228.313 11.5572 227.027 13.9592 226.27 16.8732C225.644 19.2854 226.268 21.0594 226.517 21.683C227.185 23.354 228.434 23.7317 229.437 24.2739C231.283 25.2717 235.191 24.2376 236.948 23.2371C237.368 22.9027 237.781 22.4895 238.035 22.1526C238.289 21.8158 238.372 21.5678 238.457 21.3124" stroke="#B42B0C" stroke-width="2" stroke-linecap="round"/>
<path d="M127.448 9.04039C126.95 8.87259 125.62 9.20569 123.864 10.4542C122.313 11.5572 121.027 13.9592 120.27 16.8732C119.644 19.2854 120.268 21.0594 120.517 21.683C121.185 23.354 122.434 23.7317 123.437 24.2739C125.283 25.2717 129.191 24.2376 130.948 23.2371C131.368 22.9027 131.781 22.4895 132.035 22.1526C132.289 21.8158 132.372 21.5678 132.457 21.3124" stroke="#B42B0C" stroke-width="2" stroke-linecap="round"/>
<path d="M175.9 32.3546C175.013 32.0603 173.233 30.5799 171.448 29.0906C168.98 27.0327 167 21.9738 164.166 17.5794C162.756 15.3929 161.782 13.1894 161.114 10.8127C160.651 9.16874 160.293 7.39253 160.44 5.83408C160.648 3.63268 163.406 2.78182 165.856 2.10849C166.648 1.89075 167.704 2.03269 168.455 2.25341C169.207 2.47414 169.648 2.91559 169.949 3.36373C170.25 3.81187 170.397 4.25332 170.326 4.77504C169.861 8.17602 165.207 10.6477 163.421 12.1348C161.734 13.5398 159.41 14.9552 157.624 15.9273C155.343 17.1693 153.462 19.8602 151.975 22.0162C150.784 23.7419 151.081 26.103 151.003 28.2589C150.931 30.2351 152.414 31.4583 152.857 32.2008C153.779 33.7432 156.271 33.5407 162.128 33.5452C165.138 33.5475 166.973 30.5799 168.462 28.794C170.347 26.5335 171.441 23.4542 171.885 20.7699C172.034 20.1723 172.181 19.5837 172.257 19.0598C172.333 18.5358 172.333 18.0944 172.333 17.6396" stroke="#B42B0C" stroke-width="2" stroke-linecap="round"/>
<path d="M298 9C298.129 10.6711 298.257 12.3421 298.323 14.6812C298.39 17.0203 298.39 19.9768 298.39 23.0228" stroke="#B42B0C" stroke-width="2" stroke-linecap="round"/>
<path d="M298 9.38951C298 9.6466 300.571 14.0209 305.302 21.2193C308.547 26.1575 311.24 27.5647 311.888 27.3758C312.151 26.9298 312.28 25.7729 312.346 22.9917C312.412 20.2105 312.412 15.84 312.412 11.3371" stroke="#B42B0C" stroke-width="2" stroke-linecap="round"/>
</svg>
