<svg width="56" height="55" viewBox="0 0 56 55" fill="none" xmlns="http://www.w3.org/2000/svg">
<path d="M53.9311 25.4484L30.5363 2.05485C29.1899 0.707627 27.0048 0.707627 25.6563 2.05485L20.7992 6.9132L26.9615 13.0755C28.394 12.592 30.0358 12.9163 31.1772 14.0577C31.7211 14.6021 32.1009 15.2886 32.273 16.0387C32.4451 16.7888 32.4027 17.5722 32.1505 18.2993L38.0895 24.2391C39.5263 23.7438 41.1846 24.0638 42.3315 25.2133C43.936 26.8164 43.936 29.4154 42.3315 31.0194C41.9502 31.4009 41.4975 31.7035 40.9993 31.9099C40.501 32.1164 39.9669 32.2227 39.4276 32.2227C38.8882 32.2227 38.3542 32.1164 37.8559 31.9099C37.3577 31.7035 36.9049 31.4009 36.5237 31.0194C35.9508 30.4462 35.5603 29.7164 35.4013 28.9217C35.2423 28.1271 35.322 27.3032 35.6302 26.5537L30.0919 21.015L30.091 35.5912C30.4928 35.7891 30.8597 36.0512 31.1772 36.3672C32.7812 37.9703 32.7812 40.5684 31.1772 42.175C29.5732 43.7782 26.9734 43.7782 25.371 42.175C23.7674 40.5689 23.6359 37.9708 25.239 36.3672C25.6355 35.9711 26.0264 35.6719 26.4509 35.4716V20.7603C26.0264 20.5599 25.6359 20.2628 25.2386 19.8642C24.0242 18.6503 23.7972 16.8676 24.4203 15.3752L18.379 9.29992L2.35398 25.3402C1.00633 26.6887 1.01481 28.8738 2.36247 30.2214L25.7611 53.615C27.1079 54.9622 29.2947 54.9622 30.6437 53.615L53.9294 30.3301C55.277 28.982 55.2783 26.7956 53.9311 25.4484V25.4484Z" fill="#B42B0C"/>
</svg>
