<svg width="55" height="55" viewBox="0 0 55 55" fill="none" xmlns="http://www.w3.org/2000/svg">
<path fill-rule="evenodd" clip-rule="evenodd" d="M27.1654 2.16602C13.011 2.16602 1.53326 13.6412 1.53326 27.7982C1.53326 39.1235 8.87765 48.7311 19.0621 52.1209C20.3427 52.3585 20.813 51.5648 20.813 50.8878C20.813 50.2766 20.7892 48.2574 20.7782 46.1156C13.6473 47.6662 12.1426 43.0914 12.1426 43.0914C10.9766 40.1287 9.29659 39.3409 9.29659 39.3409C6.97057 37.75 9.47189 37.7831 9.47189 37.7831C12.0454 37.9635 13.4011 40.4245 13.4011 40.4245C15.6872 44.3422 19.3974 43.2098 20.8601 42.5553C21.0901 40.8986 21.7544 39.7674 22.4875 39.1274C16.7942 38.4801 10.8089 36.2818 10.8089 26.4603C10.8089 23.6618 11.8107 21.3753 13.4503 19.5798C13.1838 18.9346 12.3064 16.3276 13.6982 12.797C13.6982 12.797 15.8502 12.1081 20.7485 15.4244C22.7935 14.856 24.9867 14.5704 27.1654 14.5606C29.3429 14.5704 31.5373 14.8552 33.5862 15.4235C38.4785 12.1072 40.6279 12.7961 40.6279 12.7961C42.0231 16.3263 41.1458 18.9338 40.8796 19.579C42.5231 21.3744 43.5176 23.661 43.5176 26.4594C43.5176 36.3043 37.5213 38.4716 31.8136 39.1066C32.7334 39.902 33.5526 41.4623 33.5526 43.8533C33.5526 47.2829 33.5229 50.0431 33.5229 50.8874C33.5229 51.5695 33.9847 52.3687 35.2836 52.117C45.4621 48.7239 52.798 39.1193 52.798 27.7982C52.7975 13.6421 41.3211 2.16644 27.1654 2.16644V2.16602Z" fill="#B42B0C"/>
<path d="M11.2414 38.9678C11.1849 39.0951 10.9846 39.1333 10.8021 39.0463C10.6153 38.9631 10.5113 38.7895 10.5716 38.6617C10.6268 38.5302 10.8275 38.4941 11.013 38.5819C11.1998 38.6656 11.3059 38.8409 11.2409 38.9682L11.2414 38.9678ZM12.2796 40.1261C12.1578 40.2394 11.9188 40.1868 11.7567 40.0073C11.5886 39.829 11.5572 39.59 11.6815 39.475C11.808 39.3621 12.0398 39.4156 12.2079 39.5938C12.3751 39.7747 12.4082 40.0115 12.28 40.1265L12.2796 40.1261ZM13.2906 41.602C13.1336 41.7115 12.8764 41.6092 12.7176 41.3812C12.5606 41.1529 12.5606 40.8791 12.7219 40.77C12.8802 40.6605 13.1336 40.7594 13.2949 40.9852C13.4511 41.2165 13.4511 41.4903 13.2906 41.6015V41.602ZM14.6748 43.0286C14.5347 43.1835 14.2351 43.1419 14.016 42.9309C13.7924 42.7242 13.73 42.4301 13.8705 42.2756C14.0131 42.1202 14.314 42.1635 14.5343 42.3732C14.758 42.5795 14.8255 42.8741 14.6757 43.0281L14.6748 43.0286ZM16.5849 43.8567C16.5225 44.0574 16.2347 44.1487 15.9439 44.063C15.654 43.9751 15.4643 43.7404 15.5237 43.5375C15.5831 43.335 15.873 43.2404 16.1655 43.3316C16.4554 43.4191 16.6451 43.6525 16.5849 43.8567ZM18.683 44.0099C18.6902 44.2213 18.444 44.3962 18.1396 44.4004C17.8328 44.4076 17.5845 44.2361 17.5815 44.0282C17.5815 43.8147 17.8226 43.6419 18.129 43.636C18.4334 43.6304 18.6834 43.8002 18.6834 44.0095L18.683 44.0099ZM20.6346 43.678C20.6711 43.8838 20.4593 44.0956 20.1567 44.1521C19.8595 44.2073 19.5837 44.0791 19.5455 43.8749C19.5089 43.6635 19.7246 43.4517 20.0217 43.397C20.3248 43.3448 20.5964 43.4691 20.6346 43.6784V43.678Z" fill="#B42B0C"/>
</svg>
