<svg width="55" height="55" viewBox="0 0 55 55" fill="none" xmlns="http://www.w3.org/2000/svg">
<path fill-rule="evenodd" clip-rule="evenodd" d="M27.8182 2.83545C13.6639 2.83545 2.1861 14.3107 2.1861 28.4676C2.1861 39.793 9.53049 49.4006 19.7149 52.7903C20.9955 53.028 21.4658 52.2342 21.4658 51.5572C21.4658 50.946 21.442 48.9269 21.431 46.7851C14.3001 48.3356 12.7954 43.7608 12.7954 43.7608C11.6294 40.7981 9.94943 40.0103 9.94943 40.0103C7.6234 38.4194 10.1247 38.4525 10.1247 38.4525C12.6982 38.6329 14.0539 41.0939 14.0539 41.0939C16.3401 45.0117 20.0502 43.8792 21.5129 43.2247C21.743 41.5681 22.4073 40.4369 23.1403 39.7968C17.447 39.1495 11.4618 36.9512 11.4618 27.1297C11.4618 24.3313 12.4635 22.0447 14.1032 20.2492C13.8366 19.6041 12.9593 16.9971 14.351 13.4664C14.351 13.4664 16.503 12.7775 21.4013 16.0938C23.4463 15.5255 25.6395 15.2398 27.8182 15.23C29.9957 15.2398 32.1902 15.5246 34.239 16.093C39.1313 12.7767 41.2808 13.4656 41.2808 13.4656C42.676 16.9958 41.7986 19.6032 41.5325 20.2484C43.176 22.0439 44.1705 24.3304 44.1705 27.1289C44.1705 36.9737 38.1742 39.141 32.4665 39.776C33.3863 40.5714 34.2055 42.1317 34.2055 44.5227C34.2055 47.9523 34.1758 50.7126 34.1758 51.5568C34.1758 52.2389 34.6376 53.0382 35.9364 52.7865C46.1149 49.3934 53.4508 39.7887 53.4508 28.4676C53.4504 14.3115 41.9739 2.83587 27.8182 2.83587V2.83545Z" fill="#B42B0C"/>
<path d="M11.8942 39.6372C11.8378 39.7645 11.6374 39.8027 11.4549 39.7157C11.2682 39.6325 11.1642 39.4589 11.2244 39.3312C11.2796 39.1996 11.4804 39.1635 11.6659 39.2514C11.8526 39.335 11.9587 39.5103 11.8938 39.6376L11.8942 39.6372ZM12.9325 40.7956C12.8106 40.9089 12.5717 40.8562 12.4095 40.6767C12.2414 40.4984 12.21 40.2595 12.3344 40.1444C12.4609 40.0315 12.6926 40.085 12.8607 40.2633C13.028 40.4441 13.0611 40.6809 12.9329 40.796L12.9325 40.7956ZM13.9435 42.2714C13.7865 42.3809 13.5292 42.2786 13.3705 42.0507C13.2134 41.8223 13.2134 41.5485 13.3747 41.4395C13.5331 41.3299 13.7865 41.4288 13.9478 41.6547C14.104 41.886 14.104 42.1598 13.9435 42.271V42.2714ZM15.3277 43.698C15.1876 43.8529 14.8879 43.8113 14.6689 43.6004C14.4452 43.3937 14.3828 43.0995 14.5233 42.945C14.6659 42.7897 14.9669 42.8329 15.1872 43.0426C15.4109 43.2489 15.4783 43.5435 15.3285 43.6976L15.3277 43.698ZM17.2377 44.5261C17.1753 44.7269 16.8875 44.8181 16.5968 44.7324C16.3069 44.6445 16.1172 44.4098 16.1766 44.2069C16.236 44.0044 16.5259 43.9098 16.8184 44.0011C17.1083 44.0885 17.298 44.3219 17.2377 44.5261ZM19.3358 44.6793C19.343 44.8907 19.0968 45.0656 18.7925 45.0698C18.4856 45.0771 18.2373 44.9056 18.2344 44.6976C18.2344 44.4841 18.4754 44.3113 18.7819 44.3054C19.0862 44.2999 19.3362 44.4697 19.3362 44.6789L19.3358 44.6793ZM21.2875 44.3474C21.324 44.5533 21.1122 44.7651 20.8095 44.8215C20.5124 44.8767 20.2365 44.7485 20.1983 44.5444C20.1618 44.333 20.3774 44.1212 20.6746 44.0664C20.9776 44.0142 21.2493 44.1386 21.2875 44.3478V44.3474Z" fill="#B42B0C"/>
</svg>
