<svg width="28" height="32" viewBox="0 0 28 32" fill="none" xmlns="http://www.w3.org/2000/svg">
<path d="M2 2.27722C2 2.36871 2 2.46019 2.20584 3.8796C2.41168 5.299 2.82337 8.04356 3.05832 12.6137C3.29327 17.1838 3.33901 23.4962 3.38614 30" stroke="#B42B0C" stroke-width="2.10189" stroke-linecap="round"/>
<path d="M2.97034 2.13863C3.79925 2.64457 5.72875 3.93229 8.16074 7.11556C9.17216 8.43944 9.61826 10.4444 10.5414 12.3822C11.1851 13.7332 11.3787 14.7483 11.5401 16.4928C11.8698 20.0536 11.6573 22.605 11.5194 23.1345C11.1928 24.3882 10.827 25.0072 9.37569 26.4827C8.43908 27.435 7.31727 27.8737 6.69212 28.0816C6.02123 28.3824 5.55964 28.7497 4.93658 29.1898C4.7737 29.3056 4.63648 29.4428 4.35648 29.5842" stroke="#B42B0C" stroke-width="2.10189" stroke-linecap="round"/>
<path d="M25.0099 2C24.2767 2 22.7949 2.09149 21.9175 2.57525C21.529 2.78941 21.4074 3.47485 21.1994 4.60109C20.8536 6.4746 21.0373 8.46079 20.83 9.91347C20.7333 10.5915 20.5771 11.1374 20.5064 13.593C20.4357 16.0485 20.4357 20.3941 20.4128 22.8157C20.3865 25.6039 20.2971 26.7121 20.9375 27.5923C22.8586 27.2832 24.6814 26.7204 25.5124 26.5818C25.8402 26.5347 25.9775 26.5347 26.1188 26.3961" stroke="#B42B0C" stroke-width="2.10189" stroke-linecap="round"/>
<path d="M20.8515 15.8614C20.8515 15.9529 21.0345 16.0457 21.7691 16.1151C23.2357 16.1386 24.3155 16.0471 24.6377 15.9085C24.8228 15.8614 25.0515 15.8614 25.2871 15.8614" stroke="#B42B0C" stroke-width="2.10189" stroke-linecap="round"/>
</svg>
