<svg width="55" height="55" viewBox="0 0 55 55" fill="none" xmlns="http://www.w3.org/2000/svg">
<path d="M44 0C50.0751 0 55 4.92487 55 11V44C55 50.0751 50.0751 55 44 55H11C4.92487 55 8.85881e-08 50.0751 0 44V11C0 4.92487 4.92487 8.85854e-08 11 0H44ZM17.9023 18.7002C15.5686 18.7003 12.7675 20.4254 11.6445 22.5557L4.40039 36.291H12.8516L22.1279 18.7002H17.9023ZM23.7129 18.7002L14.4355 36.291H22.8867L32.1641 18.7002H23.7129ZM33.6943 18.7002L24.417 36.291H28.6426C30.9765 36.291 33.7804 34.566 34.9033 32.4355L42.1455 18.7002H33.6943ZM47.0791 18.7002C44.7453 18.7002 42.8536 20.668 42.8535 23.0977C42.8535 25.5274 44.7452 27.4951 47.0791 27.4951C49.4129 27.4951 51.3047 25.5274 51.3047 23.0977C51.3046 20.668 49.4129 18.7002 47.0791 18.7002Z" fill="#B42B0C"/>
</svg>
