<svg width="113" height="139" viewBox="0 0 113 139" fill="none" xmlns="http://www.w3.org/2000/svg">
<rect width="112.299" height="139" fill="#C3CE72"/>
<path d="M11 120.128C98.1202 159.162 64.8205 79.3964 46.0743 79.3964C27.3282 79.3964 81.1488 27.9938 81.1488 9.24758C81.1488 -9.49859 51.0883 59.0306 69.8344 59.0306C147.903 31.3105 11 101.382 11 120.128Z" fill="#8092FB"/>
<path d="M60.9979 85.7109C63.3125 87.7382 65.5972 90.4929 67.6317 93.6708C71.9895 100.478 75.1349 109.121 75.0262 116.508C74.9719 120.194 74.108 123.533 72.2195 126.182C70.3375 128.821 67.4013 130.828 63.1004 131.796C54.4997 133.732 40.4978 131.499 18.9393 121.884C19.0351 120.938 19.499 119.797 20.3494 118.469C21.3039 116.978 22.707 115.309 24.4881 113.496C28.0498 109.87 33.0668 105.723 38.867 101.343C45.5744 96.2769 53.3038 90.9169 60.9979 85.7109ZM71.1238 44.6093C70.7639 46.7672 70.5383 48.8254 70.4822 50.7148C70.3902 53.8158 70.7527 56.5369 71.7928 58.5029C72.3175 59.4946 73.0204 60.3041 73.9305 60.8632C74.8415 61.4229 75.9279 61.7128 77.1883 61.7128H77.2859L77.3777 61.6796C87.1376 58.2142 93.4999 56.2917 97.1795 55.6005C98.0967 55.4282 98.8326 55.335 99.4041 55.3115C99.9877 55.2875 100.35 55.3385 100.55 55.414C100.642 55.449 100.674 55.4803 100.68 55.4872C100.681 55.4866 100.681 55.4854 100.682 55.4941C100.688 55.5476 100.665 55.7221 100.452 56.0624C100.038 56.7241 99.1366 57.6535 97.7684 58.829C96.414 59.9926 94.6464 61.3603 92.5467 62.8974C88.3477 65.9713 82.8498 69.7012 76.7322 73.8007C71.7932 77.1105 66.4517 80.6602 61.0721 84.2949C58.5437 82.2326 55.9091 80.9472 53.4285 80.9472C52.3121 80.9472 51.5386 80.7537 51.0242 80.4453C50.5307 80.1493 50.235 79.7238 50.1053 79.1435C49.9708 78.5413 50.0132 77.757 50.2537 76.7812C50.493 75.8103 50.9194 74.6879 51.5125 73.4296C53.8941 68.377 58.8266 61.4121 64.3924 53.8017C66.5829 50.8065 68.8667 47.714 71.1238 44.6093ZM87.3055 8.68353C87.3678 8.67724 87.3998 8.68931 87.4334 8.71478C87.4805 8.75052 87.5617 8.84075 87.6463 9.04779C87.8192 9.47129 87.9373 10.2124 87.9373 11.3642C87.9372 13.5881 87.1343 16.3541 85.7108 19.5283C84.2917 22.6923 82.2791 26.2124 79.91 29.9286C77.9069 33.0706 75.6545 36.3416 73.3035 39.6464C74.1173 36.2759 75.1702 32.787 76.3504 29.412C78.9289 22.0388 82.0822 15.2802 84.5701 11.5478C85.1913 10.6159 85.7585 9.89097 86.2527 9.39642C86.7713 8.87762 87.122 8.70217 87.3055 8.68353Z" stroke="#FFF3DB" stroke-width="1.13143"/>
<path d="M53.4071 34.7947C53.4071 34.6808 53.0085 34.6221 52.3192 34.6791C51.8287 34.7196 51.4538 35.195 51.0518 35.7394C50.5937 36.3597 50.6463 37.207 50.7886 37.7816C51.0488 38.8318 52.3701 38.4753 52.6574 38.6754C54.0455 39.6425 52.5444 43.2429 53.1449 44.4543C53.2839 44.7347 53.7454 44.6303 54.0637 44.4594C55.3748 43.756 55.7608 42.2214 56.2819 41.1826C56.4894 40.769 56.3975 40.3181 56.6831 40.0308C58.3381 38.3658 62.2592 40.489 63.3532 40.1465C64.3238 39.8426 65.0218 38.596 65.6827 37.5633C66.2751 36.6375 66.1192 35.7748 65.9191 35.3443C65.47 34.3783 64.1676 34.2218 62.7596 34.0475C61.3852 33.8774 60.2576 33.8732 59.249 34.1036C57.9557 34.277 56.6891 34.3909 54.7091 34.478C54.2716 34.5065 54.1008 34.5635 53.5797 34.6221" stroke="#E6C980" stroke-width="2" stroke-linecap="round"/>
<path d="M90.6789 81.7295C90.5081 81.7295 90.3372 81.7295 90.1069 81.7579C89.8765 81.7864 89.5918 81.8434 89.4167 82.4706C88.9224 84.2406 89.4676 86.152 90.0706 87.1296C90.5808 87.9565 91.3105 88.6247 92.2845 89.6929C92.7959 90.2536 93.9523 89.5548 94.8142 89.038C95.3785 88.6996 95.7951 88.1174 96.2265 87.4574C96.4183 87.164 96.3732 86.8543 96.3163 86.5938C96.2593 86.3332 96.1454 86.1055 95.9729 85.9596C95.8003 85.8138 95.5725 85.7569 95.5691 85.813C95.5163 86.6708 97.9711 86.561 100.04 86.4186C100.867 86.3618 101.198 85.9916 101.374 85.0192C101.842 82.4317 101.265 80.1817 100.72 79.3198C100.338 78.7168 99.5982 78.3388 98.8519 77.8789C97.5075 77.0505 95.0031 77.8159 94.017 78.1619C93.2791 78.4208 92.8669 79.4828 92.4346 80.1739C92.3317 80.3384 92.2906 80.5181 92.1758 80.6346C92.0611 80.7511 91.8902 80.808 91.7168 80.8658C91.5434 80.9236 91.3726 80.9806 91.024 81.2118" stroke="#E6C980" stroke-width="2" stroke-linecap="round"/>
<path d="M24.418 58.7797C23.8486 58.8936 20.9928 59.1801 16.9964 59.5536C15.5614 59.6878 15.3348 59.7564 15.132 60.0135C13.6609 61.879 14.0647 64.7018 14.321 65.0754C14.4878 65.3185 15.0897 65.2781 15.3537 65.5068C16.36 66.3782 15.2726 68.2616 15.4719 69.6127C15.5501 70.1424 16.0698 70.2235 16.5029 70.2822C17.3855 70.4018 18.3734 69.9423 19.2638 69.196C20.3838 68.2572 20.3337 67.4092 20.5053 67.2358C20.7385 67.0002 21.3086 68.0356 22.054 68.8397C22.7575 69.5985 24.0091 69.6507 25.072 69.4798C27.3949 69.1065 25.8571 63.8494 26.1125 62.695C26.5161 60.8707 27.6966 59.9324 27.6396 59.5019C27.1806 58.7815 26.2643 58.3207 25.4559 58.0041C25.2825 57.9739 25.1117 58.0308 24.5906 58.4346" stroke="#E6C980" stroke-width="2" stroke-linecap="round"/>
<path d="M30.9751 5.28787C30.5765 5.74514 29.5964 6.43708 29.3091 6.75199C28.9614 7.13301 29.077 8.04356 29.2193 8.84853C29.4268 10.0214 31.3754 9.31356 31.8344 9.31442C32.3464 9.31539 32.7558 8.45597 33.1009 7.56645C33.2183 6.73387 33.0474 5.86765 32.6747 5.14896C32.4728 4.88581 32.2451 4.82887 31.8378 4.7702" stroke="#E6C980" stroke-width="2" stroke-linecap="round"/>
<path d="M31.4927 61.0229C31.3202 61.8771 31.4341 63.7821 31.692 64.0979C31.8213 64.2561 32.0069 64.3567 32.2088 64.3869C32.4107 64.4171 32.6385 64.3601 32.8412 64.2169C33.2713 63.9131 33.3908 62.871 33.3339 61.664C33.2769 61.1972 33.1631 61.0264 32.7058 60.7391C32.2485 60.4518 31.4513 60.0532 30.2849 59.4699" stroke="#E6C980" stroke-width="2" stroke-linecap="round"/>
<path d="M31.3202 47.2186C27.9364 47.2186 25.4016 48.3574 24.0798 49.0873C22.7805 49.8048 21.5433 48.9458 21.3992 48.6016C21.0666 47.807 22.8616 47.1634 24.9262 46.3299C25.5313 46.0857 26.1884 46.1833 26.568 46.2687C27.1105 46.3907 27.4636 46.8717 27.9804 47.159C28.3638 47.3722 28.9579 47.2772 29.6188 46.9908C29.8811 46.8183 29.995 46.5905 30.0252 46.3877C30.0554 46.185 29.9984 46.0141 29.9398 45.6656" stroke="#E6C980" stroke-width="2" stroke-linecap="round"/>
<path d="M45.6422 47.3911C45.6422 47.505 45.7561 48.0192 46.071 48.8518C46.5905 50.2253 48.6792 50.3798 50.0958 50.4687C50.3574 50.4851 50.5842 50.3832 50.8154 50.1261C51.3822 49.4959 51.5091 48.4886 51.3382 47.656C51.17 46.8361 50.189 46.5301 49.5868 46.2713C48.9758 46.0087 48.3479 46.1263 47.9173 46.097C47.5438 46.2385 47.3108 46.5266 47.1676 46.8709C47.0813 47.0443 46.9674 47.2151 46.8501 47.3911" stroke="#E6C980" stroke-width="2" stroke-linecap="round"/>
<path d="M91.3691 44.1126C91.0257 44.2265 89.9956 45.2549 89.4141 46.4378C89.2744 46.7219 89.5262 47.153 89.6703 47.3868C89.8952 47.7517 90.5029 47.7362 91.1344 47.6793C91.6774 47.6303 92.1146 47.3342 92.4597 46.9347C92.577 46.5922 92.577 45.9658 92.4916 45.4439C92.4062 44.9219 92.2353 44.5233 91.7142 43.7675" stroke="#E6C980" stroke-width="2" stroke-linecap="round"/>
<path d="M95.5104 93.8083C95.2826 95.1749 95.1653 96.4484 95.2223 97.3966C95.2452 97.7789 95.3931 97.9461 95.8504 98.0341C96.3076 98.1221 97.1048 98.1221 97.6294 97.9228C98.154 97.7235 98.3817 97.3249 98.4991 96.7779C98.7583 95.5695 98.5025 94.6728 98.2445 94.3285C98.1005 94.1551 97.9296 93.9843 97.6423 93.8109C97.355 93.6375 96.9564 93.4666 96.3732 93.2906" stroke="#E6C980" stroke-width="2" stroke-linecap="round"/>
<path d="M26.8338 14.4332C25.4568 14.6627 21.4604 15.6894 19.0145 16.415C17.2038 16.9522 18.9515 20.4623 20.2422 22.6796C21.1827 24.2954 23.3792 23.4647 24.4991 23.5769C25.4697 23.6741 25.9693 24.4983 26.342 24.4992C27.7041 24.5024 27.6965 20.6038 27.3816 19.2674C27.1953 18.4767 26.606 17.7152 26.3454 16.8525C26.2125 16.4122 26.3731 15.988 26.6017 15.6152C26.7734 15.4134 27.0581 15.1856 27.2902 14.9544C27.5223 14.7231 27.6931 14.4954 28.2142 14.0881" stroke="#E6C980" stroke-width="2" stroke-linecap="round"/>
<path d="M50.8188 8.04874C49.1036 8.61989 45.656 9.65694 44.2652 10.1177C43.778 10.279 43.4007 10.5784 43.1134 10.8648C42.8044 11.1729 42.8813 11.9554 42.9382 12.731C42.962 13.0552 43.1091 13.2219 43.4809 13.3099C44.4561 13.5407 45.5231 13.2271 46.2409 12.769C47.1934 11.046 47.5972 9.37568 47.712 8.68633C47.7698 8.39557 47.8267 8.22474 47.8854 8.04874" stroke="#E6C980" stroke-width="2" stroke-linecap="round"/>
</svg>
