<svg width="1136" height="1135" viewBox="0 0 1136 1135" fill="none" xmlns="http://www.w3.org/2000/svg">
<g filter="url(#filter0_d_319_2)">
<circle cx="574.592" cy="584" r="467.219" fill="#252525"/>
<g filter="url(#filter1_i_319_2)">
<path d="M1070.92 639.71C1043.06 889.8 830.954 1084.26 573.43 1084.26C315.8 1084.26 103.624 889.619 75.9042 639.379C74.6291 627.868 83.8288 618.044 95.4101 618.048L1051.43 618.367C1063.01 618.371 1072.2 628.2 1070.92 639.71Z" fill="#F8F8F8"/>
</g>
<path d="M573.43 1074.26C825.803 1074.26 1033.68 883.686 1060.98 638.603C1061.57 633.295 1057.33 628.37 1051.43 628.367L95.407 628.048C89.502 628.046 85.2556 632.969 85.8435 638.278C113.008 883.509 320.954 1074.26 573.43 1074.26Z" stroke="#252525" stroke-width="20"/>
<g filter="url(#filter2_i_319_2)">
<path d="M1072.08 529.292C1044.22 279.202 832.116 84.7429 574.592 84.7429C316.961 84.7429 104.785 279.383 77.0658 529.623C75.7908 541.134 84.9904 550.958 96.5717 550.954L1052.59 550.635C1064.17 550.631 1073.36 540.802 1072.08 529.292Z" fill="#746EAF"/>
</g>
<path d="M574.592 94.7429C826.965 94.743 1034.84 285.316 1062.14 530.399C1062.73 535.707 1058.49 540.632 1052.59 540.635L96.5686 540.954C90.6636 540.956 86.4172 536.033 87.0051 530.724C114.17 285.493 322.115 94.7429 574.592 94.7429Z" stroke="#252525" stroke-width="20"/>
<circle cx="574.592" cy="584.002" r="183.55" fill="#252525"/>
<circle cx="574.592" cy="584.002" r="116.805" fill="#F8F8F8"/>
<g filter="url(#filter3_d_319_2)">
<circle cx="574.592" cy="584.002" r="83.432" fill="#F8F8F8"/>
<circle cx="574.592" cy="584.002" r="73.432" stroke="#252525" stroke-width="20"/>
</g>
<path d="M567.161 235.562C546.622 199.685 533.544 180.794 507.276 149.4C440.487 222.425 415.608 276.106 371.617 379.165L372.691 378.879C393.356 373.376 405.271 370.204 432.724 363.888C455.23 314.46 468.443 286.347 497.498 232.507L567.161 353.499L640.49 232.507L700.986 369.387C727.404 373.411 740.095 377.228 762.705 384.053C724.14 279.294 698.667 226.071 640.49 149.4C604.299 188.039 588.563 208.948 567.161 235.562Z" fill="#F8F8F8"/>
<path d="M412.145 122.643C410.608 124.735 408.873 127.089 406.957 129.674C398.573 140.994 386.753 156.76 373.021 174.535C345.5 210.157 310.506 253.574 280.131 285.48C248.482 318.722 202.999 356.519 165.15 386.182C146.28 400.971 129.407 413.66 117.255 422.65C114.119 424.97 111.296 427.042 108.837 428.841C89.4732 360.284 98.9534 256.972 162.58 187.337C229.915 113.644 340.071 102.173 412.145 122.643Z" fill="#D14780" stroke="#252525" stroke-width="20"/>
<path d="M723.703 112.546C725.241 114.638 726.976 116.992 728.891 119.578C737.276 130.897 749.095 146.663 762.827 164.438C790.348 200.06 825.342 243.477 855.718 275.383C887.366 308.625 932.85 346.422 970.699 376.085C989.569 390.874 1006.44 403.563 1018.59 412.553C1021.73 414.873 1024.55 416.945 1027.01 418.744C1046.38 350.187 1036.9 246.875 973.268 177.24C905.933 103.547 795.778 92.0759 723.703 112.546Z" fill="#D14780"/>
<path d="M723.703 112.546C725.241 114.638 726.976 116.992 728.891 119.578C737.276 130.897 749.095 146.663 762.827 164.438C790.348 200.06 825.342 243.477 855.718 275.383C887.366 308.625 932.85 346.422 970.699 376.085C989.569 390.874 1006.44 403.563 1018.59 412.553C1021.73 414.873 1024.55 416.945 1027.01 418.744C1046.38 350.187 1036.9 246.875 973.268 177.24C905.933 103.547 795.778 92.0759 723.703 112.546Z" fill="black" fill-opacity="0.25"/>
<path d="M723.703 112.546C725.241 114.638 726.976 116.992 728.891 119.578C737.276 130.897 749.095 146.663 762.827 164.438C790.348 200.06 825.342 243.477 855.718 275.383C887.366 308.625 932.85 346.422 970.699 376.085C989.569 390.874 1006.44 403.563 1018.59 412.553C1021.73 414.873 1024.55 416.945 1027.01 418.744C1046.38 350.187 1036.9 246.875 973.268 177.24C905.933 103.547 795.778 92.0759 723.703 112.546Z" stroke="#252525" stroke-width="20"/>
<path d="M192.625 257.143C192.625 257.143 253.077 208.05 282.788 172.021C289.521 163.856 297.446 156.8 299.288 150.767C302.638 139.794 270.635 149.635 256.809 154.938C204.547 174.984 157.85 216.193 151.292 259.313C149.503 271.076 152.667 281.077 163.921 279.972C171.622 279.216 192.625 257.143 192.625 257.143Z" fill="white" fill-opacity="0.8"/>
<path d="M130.119 309.906C130.365 314.623 131.568 318.445 135.772 320.599C142.91 324.257 149.308 312.924 149.026 304.908C148.876 300.615 148.2 297.296 144.712 294.789C138.048 290.001 129.693 301.712 130.119 309.906Z" fill="white" fill-opacity="0.8"/>
</g>
<defs>
<filter id="filter0_d_319_2" x="75.7859" y="84.7429" width="1021.42" height="1049.52" filterUnits="userSpaceOnUse" color-interpolation-filters="sRGB">
<feFlood flood-opacity="0" result="BackgroundImageFix"/>
<feColorMatrix in="SourceAlpha" type="matrix" values="0 0 0 0 0 0 0 0 0 0 0 0 0 0 0 0 0 0 127 0" result="hardAlpha"/>
<feOffset dx="25" dy="50"/>
<feColorMatrix type="matrix" values="0 0 0 0 0 0 0 0 0 0 0 0 0 0 0 0 0 0 0.25 0"/>
<feBlend mode="normal" in2="BackgroundImageFix" result="effect1_dropShadow_319_2"/>
<feBlend mode="normal" in="SourceGraphic" in2="effect1_dropShadow_319_2" result="shape"/>
</filter>
<filter id="filter1_i_319_2" x="75.7859" y="618.048" width="995.254" height="466.211" filterUnits="userSpaceOnUse" color-interpolation-filters="sRGB">
<feFlood flood-opacity="0" result="BackgroundImageFix"/>
<feBlend mode="normal" in="SourceGraphic" in2="BackgroundImageFix" result="shape"/>
<feColorMatrix in="SourceAlpha" type="matrix" values="0 0 0 0 0 0 0 0 0 0 0 0 0 0 0 0 0 0 127 0" result="hardAlpha"/>
<feOffset dx="-150" dy="-50"/>
<feComposite in2="hardAlpha" operator="arithmetic" k2="-1" k3="1"/>
<feColorMatrix type="matrix" values="0 0 0 0 0 0 0 0 0 0 0 0 0 0 0 0 0 0 0.25 0"/>
<feBlend mode="normal" in2="shape" result="effect1_innerShadow_319_2"/>
</filter>
<filter id="filter2_i_319_2" x="76.9475" y="84.7429" width="995.254" height="466.211" filterUnits="userSpaceOnUse" color-interpolation-filters="sRGB">
<feFlood flood-opacity="0" result="BackgroundImageFix"/>
<feBlend mode="normal" in="SourceGraphic" in2="BackgroundImageFix" result="shape"/>
<feColorMatrix in="SourceAlpha" type="matrix" values="0 0 0 0 0 0 0 0 0 0 0 0 0 0 0 0 0 0 127 0" result="hardAlpha"/>
<feOffset dx="-150" dy="-25"/>
<feComposite in2="hardAlpha" operator="arithmetic" k2="-1" k3="1"/>
<feColorMatrix type="matrix" values="0 0 0 0 0 0 0 0 0 0 0 0 0 0 0 0 0 0 0.25 0"/>
<feBlend mode="normal" in2="shape" result="effect1_innerShadow_319_2"/>
</filter>
<filter id="filter3_d_319_2" x="491.16" y="500.57" width="176.864" height="176.864" filterUnits="userSpaceOnUse" color-interpolation-filters="sRGB">
<feFlood flood-opacity="0" result="BackgroundImageFix"/>
<feColorMatrix in="SourceAlpha" type="matrix" values="0 0 0 0 0 0 0 0 0 0 0 0 0 0 0 0 0 0 127 0" result="hardAlpha"/>
<feOffset dx="10" dy="10"/>
<feColorMatrix type="matrix" values="0 0 0 0 0 0 0 0 0 0 0 0 0 0 0 0 0 0 0.25 0"/>
<feBlend mode="normal" in2="BackgroundImageFix" result="effect1_dropShadow_319_2"/>
<feBlend mode="normal" in="SourceGraphic" in2="effect1_dropShadow_319_2" result="shape"/>
</filter>
</defs>
</svg>
