<svg width="56" height="56" viewBox="0 0 56 56" fill="none" xmlns="http://www.w3.org/2000/svg">
<path fill-rule="evenodd" clip-rule="evenodd" d="M0.53331 24.5682C0.53331 24.8758 0.623872 25.0788 0.674622 25.2761C1.00537 26.5593 1.71631 27.6605 2.55981 28.665C3.76118 30.0965 5.2325 31.2489 6.73968 32.3326C8.04693 33.2723 9.38087 34.1911 10.6934 35.1238C10.9187 35.2839 11.1317 35.4681 11.3763 35.6646C11.1659 35.7783 10.9909 35.8785 10.8089 35.9708C9.07681 36.8493 7.41037 37.8341 5.87431 39.0272C4.94856 39.7464 4.05343 40.5107 3.42125 41.5096C2.40406 43.1161 2.044 44.8276 2.80218 46.655C3.02356 47.1887 3.36131 47.6499 3.83775 47.9907C3.99218 48.1009 4.16543 48.2103 4.34612 48.2532C4.809 48.3621 5.28062 48.4334 5.74918 48.5196L7.07612 48.5187C8.5435 48.3879 9.87918 47.8852 11.0862 47.0522C12.9727 45.7502 14.2437 44.0046 14.7901 41.7642C15.1874 40.1358 15.2036 38.5057 14.7354 36.8847C14.6906 36.7346 14.6389 36.5865 14.5806 36.4411C14.5237 36.2954 14.4567 36.1537 14.378 35.9721L17.3862 34.2422L17.4313 34.2807C17.3766 34.4597 17.3184 34.6382 17.269 34.8189C16.9116 36.1244 16.674 37.4526 16.7593 38.8076C16.8503 40.2513 17.2532 41.6027 18.0985 42.8089C18.7819 43.7846 20.4102 43.8209 21.1365 42.8417C21.3942 42.4939 21.644 42.1304 21.8317 41.7423C22.3221 40.7295 22.7762 39.6987 23.2448 38.675L23.3266 38.4877C23.2929 38.9725 23.2536 39.3982 23.2356 39.8243C23.2076 40.4897 23.2466 41.1512 23.4741 41.7843C23.6687 42.3259 23.9999 42.7306 24.6203 42.8019C25.0447 42.8505 25.3829 42.6562 25.6948 42.4099C26.1781 42.028 26.5786 41.5519 26.8721 41.0104C27.7038 39.4831 28.5578 37.9649 29.3116 36.3991C30.1271 34.7056 30.8402 32.9626 31.5976 31.2401L31.7227 30.9347C31.9016 31.6378 32.0263 32.3264 32.256 32.9783C32.5229 33.7347 32.8532 34.4732 33.2128 35.1912C33.383 35.5302 33.3633 35.7503 33.1275 36.0347C32.1405 37.2247 31.1706 38.4291 30.1997 39.6322C29.9849 39.8978 29.771 40.1682 29.5921 40.4582C29.4835 40.6414 29.4121 40.8442 29.3821 41.055C29.3519 41.2491 29.3981 41.4472 29.5109 41.608C29.6237 41.7688 29.7944 41.8796 29.9871 41.9173C30.3761 42.0011 30.7749 42.0295 31.1719 42.0017C32.5268 41.902 33.7571 41.4264 34.8447 40.6206C36.2539 39.5767 36.7062 38.1522 36.365 36.4639C36.2727 36.0058 36.1095 35.5604 35.9507 35.119C35.8794 34.9199 35.8746 34.7804 36.0045 34.5949C37.1311 32.9862 38.0936 31.2795 38.9887 29.5334C39.0241 29.4647 39.0604 29.3961 39.1226 29.3226C39.4126 30.8319 39.8492 32.2866 40.6315 33.6066C40.2325 33.9911 39.8374 34.3398 39.48 34.7239C38.6929 35.5701 38.0104 36.4888 37.6543 37.6092C37.5012 38.0922 37.3835 38.5831 37.4517 39.0989C37.5576 39.9 38.2139 40.4206 39.0018 40.2382C40.6879 39.8479 42.1435 39.0534 43.2071 37.646C43.9228 36.6984 43.988 35.6414 43.6883 34.5341C43.6061 34.2331 43.5085 33.9369 43.4035 33.5917C43.8196 33.4626 44.2251 33.3077 44.6447 33.2119C46.823 32.7149 48.9777 32.8016 51.0768 33.5882C52.3022 34.0476 53.2923 34.8162 53.8794 36.0255C54.5965 37.5038 54.2001 38.9064 52.8067 39.8409C52.6767 39.928 52.528 39.9967 52.4204 40.1056C52.3859 40.1456 52.3601 40.1923 52.3447 40.2427C52.3292 40.2932 52.3245 40.3463 52.3307 40.3987C52.3399 40.4526 52.4821 40.5199 52.5639 40.5191C53.0219 40.5156 53.3934 40.2754 53.7499 40.0286C54.6433 39.4104 55.2952 38.5787 55.4356 37.4837L55.4632 37.4014L55.4295 36.6883C55.4159 36.6472 55.4396 36.6065 55.4365 36.5754C55.2466 34.9807 54.3948 33.7439 53.1558 32.7744C51.7208 31.6522 50.0264 31.1902 48.2344 31.1172C46.781 31.0546 45.3295 31.2781 43.9622 31.7747C43.5697 31.9169 43.1808 32.0854 42.7862 32.2442C42.7332 32.1484 42.6764 32.0565 42.6296 31.9616C42.2244 31.1321 41.7336 30.3393 41.6251 29.3882C41.5481 28.7127 41.4536 28.0381 41.6141 27.37C41.7686 26.7273 41.9698 26.0956 42.1592 25.4616C42.2568 25.1352 42.1881 24.9524 41.8766 24.8054C41.7681 24.7512 41.6522 24.7132 41.5327 24.6925C40.7671 24.5814 40.012 24.6448 39.2704 24.8605C39.0079 24.9371 38.8172 25.0841 38.759 25.3746C38.7257 25.5412 38.6579 25.7009 38.6107 25.8654C38.4169 26.5492 38.2795 27.2462 37.9662 27.8976C37.1814 29.5317 36.2854 31.1041 35.3684 32.6651C35.2691 32.8335 35.1645 32.9989 35.0394 33.2032C34.7174 32.5294 34.3739 31.9248 34.2698 31.2161C34.1521 30.4146 34.0594 29.6144 34.2589 28.819C34.4072 28.2257 34.601 27.6434 34.7795 27.0581C34.8639 26.7798 34.825 26.6337 34.573 26.4871C34.4457 26.4132 34.3017 26.3476 34.1582 26.3261C33.3732 26.2065 32.5711 26.2722 31.8159 26.5177C31.5783 26.5947 31.4536 26.7483 31.381 26.9933C31.1675 27.7161 30.9855 28.4563 30.6858 29.1436C29.4722 31.9261 28.2236 34.6942 26.9762 37.4618C26.7159 38.0397 26.411 38.5976 26.1174 39.1602C26.0431 39.3028 25.9346 39.4284 25.8418 39.5622C25.7674 39.4743 25.7386 39.4139 25.739 39.3536C25.7412 38.9979 25.6987 38.6317 25.7666 38.2878C25.9748 37.2478 26.205 36.2123 26.4569 35.182C26.6626 34.3306 26.9019 33.4871 27.1298 32.6414C27.2064 32.3584 27.2077 32.0937 27.0042 31.8557C26.6626 31.4571 25.9486 31.3696 25.5251 31.6767L25.3378 31.7826L25.3741 31.4807C25.4634 30.8337 25.4813 30.1888 25.3037 29.5514C25.0823 28.7569 24.5153 28.2997 23.6911 28.3251C23.3069 28.3369 22.9036 28.4025 22.5479 28.5425C21.0521 29.1287 19.9019 30.1669 18.9227 31.416C18.832 31.532 18.7195 31.6292 18.5916 31.7021C17.3259 32.4039 16.0562 33.0969 14.7871 33.7925L13.3744 34.5664C12.9955 34.2051 12.6512 33.8301 12.2605 33.5121C11.0674 32.5391 9.85512 31.5901 8.65375 30.6281C7.58887 29.7754 6.55725 28.8872 5.768 27.7581C5.18087 26.9181 4.80243 25.9989 4.76612 24.9602C4.72018 23.6368 5.09556 22.4276 5.76931 21.3019C6.63118 19.8616 7.80675 18.7057 9.09912 17.6588C10.4663 16.5519 11.9451 15.6122 13.4776 14.7542C15.6218 13.5542 17.8272 12.4919 20.1919 11.7906C22.6166 11.0714 25.0766 10.6597 27.6141 10.9467C28.6116 11.0596 29.5802 11.2879 30.4697 11.7757C31.1509 12.1489 31.7096 12.6376 31.9694 13.4015C32.2258 14.1531 32.2179 14.9148 32.0403 15.6782C31.6794 17.2244 30.8328 18.4988 29.7675 19.6376C28.0201 21.5044 25.8886 22.7754 23.4889 23.6149C22.1092 24.0983 20.6736 24.4045 19.2167 24.5262C18.0228 24.6264 16.8538 24.5206 15.7233 24.1054C14.9747 23.8302 14.3229 23.4093 13.7987 22.7986C13.7051 22.6892 13.5852 22.5706 13.4107 22.673C13.2396 22.7736 13.2094 22.9364 13.2667 23.1013C13.3626 23.3752 13.4509 23.6604 13.6001 23.9054C13.9751 24.5201 14.5219 24.9659 15.1239 25.3483C16.2802 26.0837 17.5726 26.3309 18.9127 26.3882C20.9462 26.4762 22.9302 26.1726 24.8863 25.627C27.6789 24.8482 30.107 23.4727 32.0543 21.3027C33.6757 19.4959 34.8337 17.4567 35.0818 14.9944C35.203 13.7926 35.0739 12.6153 34.5113 11.5189C33.901 10.3311 32.9306 9.44781 31.7704 8.83925C30.0807 7.95331 28.2572 7.4375 26.3751 7.4375H24.4895C22.2101 7.4375 20.0064 8.09069 17.8644 8.86987C16.2431 9.46006 14.6532 10.1566 13.1097 10.9274C9.74837 12.607 6.61806 14.6322 4.04687 17.4169C2.76587 18.8042 1.68131 20.335 1.05743 22.1375C0.869137 22.6757 0.706928 23.2226 0.571372 23.7764M12.7509 39.5321C12.6052 41.4829 11.7211 43.0644 10.276 44.3454C9.46312 45.0656 8.53081 45.5783 7.44493 45.7586C7.05118 45.8237 6.64825 45.8395 6.26631 45.6763C5.72162 45.4436 5.59956 44.9601 5.58906 44.4452C5.57287 43.6244 5.86031 42.8824 6.2545 42.1763C6.769 41.2558 7.52325 40.5541 8.32868 39.8987C9.59743 38.8657 10.9738 37.9916 12.3834 37.1665L12.4897 37.1227C12.7076 37.9277 12.8113 38.7227 12.7509 39.5321V39.5321ZM23.7576 31.0537C23.6547 31.6767 23.5261 32.3002 23.3441 32.9039C22.715 34.9939 21.9069 37.0191 21.0332 39.0171C20.8718 39.3868 20.6369 39.7241 20.4326 40.0746C20.3978 40.1284 20.3562 40.1776 20.3087 40.2207C20.0559 40.4705 19.8161 40.4574 19.6884 40.1306C19.5396 39.7508 19.4482 39.3444 19.3694 38.9423C19.3165 38.6724 19.3292 38.3889 19.3126 38.1124C19.3296 36.1462 19.9294 34.3595 20.9471 32.6961C21.3666 32.0101 21.8234 31.3565 22.5212 30.9225C22.7383 30.7875 22.9731 30.6836 23.219 30.6136C23.5909 30.5091 23.8192 30.681 23.7576 31.0537V31.0537ZM31.2668 40.621L33.9657 37.4697C34.0782 38.64 32.0889 40.9762 31.2668 40.621ZM39.8869 38.5004C39.6961 38.6098 39.4883 38.6886 39.2927 38.7896C39.1138 38.8824 39.0547 38.7887 39.0495 38.6347C39.0469 38.5281 39.0606 38.4218 39.0902 38.3193C39.4546 37.0339 40.1253 35.9367 41.1232 35.0442L41.1932 35.0083C41.6679 36.3361 41.1193 37.7943 39.8869 38.5004Z" fill="#B42B0C"/>
</svg>
