<svg width="182" height="34" viewBox="0 0 182 34" fill="none" xmlns="http://www.w3.org/2000/svg">
<path d="M166.39 20.0229C166.904 20.0229 169.868 20.0229 174.215 19.9586C176.377 19.7658 177.292 19.7619 178.198 19.9566C178.718 20.0229 179.361 20.0229 180.023 20.0229" stroke="#B42B0C" stroke-width="2" stroke-linecap="round"/>
<path d="M121 7C121.257 7.12854 121.514 7.25709 122.418 7.3233C123.322 7.38952 124.864 7.38952 125.852 7.45379C126.839 7.51807 127.225 7.64661 128.401 7.77905" stroke="#B42B0C" stroke-width="2" stroke-linecap="round"/>
<path d="M135.458 17.8614C135.458 17.9529 135.641 18.0457 136.376 18.1151C137.842 18.1386 138.922 18.0471 139.244 17.9085C139.43 17.8614 139.658 17.8614 139.894 17.8614" stroke="#B42B0C" stroke-width="2.10189" stroke-linecap="round"/>
<path d="M13 7C13.1285 8.16078 13.9037 12.5546 15.5261 18.0819C16.2447 22.4407 16.6343 25.0427 16.829 26.2717C16.8952 26.9864 16.8952 27.8862 16.8952 28.8133" stroke="#B42B0C" stroke-width="2" stroke-linecap="round"/>
<path d="M15.7267 20.2438C17.016 18.565 19.6141 16.2239 21.8208 14.214C22.3447 13.7543 22.7303 13.4973 23.1218 13.3006C23.5133 13.1038 23.8989 12.9753 24.2962 12.8429" stroke="#B42B0C" stroke-width="2" stroke-linecap="round"/>
<path d="M16.5057 19.0752C17.0199 19.9789 18.8351 21.537 21.2346 23.6112C22.7225 24.5208 23.9028 25.0466 24.8727 25.627C25.457 26.0789 26.2282 26.8501 27.0229 27.6447" stroke="#B42B0C" stroke-width="2" stroke-linecap="round"/>
<path d="M166 6C166 10.1134 166.129 15.1889 166.452 20.5039C166.904 24.5335 167.297 26.8979 167.492 28.1931C167.558 28.8455 167.558 29.4883 167.558 30.1505" stroke="#B42B0C" stroke-width="2" stroke-linecap="round"/>
<path d="M176.517 6.77905C176.517 9.36159 177.288 13.7749 178.009 16.7002C178.204 20.1475 178.465 23.5052 178.788 25.9241C178.854 26.3799 178.854 26.894 178.854 27.4238" stroke="#B42B0C" stroke-width="2" stroke-linecap="round"/>
<path d="M33 10C33 13.8563 33 17.1283 33.1928 19.5258C33.7713 21.5377 34.1686 23.4931 34.2971 25.244C34.4257 25.9666 34.6827 26.3522 34.9476 27.9181" stroke="#B42B0C" stroke-width="2" stroke-linecap="round"/>
<path d="M53 8C53.2571 9.5503 54.8074 14.4583 55.7247 18.7002C56.2517 21.137 56.8952 23.1836 57.1523 24.4165C57.4094 24.8781 57.9236 25.0066 59.3453 25.0085C60.7671 25.0105 63.0809 24.8819 65.4648 24.7495" stroke="#B42B0C" stroke-width="2" stroke-linecap="round"/>
<path d="M40 10C40.2571 11.5503 41.8074 16.4583 42.7247 20.7002C43.2517 23.137 43.8952 25.1836 44.1523 26.4165C44.4094 26.8781 44.9236 27.0066 46.3453 27.0085C47.7671 27.0105 50.0809 26.8819 52.4648 26.7495" stroke="#B42B0C" stroke-width="2" stroke-linecap="round"/>
<path d="M8.01142 8.31073C7.75434 8.05364 6.7221 7.9212 5.16595 8.04975C4.49941 8.10481 4.12398 8.43537 3.86105 8.95344C2.08755 12.4479 3.85131 18.2903 4.63231 20.3158C5.30979 22.0729 7.73876 24.0085 8.72425 25.8977C8.93725 26.306 8.79047 26.8676 8.59765 27.1968C8.01921 27.6545 6.07939 27.7869 3.48516 27.6584C2.43345 27.5298 1.91928 27.2727 1 26.6183" stroke="#B42B0C" stroke-width="2" stroke-linecap="round"/>
<path d="M75.0114 9.31073C74.7543 9.05364 73.7221 8.9212 72.166 9.04975C71.4994 9.10481 71.124 9.43537 70.861 9.95344C69.0876 13.4479 70.8513 19.2903 71.6323 21.3158C72.3098 23.0729 74.7388 25.0085 75.7242 26.8977C75.9372 27.306 75.7905 27.8676 75.5977 28.1968C75.0192 28.6545 73.0794 28.7869 70.4852 28.6584C69.4334 28.5298 68.9193 28.2727 68 27.6183" stroke="#B42B0C" stroke-width="2" stroke-linecap="round"/>
<path d="M125.285 7.38953C125.799 11.5029 126.064 17.4782 126 23.5138C125.935 25.6932 125.807 26.0789 125.741 26.5346C125.674 26.9903 125.674 27.5045 125.674 28.0343" stroke="#B42B0C" stroke-width="2" stroke-linecap="round"/>
<path d="M139.617 4C138.883 4 137.402 4.09149 136.524 4.57525C136.136 4.78941 136.014 5.47485 135.806 6.60109C135.46 8.4746 135.644 10.4608 135.437 11.9135C135.34 12.5915 135.184 13.1374 135.113 15.593C135.042 18.0485 135.042 22.3941 135.02 24.8157C134.993 27.6039 134.904 28.7121 135.544 29.5923C137.465 29.2832 139.288 28.7204 140.119 28.5818C140.447 28.5347 140.584 28.5347 140.726 28.3961" stroke="#B42B0C" stroke-width="2.10189" stroke-linecap="round"/>
<path d="M155.448 10.0404C154.95 9.87259 153.62 10.2057 151.864 11.4542C150.313 12.5572 149.027 14.9592 148.27 17.8732C147.644 20.2854 148.268 22.0594 148.517 22.683C149.185 24.354 150.434 24.7317 151.437 25.2739C153.283 26.2717 157.191 25.2376 158.948 24.2371C159.368 23.9027 159.781 23.4895 160.035 23.1526C160.289 22.8158 160.372 22.5678 160.457 22.3124" stroke="#B42B0C" stroke-width="2" stroke-linecap="round"/>
<path d="M111.9 31.3546C111.013 31.0603 109.233 29.5799 107.448 28.0906C104.98 26.0327 103 20.9738 100.166 16.5794C98.7559 14.3929 97.7824 12.1894 97.1135 9.81267C96.6509 8.16874 96.2931 6.39253 96.4402 4.83408C96.6481 2.63268 99.4055 1.78182 101.856 1.10849C102.648 0.890749 103.704 1.03269 104.455 1.25341C105.207 1.47414 105.648 1.91559 105.949 2.36373C106.25 2.81187 106.397 3.25332 106.326 3.77504C105.861 7.17602 101.207 9.64768 99.4211 11.1348C97.7339 12.5398 95.4102 13.9552 93.6243 14.9273C91.3425 16.1693 89.4617 18.8602 87.9746 21.0162C86.7842 22.7419 87.0805 25.103 87.0025 27.2589C86.931 29.2351 88.4138 30.4583 88.8575 31.2008C89.7792 32.7432 92.2709 32.5407 98.128 32.5452C101.138 32.5475 102.973 29.5799 104.462 27.794C106.347 25.5335 107.441 22.4542 107.885 19.7699C108.034 19.1723 108.181 18.5837 108.257 18.0598C108.333 17.5358 108.333 17.0944 108.333 16.6396" stroke="#B42B0C" stroke-width="2" stroke-linecap="round"/>
</svg>
