<svg width="55" height="55" viewBox="0 0 55 55" fill="none" xmlns="http://www.w3.org/2000/svg">
<path d="M27.4893 11.5364C20.245 11.5364 15.7191 15.157 13.9066 22.4012C16.6223 18.7802 19.7926 17.4223 23.4136 18.3277C25.4812 18.843 26.9587 20.3422 28.595 22.0035C31.258 24.706 34.3404 27.8347 41.0719 27.8347C48.3157 27.8347 52.8421 24.2137 54.6545 16.9677C51.9384 20.5909 48.7686 21.9487 45.1471 21.0434C43.08 20.5277 41.6042 19.0289 39.9658 17.3676C37.3044 14.6651 34.2229 11.5364 27.4893 11.5364V11.5364ZM13.9066 27.8347C6.66282 27.8347 2.13641 31.4557 0.323975 38.7017C3.03965 35.0785 6.2095 33.7207 9.83098 34.626C11.8985 35.1417 13.376 36.6405 15.0123 38.3018C17.6754 41.0043 20.7578 44.133 27.4893 44.133C34.7331 44.133 39.2595 40.5124 41.0719 33.2682C38.3558 36.8892 35.186 38.2471 31.5645 37.3417C29.4974 36.8264 28.0215 35.3272 26.3831 33.6659C23.7218 30.9634 20.6402 27.8347 13.9066 27.8347Z" fill="#B42B0C"/>
</svg>
