<svg width="202" height="202" viewBox="0 0 202 202" fill="none" xmlns="http://www.w3.org/2000/svg">
<rect width="201.512" height="201.512" rx="90" fill="#F0ECBC"/>
<path fill-rule="evenodd" clip-rule="evenodd" d="M135.056 93.9432C134.697 94.1337 135.254 87.3788 132.368 84.8439C127.225 80.3308 121.261 76.8361 116.565 71.7223C114.828 69.8321 111.7 69.5757 109.282 70.9237C107.949 71.671 106.484 73.0264 107.297 75.2536C108.366 78.1915 110.931 78.2941 113.348 79.2025C118.155 80.9975 128.756 91.8625 129.84 92.7637C131.503 92.6465 133.115 97.1375 135.056 93.9506V93.9432Z" fill="#457CE3"/>
<path fill-rule="evenodd" clip-rule="evenodd" d="M109.399 64.6963C106.989 64.2421 106.579 66.7624 104.373 66.5426C102.359 66.3375 100.066 67.7808 98.3732 65.6927C96.9152 63.8978 97.8677 61.8684 98.3732 59.9488C100.249 52.8715 103.494 46.4756 107.832 40.5998C108.051 40.2995 107.934 39.7353 108.169 39.4569C110.586 36.5923 114.352 34.0207 117.261 35.3688C119.642 36.4751 115.883 39.5448 114.916 41.5742C112.081 47.494 109.429 53.3624 109.121 60.0294C108.952 63.5974 109.004 62.9893 112.557 62.3812C120.594 61.0112 128.382 58.1539 136.624 58.0733C138.808 58.0513 141.687 58.3297 141.189 61.2456C140.822 63.3703 138.419 61.8244 136.844 61.905C130.58 62.2273 124.36 63.4215 120.294 68.8284C117.583 72.433 114.315 71.3267 111.209 70.4988C108.447 69.7589 106.894 67.7808 109.392 64.7037L109.399 64.6963Z" fill="#457CE3"/>
<path fill-rule="evenodd" clip-rule="evenodd" d="M78.5332 89.2617C78.7677 83.1515 83.398 80.133 87.7205 78.2721C91.4643 76.653 95.1495 74.7481 98.9812 73.2755C100.776 72.5869 102.351 70.5868 103.743 73.6419C104.747 75.8398 104.886 78.023 102.688 79.4883C95.6477 84.1772 88.5338 88.7562 81.4052 93.2986C80.8337 93.6649 79.7274 93.7528 79.1633 93.4451C77.1779 92.3681 78.8483 90.5805 78.5332 89.2691V89.2617Z" fill="#457CE3"/>
<path fill-rule="evenodd" clip-rule="evenodd" d="M64.855 67.2239C66.5987 61.2896 71.8444 63.0699 75.3317 62.8428C81.017 62.4838 86.8195 63.5168 92.5194 64.3447C93.8015 64.5278 96.3072 64.4765 95.9995 67.4364C95.7577 69.7442 94.9591 71.3194 92.6953 71.6051C90.9369 71.8249 88.9515 71.9275 87.347 71.3341C80.1378 68.6746 72.4524 68.6746 64.8623 67.2166L64.855 67.2239Z" fill="#457CE3"/>
<path fill-rule="evenodd" clip-rule="evenodd" d="M67.0458 154.738C64.4376 153.097 62.1738 151.258 60.5693 148.657C51.8509 134.517 54.188 119.527 57.6607 104.632C58.1369 102.588 58.7597 100.215 59.9612 98.0387C63.3387 91.9212 67.5953 86.7854 73.1048 82.6093C75.2074 81.0195 75.6543 78.5285 74.6726 76.7336C73.7055 74.9752 71.1706 75.2903 69.1705 75.891C65.1776 77.0779 61.9613 79.481 58.4813 81.7448C46.4294 89.6134 41.0078 101.072 38.6121 114.53C36.5827 125.901 39.7331 136.143 46.085 145.25C50.708 151.88 57.756 155.947 65.141 159.06C66.6722 159.705 69.5881 160.899 70.5478 158.818C71.6541 156.423 68.5038 155.661 67.0385 154.745L67.0458 154.738Z" fill="#4279E0"/>
<path fill-rule="evenodd" clip-rule="evenodd" d="M135.694 95.7309C133.753 98.9179 115.371 100.676 106.836 102.105C101.971 102.918 97.4066 100.713 93.0547 100.867C85.2447 101.138 78.0722 99.8703 70.7751 97.6504C69.3025 97.2035 66.709 94.6686 65.6833 97.5991C64.8554 99.9509 67.8006 100.207 69.493 101.013C80.3287 106.12 91.6846 106.024 103.378 105.409C122.338 104.405 139.973 100.083 155.468 88.6316C156.325 87.9942 157.512 87.6792 156.589 86.6608C155.959 85.9648 154.882 84.756 153.629 85.4593C152.23 86.2432 151.109 87.518 149.702 88.2873C145.145 90.7856 140.522 93.1887 135.694 95.7309Z" fill="#4279E0"/>
<path fill-rule="evenodd" clip-rule="evenodd" d="M159.432 115.615C155.27 118.296 150.31 119.41 146.171 121.915C136.603 127.703 125.877 129.359 115.268 131.088C106.938 132.451 98.3662 132.334 89.9042 132.949C79.7938 133.682 70.0204 133.088 61.639 126.384C60.5034 125.476 58.9942 124.633 58.159 126.436C57.5802 127.681 56.9721 129.249 59.2726 130.363C65.163 133.213 71.1193 135.645 77.6984 136.29C90.9812 137.601 104.286 136.832 117.32 134.656C126.558 133.11 136.002 131.271 144.596 127.059C151.219 123.806 157.71 120.282 164.86 116.567C162.772 114.765 161.117 114.523 159.424 115.615H159.432Z" fill="#4279E0"/>
<path fill-rule="evenodd" clip-rule="evenodd" d="M155.673 125.036C145.966 130.656 135.943 134.876 124.558 136.576C104.55 139.572 84.7391 143.059 64.8846 136.173C63.4487 135.674 62.401 136.246 61.8368 137.345C60.8917 139.184 62.8332 138.869 63.6172 139.528C67.0532 142.422 71.134 143.103 75.9621 143.279C79.5301 144.972 83.7574 143.528 87.9408 143.638C100.813 143.983 113.715 142.949 126.287 140.664C137.401 138.642 148.296 134.825 158.098 128.656C159.49 127.777 161.556 127.271 160.516 125.469C159.571 123.835 157.49 124.003 155.688 125.051L155.673 125.036Z" fill="#4279E0"/>
<path fill-rule="evenodd" clip-rule="evenodd" d="M154.75 110.376C145.966 114.494 137.584 119.908 127.994 121.754C115.393 124.172 102.711 125.564 89.6626 124.809C81.1273 124.318 73.2002 121.805 64.9287 120.633C63.1044 120.377 60.9651 118.281 60.0933 121.051C59.3386 123.439 62.0274 124.465 63.859 124.648C77.3029 126.018 90.5271 129.11 104.22 128.714C124.133 128.135 142.149 121.901 159.153 112.098C160.545 111.292 161.564 109.827 162.751 108.669C161.527 107.46 160.362 106.164 158.465 106.142C158.26 108.442 156.406 109.592 154.743 110.376H154.75Z" fill="#4279E0"/>
<path fill-rule="evenodd" clip-rule="evenodd" d="M158.303 106.134C158.362 106.134 158.413 106.142 158.472 106.142C158.472 106.083 158.494 106.039 158.494 105.98L158.303 106.134Z" fill="#4279E0"/>
<path fill-rule="evenodd" clip-rule="evenodd" d="M127.137 112.963C106.256 118.985 85.0759 119.549 64.0565 112.875C62.386 112.347 61.1918 113.16 59.7266 114.516C67.3973 118.648 75.6834 118.531 83.6326 119.967C99.5015 122.839 114.814 120.267 129.906 115.615C139.511 112.655 158.428 104.698 158.809 104.427C160.259 103.387 164.172 104.046 162.12 100.64C160.355 97.709 158.054 100.911 156.728 101.658C147.394 106.874 137.218 110.061 127.144 112.97L127.137 112.963Z" fill="#4279E0"/>
<path fill-rule="evenodd" clip-rule="evenodd" d="M130.844 104.273C115.444 107.424 100.117 110.303 84.2994 107.79C77.3907 106.691 70.4086 106.01 62.4741 105.013C64.5841 109.021 67.1484 109.285 69.7199 109.6C81.0465 110.984 92.2925 112.23 103.832 111.622C123.298 110.596 141.768 107.087 158.149 95.8408C159.695 94.7785 160.582 93.4597 159.725 91.804C158.406 89.2764 157.014 91.3278 156.003 92.1923C148.684 98.471 140.354 102.339 130.859 104.281L130.844 104.273Z" fill="#4279E0"/>
<path fill-rule="evenodd" clip-rule="evenodd" d="M156.501 133.711C155.856 133.352 155.168 131.513 153.71 133.271C149.145 138.781 142.522 140.473 135.987 141.96C126.28 144.173 116.521 147.389 106.711 147.653C93.6478 148.005 80.3504 147.338 67.5952 143.374C66.2984 142.971 64.7892 142.136 64.3422 144.407C63.8953 146.671 65.6756 146.481 66.9797 146.679C71.7492 147.397 75.1194 154.232 115.363 151.968C125.122 150.159 134.932 148.576 144.302 145.125C144.515 144.862 144.735 144.591 144.947 144.327C148.83 141.733 153.043 139.616 156.098 135.865C156.823 134.978 157.607 134.334 156.508 133.718L156.501 133.711Z" fill="#4279E0"/>
<path fill-rule="evenodd" clip-rule="evenodd" d="M144.625 146.847C144.691 146.796 144.75 146.752 144.815 146.701L144.625 146.847Z" fill="#4279E0"/>
<path fill-rule="evenodd" clip-rule="evenodd" d="M144.625 146.847C143.717 147.543 142.603 147.822 141.563 148.225C129.613 152.884 116.924 154.13 104.374 154.855C96.4029 155.316 88.0948 155.683 80.153 153.28L80.2995 153.47C78.2188 153.272 75.0172 151.873 74.6362 154.591C74.3212 156.833 77.2444 158.298 79.9771 158.24C80.5779 158.225 81.1713 158.416 81.7794 158.445C90.2707 158.914 98.4616 160.907 107.327 159.617C116.367 158.306 125.569 157.434 134.698 156.32C130.668 160.709 125.166 162.086 119.591 162.203C107.693 162.467 95.7435 164.086 83.8748 161.581C82.6806 161.331 80.8636 160.599 80.4533 162.723C79.9405 165.383 82.2263 164.811 83.611 165.156C90.8935 166.936 98.4323 166.511 105.722 166.431C117.305 166.299 129.467 166.746 139.467 158.533C138.654 157.309 137.519 156.547 136.251 155.961C139.453 154.642 142.713 153.426 145.768 151.814C147.072 151.126 149.922 151.206 149.197 148.547C148.574 146.246 146.208 147.316 144.625 146.854V146.847Z" fill="#4279E0"/>
<path fill-rule="evenodd" clip-rule="evenodd" d="M125.958 90.8515L126.06 90.9833C126.045 90.9467 126.023 90.9101 126.009 90.8734C125.972 90.8441 125.943 90.8222 125.914 90.7928C125.921 90.8661 125.928 90.9467 125.936 91.02C125.98 91.0053 126.016 90.998 126.06 90.9907C126.06 90.9907 126.002 90.9101 125.958 90.8588V90.8515Z" fill="#4279E0"/>
<path fill-rule="evenodd" clip-rule="evenodd" d="M88.6297 97.1962C100.03 98.1706 111.312 98.2438 122.661 95.7895C126.573 94.947 126.192 93.4084 125.936 91.0127C114.822 93.9652 103.612 95.2327 92.1976 92.8516C91.0181 92.6025 89.7946 92.5805 88.6004 92.4413C86.4098 92.1849 86.5783 93.826 86.4025 95.1814C86.1827 96.9031 87.3402 97.0863 88.6224 97.1962H88.6297Z" fill="#4279E0"/>
<path fill-rule="evenodd" clip-rule="evenodd" d="M102.864 90.4412C107.348 92.5951 111.458 89.5986 115.773 89.6353C117.971 89.6572 119.502 88.4923 119.019 86.375C118.484 84.0599 116.609 85.1442 115.121 85.6497C111.326 86.9391 107.355 86.5875 103.45 86.9098C100.915 87.115 96.8127 84.5581 96.3804 88.4191C96.0947 90.9687 100.696 89.4961 102.872 90.4412H102.864Z" fill="#4279E0"/>
<path fill-rule="evenodd" clip-rule="evenodd" d="M131.291 82.4628C131.65 82.9537 132.903 83.4006 133.328 83.1441C138.266 80.1989 144.42 79.0194 147.167 72.4989C141.848 75.0778 136.515 77.6347 131.254 80.3235C130.947 80.4847 130.932 81.9646 131.291 82.4628Z" fill="#4279E0"/>
<path fill-rule="evenodd" clip-rule="evenodd" d="M137.95 88.6976C138.214 89.1298 139.064 89.7452 139.152 89.672C142.94 86.5729 148.859 85.9941 150.984 79.4443C145.746 80.9243 142.537 84.1845 138.705 86.4117C137.533 87.0931 137.357 87.7158 137.95 88.6902V88.6976Z" fill="#4279E0"/>
<path fill-rule="evenodd" clip-rule="evenodd" d="M127.818 77.5761C130.617 76.7409 133.408 75.8251 136.053 74.6089C136.976 74.184 137.46 72.792 138.097 71.9055C138.061 70.3669 136.822 70.0079 136.046 70.3669C132.888 71.8322 130.185 74.3159 126.39 74.3012C126.111 74.3012 125.576 75.598 125.606 76.272C125.657 77.6201 126.946 77.8398 127.826 77.5761H127.818Z" fill="#4279E0"/>
<path fill-rule="evenodd" clip-rule="evenodd" d="M70.0497 89.2031C69.786 90.9395 70.1376 91.8993 72.4748 92.0824C74.343 92.2289 75.4419 92.3681 75.8815 90.3754C76.3504 88.2434 74.7752 88.2287 73.288 88.0236C72.189 88.1848 70.4087 86.9246 70.057 89.2031H70.0497Z" fill="#4279E0"/>
<path fill-rule="evenodd" clip-rule="evenodd" d="M135.056 93.9432C134.697 94.1337 135.254 87.3788 132.368 84.8439C127.225 80.3308 121.261 76.8361 116.565 71.7223C114.828 69.8321 111.7 69.5757 109.282 70.9237C107.949 71.671 106.484 73.0264 107.297 75.2536C108.366 78.1915 110.931 78.2941 113.348 79.2025C118.155 80.9975 128.756 91.8625 129.84 92.7637C131.503 92.6465 133.115 97.1375 135.056 93.9506V93.9432Z" fill="#457CE3"/>
<path fill-rule="evenodd" clip-rule="evenodd" d="M109.399 64.6963C106.989 64.2421 106.579 66.7624 104.373 66.5426C102.359 66.3375 100.066 67.7808 98.3732 65.6927C96.9152 63.8978 97.8677 61.8684 98.3732 59.9488C100.249 52.8715 103.494 46.4756 107.832 40.5998C108.051 40.2995 107.934 39.7353 108.169 39.4569C110.586 36.5923 114.352 34.0207 117.261 35.3688C119.642 36.4751 115.883 39.5448 114.916 41.5742C112.081 47.494 109.429 53.3624 109.121 60.0294C108.952 63.5974 109.004 62.9893 112.557 62.3812C120.594 61.0112 128.382 58.1539 136.624 58.0733C138.808 58.0513 141.687 58.3297 141.189 61.2456C140.822 63.3703 138.419 61.8244 136.844 61.905C130.58 62.2273 124.36 63.4215 120.294 68.8284C117.583 72.433 114.315 71.3267 111.209 70.4988C108.447 69.7589 106.894 67.7808 109.392 64.7037L109.399 64.6963Z" fill="#457CE3"/>
<path fill-rule="evenodd" clip-rule="evenodd" d="M78.5332 89.2617C78.7677 83.1515 83.398 80.133 87.7205 78.2721C91.4643 76.653 95.1495 74.7481 98.9812 73.2755C100.776 72.5869 102.351 70.5868 103.743 73.6419C104.747 75.8398 104.886 78.023 102.688 79.4883C95.6477 84.1772 88.5338 88.7562 81.4052 93.2986C80.8337 93.6649 79.7274 93.7528 79.1633 93.4451C77.1779 92.3681 78.8483 90.5805 78.5332 89.2691V89.2617Z" fill="#457CE3"/>
<path fill-rule="evenodd" clip-rule="evenodd" d="M64.855 67.2239C66.5987 61.2896 71.8444 63.0699 75.3317 62.8428C81.017 62.4838 86.8195 63.5168 92.5194 64.3447C93.8015 64.5278 96.3072 64.4765 95.9995 67.4364C95.7577 69.7442 94.9591 71.3194 92.6953 71.6051C90.9369 71.8249 88.9515 71.9275 87.347 71.3341C80.1378 68.6746 72.4524 68.6746 64.8623 67.2166L64.855 67.2239Z" fill="#457CE3"/>
<path fill-rule="evenodd" clip-rule="evenodd" d="M67.0458 154.738C64.4376 153.097 62.1738 151.258 60.5693 148.657C51.8509 134.517 54.188 119.527 57.6607 104.632C58.1369 102.588 58.7597 100.215 59.9612 98.0387C63.3387 91.9212 67.5953 86.7854 73.1048 82.6093C75.2074 81.0195 75.6543 78.5285 74.6726 76.7336C73.7055 74.9752 71.1706 75.2903 69.1705 75.891C65.1776 77.0779 61.9613 79.481 58.4813 81.7448C46.4294 89.6134 41.0078 101.072 38.6121 114.53C36.5827 125.901 39.7331 136.143 46.085 145.25C50.708 151.88 57.756 155.947 65.141 159.06C66.6722 159.705 69.5881 160.899 70.5478 158.818C71.6541 156.423 68.5038 155.661 67.0385 154.745L67.0458 154.738Z" fill="#4279E0"/>
<path fill-rule="evenodd" clip-rule="evenodd" d="M135.694 95.7309C133.753 98.9179 115.371 100.676 106.836 102.105C101.971 102.918 97.4066 100.713 93.0547 100.867C85.2447 101.138 78.0722 99.8703 70.7751 97.6504C69.3025 97.2035 66.709 94.6686 65.6833 97.5991C64.8554 99.9509 67.8006 100.207 69.493 101.013C80.3287 106.12 91.6846 106.024 103.378 105.409C122.338 104.405 139.973 100.083 155.468 88.6316C156.325 87.9942 157.512 87.6792 156.589 86.6608C155.959 85.9648 154.882 84.756 153.629 85.4593C152.23 86.2432 151.109 87.518 149.702 88.2873C145.145 90.7856 140.522 93.1887 135.694 95.7309Z" fill="#4279E0"/>
<path fill-rule="evenodd" clip-rule="evenodd" d="M159.432 115.615C155.27 118.296 150.31 119.41 146.171 121.915C136.603 127.703 125.877 129.359 115.268 131.088C106.938 132.451 98.3662 132.334 89.9042 132.949C79.7938 133.682 70.0204 133.088 61.639 126.384C60.5034 125.476 58.9942 124.633 58.159 126.436C57.5802 127.681 56.9721 129.249 59.2726 130.363C65.163 133.213 71.1193 135.645 77.6984 136.29C90.9812 137.601 104.286 136.832 117.32 134.656C126.558 133.11 136.002 131.271 144.596 127.059C151.219 123.806 157.71 120.282 164.86 116.567C162.772 114.765 161.117 114.523 159.424 115.615H159.432Z" fill="#4279E0"/>
<path fill-rule="evenodd" clip-rule="evenodd" d="M155.673 125.036C145.966 130.656 135.943 134.876 124.558 136.576C104.55 139.572 84.7391 143.059 64.8846 136.173C63.4487 135.674 62.401 136.246 61.8368 137.345C60.8917 139.184 62.8332 138.869 63.6172 139.528C67.0532 142.422 71.134 143.103 75.9621 143.279C79.5301 144.972 83.7574 143.528 87.9408 143.638C100.813 143.983 113.715 142.949 126.287 140.664C137.401 138.642 148.296 134.825 158.098 128.656C159.49 127.777 161.556 127.271 160.516 125.469C159.571 123.835 157.49 124.003 155.688 125.051L155.673 125.036Z" fill="#4279E0"/>
<path fill-rule="evenodd" clip-rule="evenodd" d="M154.75 110.376C145.966 114.494 137.584 119.908 127.994 121.754C115.393 124.172 102.711 125.564 89.6626 124.809C81.1273 124.318 73.2002 121.805 64.9287 120.633C63.1044 120.377 60.9651 118.281 60.0933 121.051C59.3386 123.439 62.0274 124.465 63.859 124.648C77.3029 126.018 90.5271 129.11 104.22 128.714C124.133 128.135 142.149 121.901 159.153 112.098C160.545 111.292 161.564 109.827 162.751 108.669C161.527 107.46 160.362 106.164 158.465 106.142C158.26 108.442 156.406 109.592 154.743 110.376H154.75Z" fill="#4279E0"/>
<path fill-rule="evenodd" clip-rule="evenodd" d="M158.303 106.134C158.362 106.134 158.413 106.142 158.472 106.142C158.472 106.083 158.494 106.039 158.494 105.98L158.303 106.134Z" fill="#4279E0"/>
<path fill-rule="evenodd" clip-rule="evenodd" d="M127.137 112.963C106.256 118.985 85.0759 119.549 64.0565 112.875C62.386 112.347 61.1918 113.16 59.7266 114.516C67.3973 118.648 75.6834 118.531 83.6326 119.967C99.5015 122.839 114.814 120.267 129.906 115.615C139.511 112.655 158.428 104.698 158.809 104.427C160.259 103.387 164.172 104.046 162.12 100.64C160.355 97.709 158.054 100.911 156.728 101.658C147.394 106.874 137.218 110.061 127.144 112.97L127.137 112.963Z" fill="#4279E0"/>
<path fill-rule="evenodd" clip-rule="evenodd" d="M130.844 104.273C115.444 107.424 100.117 110.303 84.2994 107.79C77.3907 106.691 70.4086 106.01 62.4741 105.013C64.5841 109.021 67.1484 109.285 69.7199 109.6C81.0465 110.984 92.2925 112.23 103.832 111.622C123.298 110.596 141.768 107.087 158.149 95.8408C159.695 94.7785 160.582 93.4597 159.725 91.804C158.406 89.2764 157.014 91.3278 156.003 92.1923C148.684 98.471 140.354 102.339 130.859 104.281L130.844 104.273Z" fill="#4279E0"/>
<path fill-rule="evenodd" clip-rule="evenodd" d="M156.501 133.711C155.856 133.352 155.168 131.513 153.71 133.271C149.145 138.781 142.522 140.473 135.987 141.96C126.28 144.173 116.521 147.389 106.711 147.653C93.6478 148.005 80.3504 147.338 67.5952 143.374C66.2984 142.971 64.7892 142.136 64.3422 144.407C63.8953 146.671 65.6756 146.481 66.9797 146.679C71.7492 147.397 75.1194 154.232 115.363 151.968C125.122 150.159 134.932 148.576 144.302 145.125C144.515 144.862 144.735 144.591 144.947 144.327C148.83 141.733 153.043 139.616 156.098 135.865C156.823 134.978 157.607 134.334 156.508 133.718L156.501 133.711Z" fill="#4279E0"/>
<path fill-rule="evenodd" clip-rule="evenodd" d="M144.625 146.847C144.691 146.796 144.75 146.752 144.815 146.701L144.625 146.847Z" fill="#4279E0"/>
<path fill-rule="evenodd" clip-rule="evenodd" d="M144.625 146.847C143.717 147.543 142.603 147.822 141.563 148.225C129.613 152.884 116.924 154.13 104.374 154.855C96.4029 155.316 88.0948 155.683 80.153 153.28L80.2995 153.47C78.2188 153.272 75.0172 151.873 74.6362 154.591C74.3212 156.833 77.2444 158.298 79.9771 158.24C80.5779 158.225 81.1713 158.416 81.7794 158.445C90.2707 158.914 98.4616 160.907 107.327 159.617C116.367 158.306 125.569 157.434 134.698 156.32C130.668 160.709 125.166 162.086 119.591 162.203C107.693 162.467 95.7435 164.086 83.8748 161.581C82.6806 161.331 80.8636 160.599 80.4533 162.723C79.9405 165.383 82.2263 164.811 83.611 165.156C90.8935 166.936 98.4323 166.511 105.722 166.431C117.305 166.299 129.467 166.746 139.467 158.533C138.654 157.309 137.519 156.547 136.251 155.961C139.453 154.642 142.713 153.426 145.768 151.814C147.072 151.126 149.922 151.206 149.197 148.547C148.574 146.246 146.208 147.316 144.625 146.854V146.847Z" fill="#4279E0"/>
<path fill-rule="evenodd" clip-rule="evenodd" d="M125.958 90.8515L126.06 90.9833C126.045 90.9467 126.023 90.9101 126.009 90.8734C125.972 90.8441 125.943 90.8222 125.914 90.7928C125.921 90.8661 125.928 90.9467 125.936 91.02C125.98 91.0053 126.016 90.998 126.06 90.9907C126.06 90.9907 126.002 90.9101 125.958 90.8588V90.8515Z" fill="#4279E0"/>
<path fill-rule="evenodd" clip-rule="evenodd" d="M88.6297 97.1962C100.03 98.1706 111.312 98.2438 122.661 95.7895C126.573 94.947 126.192 93.4084 125.936 91.0127C114.822 93.9652 103.612 95.2327 92.1976 92.8516C91.0181 92.6025 89.7946 92.5805 88.6004 92.4413C86.4098 92.1849 86.5783 93.826 86.4025 95.1814C86.1827 96.9031 87.3402 97.0863 88.6224 97.1962H88.6297Z" fill="#4279E0"/>
<path fill-rule="evenodd" clip-rule="evenodd" d="M102.864 90.4412C107.348 92.5951 111.458 89.5986 115.773 89.6353C117.971 89.6572 119.502 88.4923 119.019 86.375C118.484 84.0599 116.609 85.1442 115.121 85.6497C111.326 86.9391 107.355 86.5875 103.45 86.9098C100.915 87.115 96.8127 84.5581 96.3804 88.4191C96.0947 90.9687 100.696 89.4961 102.872 90.4412H102.864Z" fill="#4279E0"/>
<path fill-rule="evenodd" clip-rule="evenodd" d="M131.291 82.4628C131.65 82.9537 132.903 83.4006 133.328 83.1441C138.266 80.1989 144.42 79.0194 147.167 72.4989C141.848 75.0778 136.515 77.6347 131.254 80.3235C130.947 80.4847 130.932 81.9646 131.291 82.4628Z" fill="#4279E0"/>
<path fill-rule="evenodd" clip-rule="evenodd" d="M137.95 88.6976C138.214 89.1298 139.064 89.7452 139.152 89.672C142.94 86.5729 148.859 85.9941 150.984 79.4443C145.746 80.9243 142.537 84.1845 138.705 86.4117C137.533 87.0931 137.357 87.7158 137.95 88.6902V88.6976Z" fill="#4279E0"/>
<path fill-rule="evenodd" clip-rule="evenodd" d="M127.818 77.5761C130.617 76.7409 133.408 75.8251 136.053 74.6089C136.976 74.184 137.46 72.792 138.097 71.9055C138.061 70.3669 136.822 70.0079 136.046 70.3669C132.888 71.8322 130.185 74.3159 126.39 74.3012C126.111 74.3012 125.576 75.598 125.606 76.272C125.657 77.6201 126.946 77.8398 127.826 77.5761H127.818Z" fill="#4279E0"/>
<path fill-rule="evenodd" clip-rule="evenodd" d="M70.0497 89.2031C69.786 90.9395 70.1376 91.8993 72.4748 92.0824C74.343 92.2289 75.4419 92.3681 75.8815 90.3754C76.3504 88.2434 74.7752 88.2287 73.288 88.0236C72.189 88.1848 70.4087 86.9246 70.057 89.2031H70.0497Z" fill="#4279E0"/>
<path fill-rule="evenodd" clip-rule="evenodd" d="M135.056 93.9432C134.697 94.1337 135.254 87.3788 132.368 84.8439C127.225 80.3308 121.261 76.8361 116.565 71.7223C114.828 69.8321 111.7 69.5757 109.282 70.9237C107.949 71.671 106.484 73.0264 107.297 75.2536C108.366 78.1915 110.931 78.2941 113.348 79.2025C118.155 80.9975 128.756 91.8625 129.84 92.7637C131.503 92.6465 133.115 97.1375 135.056 93.9506V93.9432Z" fill="#457CE3"/>
<path fill-rule="evenodd" clip-rule="evenodd" d="M109.399 64.6963C106.989 64.2421 106.579 66.7624 104.373 66.5426C102.359 66.3375 100.066 67.7808 98.3732 65.6927C96.9152 63.8978 97.8677 61.8684 98.3732 59.9488C100.249 52.8715 103.494 46.4756 107.832 40.5998C108.051 40.2995 107.934 39.7353 108.169 39.4569C110.586 36.5923 114.352 34.0207 117.261 35.3688C119.642 36.4751 115.883 39.5448 114.916 41.5742C112.081 47.494 109.429 53.3624 109.121 60.0294C108.952 63.5974 109.004 62.9893 112.557 62.3812C120.594 61.0112 128.382 58.1539 136.624 58.0733C138.808 58.0513 141.687 58.3297 141.189 61.2456C140.822 63.3703 138.419 61.8244 136.844 61.905C130.58 62.2273 124.36 63.4215 120.294 68.8284C117.583 72.433 114.315 71.3267 111.209 70.4988C108.447 69.7589 106.894 67.7808 109.392 64.7037L109.399 64.6963Z" fill="#457CE3"/>
<path fill-rule="evenodd" clip-rule="evenodd" d="M78.5332 89.2617C78.7677 83.1515 83.398 80.133 87.7205 78.2721C91.4643 76.653 95.1495 74.7481 98.9812 73.2755C100.776 72.5869 102.351 70.5868 103.743 73.6419C104.747 75.8398 104.886 78.023 102.688 79.4883C95.6477 84.1772 88.5338 88.7562 81.4052 93.2986C80.8337 93.6649 79.7274 93.7528 79.1633 93.4451C77.1779 92.3681 78.8483 90.5805 78.5332 89.2691V89.2617Z" fill="#457CE3"/>
<path fill-rule="evenodd" clip-rule="evenodd" d="M64.855 67.2239C66.5987 61.2896 71.8444 63.0699 75.3317 62.8428C81.017 62.4838 86.8195 63.5168 92.5194 64.3447C93.8015 64.5278 96.3072 64.4765 95.9995 67.4364C95.7577 69.7442 94.9591 71.3194 92.6953 71.6051C90.9369 71.8249 88.9515 71.9275 87.347 71.3341C80.1378 68.6746 72.4524 68.6746 64.8623 67.2166L64.855 67.2239Z" fill="#457CE3"/>
<path fill-rule="evenodd" clip-rule="evenodd" d="M67.0458 154.738C64.4376 153.097 62.1738 151.258 60.5693 148.657C51.8509 134.517 54.188 119.527 57.6607 104.632C58.1369 102.588 58.7597 100.215 59.9612 98.0387C63.3387 91.9212 67.5953 86.7854 73.1048 82.6093C75.2074 81.0195 75.6543 78.5285 74.6726 76.7336C73.7055 74.9752 71.1706 75.2903 69.1705 75.891C65.1776 77.0779 61.9613 79.481 58.4813 81.7448C46.4294 89.6134 41.0078 101.072 38.6121 114.53C36.5827 125.901 39.7331 136.143 46.085 145.25C50.708 151.88 57.756 155.947 65.141 159.06C66.6722 159.705 69.5881 160.899 70.5478 158.818C71.6541 156.423 68.5038 155.661 67.0385 154.745L67.0458 154.738Z" fill="#4279E0"/>
<path fill-rule="evenodd" clip-rule="evenodd" d="M135.694 95.7309C133.753 98.9179 115.371 100.676 106.836 102.105C101.971 102.918 97.4066 100.713 93.0547 100.867C85.2447 101.138 78.0722 99.8703 70.7751 97.6504C69.3025 97.2035 66.709 94.6686 65.6833 97.5991C64.8554 99.9509 67.8006 100.207 69.493 101.013C80.3287 106.12 91.6846 106.024 103.378 105.409C122.338 104.405 139.973 100.083 155.468 88.6316C156.325 87.9942 157.512 87.6792 156.589 86.6608C155.959 85.9648 154.882 84.756 153.629 85.4593C152.23 86.2432 151.109 87.518 149.702 88.2873C145.145 90.7856 140.522 93.1887 135.694 95.7309Z" fill="#4279E0"/>
<path fill-rule="evenodd" clip-rule="evenodd" d="M159.432 115.615C155.27 118.296 150.31 119.41 146.171 121.915C136.603 127.703 125.877 129.359 115.268 131.088C106.938 132.451 98.3662 132.334 89.9042 132.949C79.7938 133.682 70.0204 133.088 61.639 126.384C60.5034 125.476 58.9942 124.633 58.159 126.436C57.5802 127.681 56.9721 129.249 59.2726 130.363C65.163 133.213 71.1193 135.645 77.6984 136.29C90.9812 137.601 104.286 136.832 117.32 134.656C126.558 133.11 136.002 131.271 144.596 127.059C151.219 123.806 157.71 120.282 164.86 116.567C162.772 114.765 161.117 114.523 159.424 115.615H159.432Z" fill="#4279E0"/>
<path fill-rule="evenodd" clip-rule="evenodd" d="M155.673 125.036C145.966 130.656 135.943 134.876 124.558 136.576C104.55 139.572 84.7391 143.059 64.8846 136.173C63.4487 135.674 62.401 136.246 61.8368 137.345C60.8917 139.184 62.8332 138.869 63.6172 139.528C67.0532 142.422 71.134 143.103 75.9621 143.279C79.5301 144.972 83.7574 143.528 87.9408 143.638C100.813 143.983 113.715 142.949 126.287 140.664C137.401 138.642 148.296 134.825 158.098 128.656C159.49 127.777 161.556 127.271 160.516 125.469C159.571 123.835 157.49 124.003 155.688 125.051L155.673 125.036Z" fill="#4279E0"/>
<path fill-rule="evenodd" clip-rule="evenodd" d="M154.75 110.376C145.966 114.494 137.584 119.908 127.994 121.754C115.393 124.172 102.711 125.564 89.6626 124.809C81.1273 124.318 73.2002 121.805 64.9287 120.633C63.1044 120.377 60.9651 118.281 60.0933 121.051C59.3386 123.439 62.0274 124.465 63.859 124.648C77.3029 126.018 90.5271 129.11 104.22 128.714C124.133 128.135 142.149 121.901 159.153 112.098C160.545 111.292 161.564 109.827 162.751 108.669C161.527 107.46 160.362 106.164 158.465 106.142C158.26 108.442 156.406 109.592 154.743 110.376H154.75Z" fill="#4279E0"/>
<path fill-rule="evenodd" clip-rule="evenodd" d="M158.303 106.134C158.362 106.134 158.413 106.142 158.472 106.142C158.472 106.083 158.494 106.039 158.494 105.98L158.303 106.134Z" fill="#4279E0"/>
<path fill-rule="evenodd" clip-rule="evenodd" d="M127.137 112.963C106.256 118.985 85.0759 119.549 64.0565 112.875C62.386 112.347 61.1918 113.16 59.7266 114.516C67.3973 118.648 75.6834 118.531 83.6326 119.967C99.5015 122.839 114.814 120.267 129.906 115.615C139.511 112.655 158.428 104.698 158.809 104.427C160.259 103.387 164.172 104.046 162.12 100.64C160.355 97.709 158.054 100.911 156.728 101.658C147.394 106.874 137.218 110.061 127.144 112.97L127.137 112.963Z" fill="#4279E0"/>
<path fill-rule="evenodd" clip-rule="evenodd" d="M130.844 104.273C115.444 107.424 100.117 110.303 84.2994 107.79C77.3907 106.691 70.4086 106.01 62.4741 105.013C64.5841 109.021 67.1484 109.285 69.7199 109.6C81.0465 110.984 92.2925 112.23 103.832 111.622C123.298 110.596 141.768 107.087 158.149 95.8408C159.695 94.7785 160.582 93.4597 159.725 91.804C158.406 89.2764 157.014 91.3278 156.003 92.1923C148.684 98.471 140.354 102.339 130.859 104.281L130.844 104.273Z" fill="#4279E0"/>
<path fill-rule="evenodd" clip-rule="evenodd" d="M156.501 133.711C155.856 133.352 155.168 131.513 153.71 133.271C149.145 138.781 142.522 140.473 135.987 141.96C126.28 144.173 116.521 147.389 106.711 147.653C93.6478 148.005 80.3504 147.338 67.5952 143.374C66.2984 142.971 64.7892 142.136 64.3422 144.407C63.8953 146.671 65.6756 146.481 66.9797 146.679C71.7492 147.397 75.1194 154.232 115.363 151.968C125.122 150.159 134.932 148.576 144.302 145.125C144.515 144.862 144.735 144.591 144.947 144.327C148.83 141.733 153.043 139.616 156.098 135.865C156.823 134.978 157.607 134.334 156.508 133.718L156.501 133.711Z" fill="#4279E0"/>
<path fill-rule="evenodd" clip-rule="evenodd" d="M144.625 146.847C144.691 146.796 144.75 146.752 144.815 146.701L144.625 146.847Z" fill="#4279E0"/>
<path fill-rule="evenodd" clip-rule="evenodd" d="M144.625 146.847C143.717 147.543 142.603 147.822 141.563 148.225C129.613 152.884 116.924 154.13 104.374 154.855C96.4029 155.316 88.0948 155.683 80.153 153.28L80.2995 153.47C78.2188 153.272 75.0172 151.873 74.6362 154.591C74.3212 156.833 77.2444 158.298 79.9771 158.24C80.5779 158.225 81.1713 158.416 81.7794 158.445C90.2707 158.914 98.4616 160.907 107.327 159.617C116.367 158.306 125.569 157.434 134.698 156.32C130.668 160.709 125.166 162.086 119.591 162.203C107.693 162.467 95.7435 164.086 83.8748 161.581C82.6806 161.331 80.8636 160.599 80.4533 162.723C79.9405 165.383 82.2263 164.811 83.611 165.156C90.8935 166.936 98.4323 166.511 105.722 166.431C117.305 166.299 129.467 166.746 139.467 158.533C138.654 157.309 137.519 156.547 136.251 155.961C139.453 154.642 142.713 153.426 145.768 151.814C147.072 151.126 149.922 151.206 149.197 148.547C148.574 146.246 146.208 147.316 144.625 146.854V146.847Z" fill="#4279E0"/>
<path fill-rule="evenodd" clip-rule="evenodd" d="M125.958 90.8515L126.06 90.9833C126.045 90.9467 126.023 90.9101 126.009 90.8734C125.972 90.8441 125.943 90.8222 125.914 90.7928C125.921 90.8661 125.928 90.9467 125.936 91.02C125.98 91.0053 126.016 90.998 126.06 90.9907C126.06 90.9907 126.002 90.9101 125.958 90.8588V90.8515Z" fill="#4279E0"/>
<path fill-rule="evenodd" clip-rule="evenodd" d="M88.6297 97.1962C100.03 98.1706 111.312 98.2438 122.661 95.7895C126.573 94.947 126.192 93.4084 125.936 91.0127C114.822 93.9652 103.612 95.2327 92.1976 92.8516C91.0181 92.6025 89.7946 92.5805 88.6004 92.4413C86.4098 92.1849 86.5783 93.826 86.4025 95.1814C86.1827 96.9031 87.3402 97.0863 88.6224 97.1962H88.6297Z" fill="#4279E0"/>
<path fill-rule="evenodd" clip-rule="evenodd" d="M102.864 90.4412C107.348 92.5951 111.458 89.5986 115.773 89.6353C117.971 89.6572 119.502 88.4923 119.019 86.375C118.484 84.0599 116.609 85.1442 115.121 85.6497C111.326 86.9391 107.355 86.5875 103.45 86.9098C100.915 87.115 96.8127 84.5581 96.3804 88.4191C96.0947 90.9687 100.696 89.4961 102.872 90.4412H102.864Z" fill="#4279E0"/>
<path fill-rule="evenodd" clip-rule="evenodd" d="M131.291 82.4628C131.65 82.9537 132.903 83.4006 133.328 83.1441C138.266 80.1989 144.42 79.0194 147.167 72.4989C141.848 75.0778 136.515 77.6347 131.254 80.3235C130.947 80.4847 130.932 81.9646 131.291 82.4628Z" fill="#4279E0"/>
<path fill-rule="evenodd" clip-rule="evenodd" d="M137.95 88.6976C138.214 89.1298 139.064 89.7452 139.152 89.672C142.94 86.5729 148.859 85.9941 150.984 79.4443C145.746 80.9243 142.537 84.1845 138.705 86.4117C137.533 87.0931 137.357 87.7158 137.95 88.6902V88.6976Z" fill="#4279E0"/>
<path fill-rule="evenodd" clip-rule="evenodd" d="M127.818 77.5761C130.617 76.7409 133.408 75.8251 136.053 74.6089C136.976 74.184 137.46 72.792 138.097 71.9055C138.061 70.3669 136.822 70.0079 136.046 70.3669C132.888 71.8322 130.185 74.3159 126.39 74.3012C126.111 74.3012 125.576 75.598 125.606 76.272C125.657 77.6201 126.946 77.8398 127.826 77.5761H127.818Z" fill="#4279E0"/>
<path fill-rule="evenodd" clip-rule="evenodd" d="M70.0497 89.2031C69.786 90.9395 70.1376 91.8993 72.4748 92.0824C74.343 92.2289 75.4419 92.3681 75.8815 90.3754C76.3504 88.2434 74.7752 88.2287 73.288 88.0236C72.189 88.1848 70.4087 86.9246 70.057 89.2031H70.0497Z" fill="#4279E0"/>
</svg>
