<svg width="124" height="29" viewBox="0 0 124 29" fill="none" xmlns="http://www.w3.org/2000/svg">
<path d="M108 3C108 7.11337 108.129 12.1889 108.452 17.5039C108.904 21.5335 109.297 23.8979 109.492 25.1931C109.558 25.8455 109.558 26.4883 109.558 27.1505" stroke="#B42B0C" stroke-width="2" stroke-linecap="round"/>
<path d="M118.517 3.77905C118.517 6.36159 119.288 10.7749 120.009 13.7002C120.204 17.1475 120.465 20.5052 120.788 22.9241C120.854 23.3799 120.854 23.894 120.854 24.4238" stroke="#B42B0C" stroke-width="2" stroke-linecap="round"/>
<path d="M108.39 17.0229C108.904 17.0229 111.868 17.0229 116.215 16.9586C118.377 16.7658 119.292 16.7619 120.198 16.9566C120.718 17.0229 121.361 17.0229 122.023 17.0229" stroke="#B42B0C" stroke-width="2" stroke-linecap="round"/>
<path d="M86 7C86 10.8563 86 14.1283 86.1928 16.5258C86.7713 18.5377 87.1686 20.4931 87.2971 22.244C87.4257 22.9666 87.6827 23.3522 87.9476 24.9181" stroke="#B42B0C" stroke-width="2" stroke-linecap="round"/>
<path d="M39 7.82172C39.3856 9.8784 39.7713 11.9351 39.9699 14.6014C40.1686 17.2677 40.1686 20.4812 40.1686 23.7922" stroke="#B42B0C" stroke-width="2" stroke-linecap="round"/>
<path d="M39.3895 8.60078C40.1608 7.82562 42.755 6.7856 47.032 7.03879C48.2678 7.11194 49.2367 8.19567 49.8307 8.7858C50.6921 9.64152 50.6857 11.4443 50.4286 13.8418C50.1989 15.9842 48.4849 17.0379 47.3183 17.5559C45.5067 18.3604 44.0677 18.4674 43.869 19.0478C46.3932 21.5797 48.3447 22.8807 49.1218 23.3345C49.5132 23.5312 49.8989 23.6598 50.2962 23.7922" stroke="#B42B0C" stroke-width="2" stroke-linecap="round"/>
<path d="M34.6167 2C33.8834 2 32.4016 2.09149 31.5242 2.57525C31.1358 2.78941 31.0141 3.47485 30.8062 4.60109C30.4603 6.4746 30.644 8.46079 30.4368 9.91347C30.3401 10.5915 30.1838 11.1374 30.1131 13.593C30.0424 16.0485 30.0424 20.3941 30.0196 22.8157C29.9932 25.6039 29.9038 26.7121 30.5442 27.5923C32.4654 27.2832 34.2882 26.7204 35.1192 26.5818C35.447 26.5347 35.5842 26.5347 35.7256 26.3961" stroke="#B42B0C" stroke-width="2.10189" stroke-linecap="round"/>
<path d="M30.4583 15.8614C30.4583 15.9529 30.6412 16.0457 31.3759 16.1151C32.8424 16.1386 33.9222 16.0471 34.2445 15.9085C34.4295 15.8614 34.6583 15.8614 34.8939 15.8614" stroke="#B42B0C" stroke-width="2.10189" stroke-linecap="round"/>
<path d="M98.4483 7.04039C97.9499 6.87259 96.62 7.20569 94.8644 8.45417C93.3133 9.55715 92.0268 11.9592 91.2704 14.8732C90.6443 17.2854 91.2679 19.0594 91.5171 19.683C92.1849 21.354 93.4343 21.7317 94.4374 22.2739C96.2831 23.2717 100.191 22.2376 101.948 21.2371C102.368 20.9027 102.781 20.4895 103.035 20.1526C103.289 19.8158 103.372 19.5678 103.457 19.3124" stroke="#B42B0C" stroke-width="2" stroke-linecap="round"/>
<path d="M68 5.21265C68.08 9.2507 68.2425 10.8635 68.6451 13.6877C68.7276 15.8595 68.8876 17.4165 69.1302 19.2622C69.2126 20.7877 69.2126 23.5088 69.2126 26.3124" stroke="#B42B0C" stroke-width="2" stroke-linecap="round"/>
<path d="M68.485 4C68.9677 5.77286 69.7753 7.39051 70.8254 8.96572C71.2304 9.57324 71.7955 10.2208 72.4819 10.7071C73.6309 11.5211 74.3008 7.48267 75.0708 6.2276C75.43 5.64225 76.0009 5.29509 76.4447 5.17261C77.6085 4.85147 77.7738 11.0769 78.6287 14.3813C79.0206 15.8961 79.3987 17.3292 79.8013 18.828C80.4862 21.3778 80.5289 23.0722 80.8526 24.126C81.0139 24.6098 81.1764 25.1774 81.3377 25.7825C81.4189 26.0674 81.499 26.3075 81.5814 26.7974" stroke="#B42B0C" stroke-width="2" stroke-linecap="round"/>
<path d="M14.1644 4C14.3831 6.02516 14.4932 7.76759 14.7661 8.95606C15.0336 10.1212 15.5321 12.4261 15.671 15.0324C15.8082 16.9745 15.754 19.4501 15.6718 20.7002C15.6439 21.7876 15.6439 23.7947 15.6439 25.8626" stroke="#B42B0C" stroke-width="2" stroke-linecap="round"/>
<path d="M14 4C14.217 4 16.9325 4 20.9862 4.08137C22.438 4.11051 22.653 4.32547 22.8732 4.49067C23.8668 5.23582 24.2442 6.95227 24.3017 8.54182C24.3281 9.27148 23.9187 9.86015 23.7001 10.3525C23.1356 11.6235 20.9631 12.3275 19.9218 12.9563C19.0217 13.4997 18.2772 13.6425 17.1824 13.9984C16.9082 14.0876 16.6893 14.1357 16.7131 14.1636C17.2295 14.7691 18.7046 14.4644 21.0051 15.4474C22.6538 16.1519 23.1494 17.9131 23.4782 19.252C23.9125 21.0208 23.3713 22.4632 23.0434 22.8733C22.4734 23.5861 21.6207 23.9426 20.9064 24.2179C20.2412 24.4744 19.4837 24.8204 18.6059 25.0398C18.1687 25.1492 17.7824 25.2593 17.4002 25.3415C17.1808 25.3694 16.9095 25.3694 16.6301 25.5338" stroke="#B42B0C" stroke-width="2" stroke-linecap="round"/>
<path d="M1 8C1.38952 11.755 1.64661 14.6141 1.90759 17.7245C2.20342 21.2502 4.49792 23.4407 6.05796 24.6813C6.40086 24.954 6.83506 25.0066 7.22653 24.88C9.23565 24.2303 9.69416 19.452 10.6056 15.3542C10.7381 13.8662 10.7381 11.5525 10.5453 10.232C10.3525 8.91148 9.96683 8.6544 9.56952 8.38952" stroke="#B42B0C" stroke-width="2" stroke-linecap="round"/>
<path d="M4.14898 4.43326C4.0981 4.43326 4.04722 4.43326 4.021 4.5859C3.99479 4.73854 3.99479 5.04382 4.14898 5.04999" stroke="#B42B0C" stroke-width="2" stroke-linecap="round"/>
<path d="M7.54102 4.43326C7.49014 4.43326 7.43926 4.43326 7.41305 4.56046C7.38684 4.68766 7.38684 4.94206 7.41228 4.9968C7.43772 5.05153 7.4886 4.89889 7.38684 4.58744" stroke="#B42B0C" stroke-width="2" stroke-linecap="round"/>
</svg>
