<svg width="123" height="29" viewBox="0 0 123 29" fill="none" xmlns="http://www.w3.org/2000/svg">
<path d="M2.60632 19.8264H14.292" stroke="#B42B0C" stroke-width="2" stroke-linecap="round"/>
<path d="M69 5C69.2571 5.12854 69.5142 5.25709 70.4179 5.3233C71.3216 5.38952 72.8641 5.38952 73.8515 5.45379C74.839 5.51807 75.2246 5.64661 76.4009 5.77905" stroke="#B42B0C" stroke-width="2" stroke-linecap="round"/>
<path d="M116.458 15.8614C116.458 15.9529 116.641 16.0457 117.376 16.1151C118.842 16.1386 119.922 16.0471 120.244 15.9085C120.43 15.8614 120.658 15.8614 120.894 15.8614" stroke="#B42B0C" stroke-width="2.10189" stroke-linecap="round"/>
<path d="M1.04822 26.4483C0.919682 24.9019 0.915786 18.1826 2.79329 9.91888C3.52712 6.68896 7.14037 4.77523 9.15615 4.05071C10.0048 3.7457 10.7824 4.89208 11.431 5.47442C12.9113 6.80359 13.3727 12.2619 13.9668 19.7368C14.031 21.1196 14.1596 21.6338 14.2258 22.4128C14.292 23.1919 14.292 24.2202 14.292 25.2797" stroke="#B42B0C" stroke-width="2" stroke-linecap="round"/>
<path d="M38.118 10.2369C41.5809 8.02834 45.7098 7 48.1716 7C48.9585 7.6544 49.3441 7.91148 49.7356 8.17247C50.8983 11.7288 50.3763 18.1715 49.2701 20.2516C47.9068 22.1992 44.8089 26.7105 40.3714 25.9542C39.5943 25.8218 39.1651 25.5985 38.8172 25.105C38.0401 24.0027 36.8712 22.6782 36.6125 21.0774C36.0964 17.8833 35.0056 12.2221 38.118 10.2369Z" stroke="#B42B0C" stroke-width="2" stroke-linecap="round"/>
<path d="M56 7C56.3895 10.755 56.6466 13.6141 56.9076 16.7245C57.2034 20.2502 59.4979 22.4407 61.058 23.6813C61.4009 23.954 61.8351 24.0066 62.2265 23.88C64.2356 23.2303 64.6942 18.452 65.6056 14.3542C65.7381 12.8662 65.7381 10.5525 65.5453 9.23197C65.3525 7.91148 64.9668 7.6544 64.5695 7.38952" stroke="#B42B0C" stroke-width="2" stroke-linecap="round"/>
<path d="M73.2848 5.38953C73.7989 9.50289 74.0638 15.4782 73.9995 21.5138C73.9353 23.6932 73.8067 24.0789 73.7405 24.5346C73.6743 24.9903 73.6743 25.5045 73.6743 26.0343" stroke="#B42B0C" stroke-width="2" stroke-linecap="round"/>
<path d="M120.617 2C119.883 2 118.402 2.09149 117.524 2.57525C117.136 2.78941 117.014 3.47485 116.806 4.60109C116.46 6.4746 116.644 8.46079 116.437 9.91347C116.34 10.5915 116.184 11.1374 116.113 13.593C116.042 16.0485 116.042 20.3941 116.02 22.8157C115.993 25.6039 115.904 26.7121 116.544 27.5923C118.465 27.2832 120.288 26.7204 121.119 26.5818C121.447 26.5347 121.584 26.5347 121.726 26.3961" stroke="#B42B0C" stroke-width="2.10189" stroke-linecap="round"/>
<path d="M97 4.21265C97.08 8.2507 97.2425 9.8635 97.6451 12.6877C97.7276 14.8595 97.8876 16.4165 98.1302 18.2622C98.2126 19.7877 98.2126 22.5088 98.2126 25.3124" stroke="#B42B0C" stroke-width="2" stroke-linecap="round"/>
<path d="M97.485 3C97.9677 4.77286 98.7753 6.39051 99.8254 7.96572C100.23 8.57324 100.796 9.22079 101.482 9.70705C102.631 10.5211 103.301 6.48267 104.071 5.2276C104.43 4.64225 105.001 4.29509 105.445 4.17261C106.608 3.85147 106.774 10.0769 107.629 13.3813C108.021 14.8961 108.399 16.3292 108.801 17.828C109.486 20.3778 109.529 22.0722 109.853 23.126C110.014 23.6098 110.176 24.1774 110.338 24.7825C110.419 25.0674 110.499 25.3075 110.581 25.7974" stroke="#B42B0C" stroke-width="2" stroke-linecap="round"/>
<path d="M20.1644 5C20.383 7.02516 20.4932 8.76759 20.766 9.95606C21.0335 11.1212 21.532 13.4261 21.6709 16.0324C21.8082 17.9745 21.754 20.4501 21.6718 21.7002C21.6438 22.7876 21.6438 24.7947 21.6438 26.8626" stroke="#B42B0C" stroke-width="2" stroke-linecap="round"/>
<path d="M20 5C20.217 5 22.9325 5 26.9862 5.08137C28.438 5.11051 28.653 5.32547 28.8732 5.49067C29.8668 6.23582 30.2442 7.95227 30.3017 9.54182C30.3281 10.2715 29.9187 10.8602 29.7001 11.3525C29.1356 12.6235 26.9631 13.3275 25.9218 13.9563C25.0217 14.4997 24.2772 14.6425 23.1824 14.9984C22.9082 15.0876 22.6893 15.1357 22.7131 15.1636C23.2295 15.7691 24.7046 15.4644 27.0051 16.4474C28.6538 17.1519 29.1494 18.9131 29.4782 20.252C29.9125 22.0208 29.3713 23.4632 29.0434 23.8733C28.4734 24.5861 27.6207 24.9426 26.9064 25.2179C26.2412 25.4744 25.4837 25.8204 24.6059 26.0398C24.1687 26.1492 23.7824 26.2593 23.4002 26.3415C23.1808 26.3694 22.9095 26.3694 22.6301 26.5338" stroke="#B42B0C" stroke-width="2" stroke-linecap="round"/>
</svg>
