<svg width="14" height="25" viewBox="0 0 14 25" fill="none" xmlns="http://www.w3.org/2000/svg">
<path d="M1 6.98794C1.07637 6.57843 3.79918 5.20565 4.84 3.98581C5.98789 2.64049 8.69317 1.76044 9.47989 2.05787C10.8022 2.5578 11.4765 3.13789 12.04 4.48617C12.7898 6.28012 11.0471 9.56935 10.1828 10.3532C9.47989 10.9908 9.08416 11.5147 7.96813 12.0924C6.9631 12.6126 4.74038 12.5497 3.29921 12.6527C2.91482 12.6801 4.05422 12.6738 6.30826 12.7352C7.6943 12.773 8.57619 13.2508 9.47989 13.6429C10.4714 14.0732 11.278 14.4086 11.7206 14.9447C12.7214 16.1569 12.8586 18.0445 12.9969 20.8124C13.0305 21.4838 12.7857 21.9771 12.4976 22.6379C12.2376 23.2343 11.4759 23.8147 10.3361 23.9792C9.7158 24.0687 8.96845 23.8422 8.56404 23.8217C7.88075 23.7871 6.54547 22.5665 5.43985 21.673C4.86855 21.2113 4.03455 20.4544 3.31772 19.9965C3.06721 19.8315 2.87282 19.6243 2.71892 19.3767C2.56503 19.1291 1.55868 18.6227 1.48 18.4961" stroke="#C3CE72" stroke-width="1.47281" stroke-linecap="round"/>
<path d="M1 1C1 2.452 1 3.904 1 7.3745C1 10.845 1 16.29 1 19.1494C1 22.0089 1 22.1178 1 22.3009C1 22.4841 1 22.7382 1 23" stroke="#C3CE72" stroke-width="1.47281" stroke-linecap="round"/>
</svg>
