<svg width="50" height="47" viewBox="0 0 50 47" fill="none" xmlns="http://www.w3.org/2000/svg">
<path d="M41.1673 8.60638C41.2808 8.50495 41.3714 8.38043 41.4329 8.24114C41.4945 8.10186 41.5255 7.95103 41.524 7.79877C41.5225 7.64651 41.4885 7.49632 41.4242 7.35828C41.3599 7.22023 41.2669 7.09752 41.1514 6.99835C41.0297 6.89396 40.9089 6.79011 40.7891 6.68681C39.8745 5.90054 38.9291 5.0864 37.9401 4.39193C30.3845 -0.925699 22.5341 -0.955615 14.608 1.86454C7.43166 4.41607 2.82314 9.52079 0.908512 17.034C-1.22729 25.4283 0.642989 32.8337 6.47126 39.0471C6.6229 39.2076 6.77764 39.3682 6.93217 39.5217C10.063 42.6525 13.9626 44.5855 17.0525 45.9305C18.3787 46.5098 25.1834 47.2132 27.0246 46.9388C37.9663 45.3049 45.1667 39.1336 47.6745 28.809C48.1534 26.7867 48.3918 24.7149 48.3849 22.6366C48.3741 20.454 48.007 18.2878 47.2982 16.2234C47.2466 16.069 47.1615 15.9279 47.049 15.8102C46.9365 15.6925 46.7993 15.6012 46.6474 15.5427C46.4955 15.4842 46.3325 15.46 46.1701 15.4719C46.0077 15.4837 45.85 15.5313 45.7081 15.6113L45.6784 15.6282C45.453 15.7573 45.2802 15.9615 45.1902 16.2051C45.1001 16.4487 45.0986 16.7162 45.1859 16.9608C45.8257 18.7352 46.1519 20.6074 46.15 22.4936C46.1279 24.7565 45.8215 27.0077 45.2381 29.1942C43.5094 35.4776 39.3764 40.057 32.6028 43.1893C25.7168 46.4863 15.8416 43.1532 13.2141 41.4185C10.31 39.4331 7.76892 36.9631 5.7019 34.1165C2.46023 29.5268 1.73296 22.9298 3.4749 16.8987C4.29007 14.1141 5.71471 11.5457 7.64553 9.37997C9.57635 7.2142 11.965 5.50526 14.6381 4.37707C21.5925 1.48697 28.5703 0.977164 35.3761 5.3055C36.2887 5.88649 38.6153 7.71343 39.7913 8.6464C39.9886 8.80291 40.2349 8.88462 40.4866 8.87707C40.7384 8.86952 40.9793 8.7732 41.1669 8.60515L41.1673 8.60638Z" fill="#B42B0C"/>
<path d="M21.5153 30.1005C21.9814 29.6575 22.2374 29.4335 22.4718 29.1886C29.9861 21.338 38.2155 14.2702 46.4936 7.25701C46.8064 6.9921 47.1266 6.65416 47.4969 6.55925C47.9434 6.44516 48.6715 6.57639 48.871 6.81881C49.0021 6.99796 49.0849 7.20778 49.1116 7.42817C49.1383 7.64856 49.1078 7.8721 49.0232 8.07735C48.8287 8.58757 48.3548 9.02455 47.9248 9.40645C45.3588 11.6865 42.7213 13.8879 40.2007 16.2149C34.9316 21.0811 29.6961 25.9835 24.4941 30.9221C22.2147 33.0814 21.3375 33.1689 19.2401 30.8616C17.8594 29.3421 13.6926 24.2209 12.4165 22.6072C12.2362 22.3564 12.0756 22.092 11.9362 21.8164C11.6484 21.306 11.4602 20.7436 12.0323 20.3479C12.6697 19.9072 13.1219 20.3671 13.4997 20.8459C13.882 21.3308 14.208 21.8633 14.6173 22.3228C15.888 23.7486 20.1423 28.5967 21.5153 30.1005Z" fill="#B42B0C"/>
</svg>
