<svg width="104" height="26" viewBox="0 0 104 26" fill="none" xmlns="http://www.w3.org/2000/svg">
<path d="M64.0482 24.4483C63.9197 22.9019 63.9158 16.1826 65.7933 7.91888C66.5271 4.68896 70.1404 2.77523 72.1562 2.05071C73.0048 1.7457 73.7824 2.89208 74.431 3.47442C75.9113 4.80359 76.3727 10.2619 76.9668 17.7368C77.031 19.1196 77.1596 19.6338 77.2258 20.4128C77.292 21.1919 77.292 22.2202 77.292 23.2797" stroke="#B42B0C" stroke-width="2" stroke-linecap="round"/>
<path d="M65.6063 17.8264H77.292" stroke="#B42B0C" stroke-width="2" stroke-linecap="round"/>
<path d="M81 2C81.1285 3.16078 81.9037 7.55461 83.5261 13.0819C84.2447 17.4407 84.6343 20.0427 84.829 21.2717C84.8952 21.9864 84.8952 22.8862 84.8952 23.8133" stroke="#B42B0C" stroke-width="2" stroke-linecap="round"/>
<path d="M83.7267 15.2438C85.016 13.565 87.6141 11.2239 89.8208 9.21399C90.3447 8.75435 90.7303 8.49726 91.1218 8.30056C91.5133 8.10385 91.8989 7.9753 92.2962 7.84286" stroke="#B42B0C" stroke-width="2" stroke-linecap="round"/>
<path d="M84.5057 14.0752C85.0199 14.9789 86.8351 16.537 89.2346 18.6112C90.7225 19.5208 91.9028 20.0466 92.8727 20.627C93.457 21.0789 94.2282 21.8501 95.0229 22.6447" stroke="#B42B0C" stroke-width="2" stroke-linecap="round"/>
<path d="M1 1C1.12854 2.16078 1.90369 6.55461 3.52606 12.0819C4.24473 16.4407 4.63425 19.0427 4.82902 20.2717C4.89523 20.9864 4.89523 21.8862 4.89523 22.8133" stroke="#B42B0C" stroke-width="2" stroke-linecap="round"/>
<path d="M3.72668 14.2438C5.01601 12.565 7.61413 10.2239 9.82078 8.21399C10.3447 7.75435 10.7303 7.49726 11.1218 7.30056C11.5133 7.10385 11.8989 6.9753 12.2962 6.84286" stroke="#B42B0C" stroke-width="2" stroke-linecap="round"/>
<path d="M4.50574 13.0752C5.01991 13.9789 6.83509 15.537 9.23455 17.6112C10.7225 18.5208 11.9028 19.0466 12.8727 19.627C13.457 20.0789 14.2282 20.8501 15.0229 21.6447" stroke="#B42B0C" stroke-width="2" stroke-linecap="round"/>
<path d="M35 4C35.1285 5.67106 35.2571 7.34211 35.3233 9.6812C35.3895 12.0203 35.3895 14.9768 35.3895 18.0228" stroke="#B42B0C" stroke-width="2" stroke-linecap="round"/>
<path d="M35 4.38953C35 4.64661 37.5709 9.02096 42.3016 16.2194C45.5469 21.1575 48.2399 22.5647 48.8885 22.3758C49.1514 21.9298 49.2799 20.7729 49.3461 17.9917C49.4124 15.2105 49.4124 10.84 49.4124 6.33714" stroke="#B42B0C" stroke-width="2" stroke-linecap="round"/>
<path d="M19.118 6.23694C22.5809 4.02834 26.7098 3 29.1716 3C29.9585 3.6544 30.3441 3.91148 30.7356 4.17247C31.8983 7.72881 31.3763 14.1715 30.2701 16.2516C28.9068 18.1992 25.8089 22.7105 21.3714 21.9542C20.5943 21.8218 20.1651 21.5985 19.8172 21.105C19.0401 20.0027 17.8712 18.6782 17.6125 17.0774C17.0964 13.8833 16.0056 8.22206 19.118 6.23694Z" stroke="#B42B0C" stroke-width="2" stroke-linecap="round"/>
<path d="M99.2848 3.38953C99.799 7.50289 100.064 13.4782 99.9996 19.5138C99.9353 21.6932 99.8068 22.0789 99.7405 22.5346C99.6743 22.9903 99.6743 23.5045 99.6743 24.0343" stroke="#B42B0C" stroke-width="2" stroke-linecap="round"/>
<path d="M95 3C95.2571 3.12854 95.5142 3.25709 96.4179 3.3233C97.3216 3.38952 98.8641 3.38952 99.8515 3.45379C100.839 3.51807 101.225 3.64661 102.401 3.77905" stroke="#B42B0C" stroke-width="2" stroke-linecap="round"/>
<path d="M57.2848 3.38953C57.7989 7.50289 58.0638 13.4782 57.9995 19.5138C57.9353 21.6932 57.8067 22.0789 57.7405 22.5346C57.6743 22.9903 57.6743 23.5045 57.6743 24.0343" stroke="#B42B0C" stroke-width="2" stroke-linecap="round"/>
<path d="M53 3C53.2571 3.12854 53.5142 3.25709 54.4179 3.3233C55.3216 3.38952 56.8641 3.38952 57.8515 3.45379C58.839 3.51807 59.2246 3.64661 60.4009 3.77905" stroke="#B42B0C" stroke-width="2" stroke-linecap="round"/>
</svg>
