<svg width="42" height="51" viewBox="0 0 42 51" fill="none" xmlns="http://www.w3.org/2000/svg">
<g clip-path="url(#clip0_46_141)">
<path d="M15.8284 50.8734C15.5077 50.8292 15.1883 50.7571 14.8664 50.7454C12.4682 50.6568 10.068 50.6131 7.67203 50.4873C6.29635 50.415 4.9201 50.2639 3.5575 50.06C2.10303 49.8423 0.65432 48.1053 0.599547 46.5238C0.460788 42.5211 0.303581 38.5177 0.260146 34.5135C0.159633 25.2835 0.136571 16.0528 0.0439366 6.82263C0.0302913 5.46252 0.0439354 4.13932 0.590516 2.86685C1.02294 1.86133 1.6191 1.02489 2.73129 0.714316C3.10972 0.609863 3.49902 0.549704 3.89133 0.534893C5.66444 0.46609 7.44236 0.47537 9.21164 0.356407C15.3914 -0.0594859 21.5693 0.27688 27.749 0.314741C28.3665 0.302031 28.98 0.415654 29.5519 0.64844C30.1241 0.881227 30.6424 1.22826 31.0756 1.6685C33.0743 3.56902 35.2205 5.31281 37.294 7.13474C38.0835 7.82834 38.8123 8.59213 39.6194 9.26344C40.3982 9.9115 40.6765 10.7353 40.6982 11.6943C40.7593 14.485 40.8112 17.2761 40.88 20.0666C40.9903 24.532 41.1544 28.9969 41.2131 33.4622C41.2557 36.7119 41.1658 39.9629 41.1333 43.2134C41.122 44.33 41.0874 45.4468 41.0949 46.563C41.1141 49.1564 39.055 50.5639 36.9094 50.6003C32.9994 50.6662 29.0888 50.6946 25.1785 50.7484C24.8232 50.7709 24.4692 50.8124 24.118 50.8724L15.8284 50.8734ZM27.2343 2.78013C26.6343 2.72997 26.1175 2.65704 25.5996 2.6482C21.4908 2.57838 17.3819 2.51591 13.2729 2.46108C11.4006 2.43571 9.52798 2.42532 7.6555 2.41398C6.70417 2.40841 5.75074 2.37814 4.80172 2.42599C3.44238 2.4946 3.04321 2.88595 2.80028 4.2572C2.56779 5.48518 2.51992 6.74095 2.65826 7.98307C2.72279 8.50459 2.75648 9.02942 2.75915 9.55491C2.78131 21.2808 2.79971 33.0067 2.81431 44.7328C2.80274 45.0278 2.81352 45.3236 2.8466 45.617C3.07915 47.1101 3.86884 48.0275 5.50493 48.0934C11.8815 48.3499 18.2579 48.3494 24.6364 48.2379C27.8247 48.1822 31.0137 48.1597 34.2027 48.1243C34.9906 48.1155 35.7805 48.1462 36.5666 48.1049C37.8625 48.0353 38.548 47.3273 38.534 46.0306C38.5182 44.5875 38.4114 43.1455 38.3871 41.7022C38.3593 40.0277 38.4162 38.351 38.3679 36.6773C38.2495 32.5086 38.046 28.3419 37.9663 24.1726C37.9011 20.7581 37.9663 17.3408 37.9697 13.9247C37.9697 13.648 37.9372 13.3711 37.9276 13.2179C35.7344 13.2179 33.664 13.236 31.5943 13.2072C30.9382 13.1989 30.2847 13.1204 29.6453 12.973C28.6094 12.7314 27.9916 12.0801 27.9627 10.9618C27.9535 10.6009 27.9243 10.2401 27.891 9.88053C27.6791 7.56103 27.4634 5.24205 27.2343 2.78013ZM36.417 10.4898L36.4768 10.2854L29.9599 4.37525L29.8102 4.46665C30.1294 6.56264 30.4487 8.65878 30.7787 10.8265L36.417 10.4898Z" fill="#B42B0C"/>
<path d="M25.8696 39.3325C26.1753 38.0124 26.4329 36.8451 26.7202 35.6854C26.8442 35.1436 27.0127 34.6128 27.2243 34.0987C27.3686 33.7691 27.5896 33.4787 27.8689 33.2516C27.993 33.1412 28.1428 33.0638 28.3044 33.0259C28.466 32.9883 28.6346 32.9917 28.7947 33.0357C28.9547 33.0797 29.1014 33.163 29.2211 33.2781C29.3407 33.3932 29.4296 33.5364 29.48 33.6946C29.6351 34.1233 29.6778 34.585 29.6038 35.0351C29.1412 37.314 28.6298 39.5832 28.1091 41.8496C28.0186 42.2655 27.8568 42.6628 27.6308 43.0235C27.0108 43.9735 25.8467 44.0211 25.1491 43.13C24.8737 42.7623 24.6434 42.3628 24.4635 41.9401C23.3515 39.4569 22.2601 36.9644 21.1543 34.4783C20.9659 34.0555 20.8864 33.653 21.2934 33.3221C21.6428 33.0377 22.2409 33.1195 22.6239 33.537C22.8853 33.8304 23.1098 34.1546 23.2927 34.5025C24.0423 35.8862 24.7706 37.2829 25.5077 38.673C25.5972 38.8444 25.6928 39.0126 25.8696 39.3325Z" fill="#B42B0C"/>
<path d="M16.7856 41.6773C17.2784 41.6773 17.7714 41.6727 18.2639 41.6785C18.9783 41.6867 19.3907 41.9792 19.507 42.5493C19.6223 43.1128 19.2785 43.6903 18.5937 43.8738C17.3584 44.2282 16.0655 44.3366 14.7884 44.1929C14.3327 44.1348 13.8826 44.0383 13.4431 43.9046C10.9551 43.1445 9.74622 41.3352 10.0445 38.757C10.272 36.7896 11.089 35.107 12.688 33.8772C13.3714 33.3516 14.1358 32.9163 15.0356 33.0137C15.448 33.0727 15.8369 33.242 16.1612 33.5036C16.265 33.6007 16.3379 33.7262 16.3707 33.8645C16.4036 34.0027 16.3949 34.1478 16.3459 34.2812C16.2969 34.4146 16.2096 34.5305 16.0951 34.6144C15.9805 34.6986 15.8437 34.7469 15.7017 34.7538C14.4986 34.7793 13.7656 35.4797 13.2017 36.4108C12.6555 37.2784 12.3782 38.2881 12.4047 39.3128C12.4455 40.5032 12.9067 41.1313 14.0504 41.4703C14.493 41.5916 14.9468 41.6671 15.4048 41.6958C15.8618 41.7332 16.3242 41.7038 16.7843 41.7038L16.7856 41.6773Z" fill="#B42B0C"/>
</g>
<defs>
<clipPath id="clip0_46_141">
<rect width="41.3202" height="50.9295" fill="white"/>
</clipPath>
</defs>
</svg>
