<svg width="29" height="29" viewBox="0 0 29 29" fill="none" xmlns="http://www.w3.org/2000/svg">
<path d="M17.8925 1.13032C16.8973 1.13032 15.29 1.17332 13.1587 1.389C11.1163 1.59569 9.10806 2.64592 6.97679 3.70671C4.83522 4.77263 3.67245 6.12151 2.89594 7.37517C2.40287 8.17123 1.97015 9.40293 1.61431 10.9909C1.25847 12.5788 1.05944 14.514 1.00667 15.8335C0.928129 17.7973 1.554 19.4088 2.30639 21.0788C2.86195 22.3119 4.21224 23.7093 5.89344 25.3363C7.05636 26.4618 8.13703 27.0611 9.11484 27.538C10.0139 27.9766 11.7482 28.1062 14.4788 27.9127C15.9772 27.8065 17.6573 27.3321 19.0761 26.8747C20.4949 26.4173 21.5896 25.9012 22.9745 25.0763C26.0791 23.2271 27.8424 21.8522 27.9939 21.6138C28.1238 21.4094 26.1507 21.3297 23.6146 21.2867C22.2151 21.2629 21.4644 20.94 20.5138 20.465C18.9666 19.6919 17.796 18.6399 16.9192 17.7531C15.7525 16.5731 14.8814 14.7369 14.2029 12.9372C13.3951 10.7946 14.521 9.3925 15.3262 8.21442C15.9427 7.31234 16.7345 6.6506 17.312 5.9332C18.1296 4.91742 18.9962 3.82791 19.2985 3.15286C19.6887 2.28146 19.8526 1.78452 19.7531 1.39356C19.4545 1.26064 19.1002 1.21763 18.7994 1.13097C18.6479 1.08731 18.4986 1.04431 18.3448 1" stroke="#B42B0C" stroke-width="2" stroke-linecap="round"/>
</svg>
