<svg width="32" height="37" viewBox="0 0 32 37" fill="none" xmlns="http://www.w3.org/2000/svg">
<path d="M24.7702 17.1488C24.6108 17.0724 24.4489 16.9989 24.2849 16.9285C23.9993 11.6662 21.1239 8.65357 16.2958 8.62273C16.2739 8.6226 16.2522 8.6226 16.2303 8.6226C13.3424 8.6226 10.9406 9.85528 9.46236 12.0984L12.1177 13.9199C13.222 12.2444 14.9552 11.8872 16.2316 11.8872C16.2463 11.8872 16.2611 11.8872 16.2757 11.8873C17.8654 11.8974 19.065 12.3597 19.8414 13.261C20.4065 13.9173 20.7844 14.8241 20.9715 15.9685C19.562 15.729 18.0377 15.6553 16.4081 15.7488C11.8178 16.0132 8.86672 18.6904 9.06492 22.4104C9.1655 24.2974 10.1056 25.9208 11.7118 26.9813C13.0699 27.8778 14.8191 28.3162 16.637 28.2169C19.0377 28.0853 20.921 27.1694 22.2349 25.4945C23.2327 24.2227 23.8638 22.5744 24.1425 20.4976C25.2866 21.1881 26.1345 22.0967 26.6028 23.189C27.3991 25.0457 27.4455 28.0969 24.9559 30.5844C22.7747 32.7635 20.1527 33.7062 16.1901 33.7353C11.7946 33.7028 8.47026 32.2931 6.3089 29.5455C4.28497 26.9726 3.23898 23.2564 3.19996 18.5C3.23898 13.7435 4.28497 10.0273 6.3089 7.45448C8.47026 4.70688 11.7945 3.29724 16.19 3.26458C20.6175 3.29749 23.9997 4.71392 26.2438 7.47477C27.3442 8.82866 28.1738 10.5313 28.7207 12.5165L31.8323 11.6863C31.1694 9.24272 30.1263 7.13709 28.7068 5.39082C25.8299 1.85129 21.6223 0.0376067 16.2009 5.62743e-08L16.1792 5.61989e-08C10.7688 0.037476 6.60837 1.85806 3.81337 5.41111C1.3262 8.5729 0.0432437 12.9723 0.000134831 18.487L-6.42603e-08 18.5L0.000134831 18.513C0.0432437 24.0276 1.3262 28.4272 3.81337 31.5889C6.60837 35.1419 10.7688 36.9626 16.1792 37L16.2009 37C21.011 36.9667 24.4015 35.7073 27.1946 32.9167C30.8489 29.2658 30.7389 24.6896 29.5345 21.8803C28.6704 19.8657 27.0229 18.2295 24.7702 17.1488ZM16.4651 24.9571C14.4532 25.0704 12.3631 24.1674 12.26 22.2331C12.1836 20.799 13.2806 19.1988 16.5886 19.0081C16.9674 18.9863 17.3391 18.9756 17.7043 18.9756C18.9058 18.9756 20.0299 19.0923 21.0518 19.3157C20.6707 24.076 18.4349 24.849 16.4651 24.9571Z" fill="#B42B0C"/>
</svg>
