<svg width="48" height="56" viewBox="0 0 48 56" fill="none" xmlns="http://www.w3.org/2000/svg">
<path d="M37.3509 25.8587C37.1106 25.7435 36.8665 25.6326 36.6192 25.5265C36.1886 17.5915 31.8528 13.0487 24.5724 13.0022C24.5394 13.002 24.5066 13.002 24.4737 13.002C20.1191 13.002 16.4974 14.8608 14.2683 18.2431L18.2723 20.9898C19.9375 18.4633 22.5509 17.9247 24.4756 17.9247C24.4978 17.9247 24.5201 17.9247 24.5421 17.9249C26.9393 17.9402 28.7482 18.6371 29.9189 19.9963C30.7709 20.9858 31.3408 22.3533 31.6229 24.079C29.4976 23.7178 27.199 23.6067 24.7419 23.7476C17.82 24.1463 13.3701 28.1832 13.669 33.7927C13.8207 36.6381 15.2382 39.086 17.6603 40.6851C19.7082 42.0369 22.3457 42.698 25.0869 42.5483C28.7069 42.3499 31.5468 40.9687 33.528 38.4432C35.0326 36.5254 35.9843 34.04 36.4045 30.9084C38.1297 31.9495 39.4083 33.3196 40.1144 34.9667C41.3151 37.7665 41.3851 42.3673 37.6311 46.1182C34.3419 49.4041 30.3882 50.8257 24.4131 50.8695C17.785 50.8204 12.7723 48.6948 9.5132 44.5516C6.4613 40.672 4.88407 35.0684 4.82522 27.8962C4.88407 20.7239 6.4613 15.1202 9.5132 11.2406C12.7723 7.09751 17.7849 4.97191 24.413 4.92266C31.0891 4.97229 36.1892 7.10812 39.573 11.2712C41.2323 13.3127 42.4832 15.8801 43.3079 18.8736L48 17.6217C47.0004 13.9371 45.4274 10.762 43.287 8.12883C38.9489 2.79156 32.6042 0.0567071 24.4293 0H24.3966C16.2384 0.0565101 9.96477 2.80176 5.75018 8.15942C1.99978 12.9271 0.0652073 19.5609 0.000203409 27.8766L0 27.8962L0.000203409 27.9158C0.0652073 36.2313 1.99978 42.8654 5.75018 47.633C9.96477 52.9905 16.2384 55.736 24.3966 55.7923H24.4293C31.6825 55.7421 36.795 53.8431 41.0068 49.6351C46.5171 44.13 46.3512 37.2295 44.5351 32.9933C43.2321 29.9555 40.7479 27.4882 37.3509 25.8587ZM24.8277 37.6328C21.794 37.8037 18.6423 36.442 18.4869 33.5254C18.3717 31.3628 20.0259 28.9498 25.0139 28.6624C25.5851 28.6294 26.1457 28.6133 26.6963 28.6133C28.5081 28.6133 30.2031 28.7893 31.7441 29.1262C31.1693 36.3042 27.7979 37.4698 24.8277 37.6328Z" fill="#B42B0C"/>
</svg>
