<svg width="149" height="66" viewBox="0 0 149 66" fill="none" xmlns="http://www.w3.org/2000/svg">
<path d="M139.883 43C139.626 43 139.108 43.1285 138.331 43.5161C136.601 44.3788 136.253 46.4979 135.536 49.0259C134.334 53.2646 135.333 58.0434 136.761 60.3922C137.287 61.2582 138.707 61.6932 140.518 62.2775C142.739 62.994 144.939 62.0905 146.236 61.3134C148.093 60.201 147.931 57.4202 147.483 55.6654C146.645 55.2077 145.73 54.9467 144.31 54.7519C143.276 54.6857 141.605 54.6857 139.883 54.6857" stroke="#B42B0C" stroke-width="2" stroke-linecap="round"/>
<path d="M113 43C113.129 44.6711 113.257 46.3421 113.323 48.6812C113.39 51.0203 113.39 53.9768 113.39 57.0228" stroke="#B42B0C" stroke-width="2" stroke-linecap="round"/>
<path d="M113 43.3895C113 43.6466 115.571 48.021 120.302 55.2194C123.547 60.1575 126.24 61.5647 126.888 61.3758C127.151 60.9298 127.28 59.7729 127.346 56.9917C127.412 54.2105 127.412 49.84 127.412 45.3371" stroke="#B42B0C" stroke-width="2" stroke-linecap="round"/>
<path d="M98 43C98.3895 46.755 98.6466 49.6141 98.9076 52.7245C99.2034 56.2502 101.498 58.4407 103.058 59.6813C103.401 59.954 103.835 60.0066 104.227 59.88C106.236 59.2303 106.694 54.452 107.606 50.3542C107.738 48.8662 107.738 46.5525 107.545 45.232C107.352 43.9115 106.967 43.6544 106.57 43.3895" stroke="#B42B0C" stroke-width="2" stroke-linecap="round"/>
<path d="M81 42.8217C81.3856 44.8784 81.7713 46.9351 81.9699 49.6014C82.1686 52.2677 82.1686 55.4812 82.1686 58.7922" stroke="#B42B0C" stroke-width="2" stroke-linecap="round"/>
<path d="M81.3895 43.6008C82.1608 42.8256 84.755 41.7856 89.032 42.0388C90.2678 42.1119 91.2367 43.1957 91.8307 43.7858C92.6921 44.6415 92.6857 46.4443 92.4286 48.8418C92.1989 50.9842 90.4849 52.0379 89.3183 52.5559C87.5067 53.3604 86.0677 53.4674 85.869 54.0478C88.3932 56.5797 90.3447 57.8807 91.1218 58.3345C91.5132 58.5312 91.8989 58.6598 92.2962 58.7922" stroke="#B42B0C" stroke-width="2" stroke-linecap="round"/>
<path d="M62 40C62 44.1134 62.1285 49.1889 62.4518 54.5039C62.9037 58.5335 63.2971 60.8979 63.4919 62.1931C63.5581 62.8455 63.5581 63.4883 63.5581 64.1505" stroke="#B42B0C" stroke-width="2" stroke-linecap="round"/>
<path d="M72.5171 40.7791C72.5171 43.3616 73.2883 47.7749 74.009 50.7002C74.2037 54.1475 74.4647 57.5052 74.788 59.9241C74.8542 60.3799 74.8542 60.894 74.8542 61.4238" stroke="#B42B0C" stroke-width="2" stroke-linecap="round"/>
<path d="M62.3895 54.0229C62.9037 54.0229 65.868 54.0229 70.2151 53.9586C72.3769 53.7658 73.2923 53.7619 74.1979 53.9566C74.7179 54.0229 75.3607 54.0229 76.0228 54.0229" stroke="#B42B0C" stroke-width="2" stroke-linecap="round"/>
<path d="M43.0482 61.4483C42.9197 59.9019 42.9158 53.1826 44.7933 44.9189C45.5271 41.689 49.1404 39.7752 51.1562 39.0507C52.0048 38.7457 52.7824 39.8921 53.431 40.4744C54.9113 41.8036 55.3727 47.2619 55.9668 54.7368C56.031 56.1196 56.1596 56.6338 56.2258 57.4128C56.292 58.1919 56.292 59.2202 56.292 60.2797" stroke="#B42B0C" stroke-width="2" stroke-linecap="round"/>
<path d="M44.6063 54.8264H56.292" stroke="#B42B0C" stroke-width="2" stroke-linecap="round"/>
<path d="M32 40.3895V61.0343" stroke="#B42B0C" stroke-width="2" stroke-linecap="round"/>
<path d="M33.1686 40H37.4533" stroke="#B42B0C" stroke-width="2" stroke-linecap="round"/>
<path d="M33.1686 52.4648H37.0638" stroke="#B42B0C" stroke-width="2" stroke-linecap="round"/>
<path d="M13 43.8217C13.3856 45.8784 13.7713 47.9351 13.9699 50.6014C14.1686 53.2677 14.1686 56.4812 14.1686 59.7922" stroke="#B42B0C" stroke-width="2" stroke-linecap="round"/>
<path d="M13.3895 44.6008C14.1608 43.8256 16.755 42.7856 21.032 43.0388C22.2678 43.1119 23.2367 44.1957 23.8307 44.7858C24.6921 45.6415 24.6857 47.4443 24.4286 49.8418C24.1989 51.9842 22.4849 53.0379 21.3183 53.5559C19.5067 54.3604 18.0677 54.4674 17.869 55.0478C20.3932 57.5797 22.3447 58.8807 23.1218 59.3345C23.5132 59.5312 23.8989 59.6598 24.2962 59.7922" stroke="#B42B0C" stroke-width="2" stroke-linecap="round"/>
<path d="M6.61668 37C5.88341 37 4.40163 37.0915 3.52421 37.5752C3.13576 37.7894 3.01411 38.4749 2.80619 39.6011C2.46031 41.4746 2.64401 43.4608 2.43678 44.9135C2.34006 45.5915 2.18381 46.1374 2.11312 48.593C2.04242 51.0485 2.04242 55.3941 2.01955 57.8157C1.99322 60.6039 1.90381 61.7121 2.54421 62.5923C4.46539 62.2832 6.28817 61.7204 7.11916 61.5818C7.44698 61.5347 7.58421 61.5347 7.72559 61.3961" stroke="#B42B0C" stroke-width="2.10189" stroke-linecap="round"/>
<path d="M2.45825 50.8614C2.45825 50.9529 2.64122 51.0457 3.37588 51.1151C4.84241 51.1386 5.92221 51.0471 6.24449 50.9085C6.42954 50.8614 6.65825 50.8614 6.8939 50.8614" stroke="#B42B0C" stroke-width="2.10189" stroke-linecap="round"/>
<path d="M92.883 10C92.6259 10 92.1078 10.1285 91.3307 10.5161C89.6011 11.3788 89.2526 13.4979 88.5359 16.0259C87.3342 20.2646 88.3334 25.0434 89.761 27.3922C90.2873 28.2582 91.7066 28.6932 93.5179 29.2775C95.7391 29.994 97.939 29.0905 99.2361 28.3134C101.093 27.201 100.931 24.4202 100.483 22.6654C99.6451 22.2077 98.7297 21.9467 97.3099 21.7519C96.2757 21.6857 94.6047 21.6857 92.883 21.6857" stroke="#B42B0C" stroke-width="2" stroke-linecap="round"/>
<path d="M18 9C18 12.8563 18 16.1283 18.1928 18.5258C18.7713 20.5377 19.1686 22.4931 19.2971 24.244C19.4257 24.9666 19.6827 25.3522 19.9476 26.9181" stroke="#B42B0C" stroke-width="2" stroke-linecap="round"/>
<path d="M25 10C25.2571 11.5503 26.8074 16.4583 27.7247 20.7002C28.2517 23.137 28.8952 25.1836 29.1523 26.4165C29.4094 26.8781 29.9236 27.0066 31.3453 27.0085C32.7671 27.0105 35.0809 26.8819 37.4648 26.7495" stroke="#B42B0C" stroke-width="2" stroke-linecap="round"/>
<path d="M68 11C68.1285 12.6711 68.2571 14.3421 68.3233 16.6812C68.3895 19.0203 68.3895 21.9768 68.3895 25.0228" stroke="#B42B0C" stroke-width="2" stroke-linecap="round"/>
<path d="M68 11.3895C68 11.6466 70.5709 16.0209 75.3016 23.2193C78.5469 28.1575 81.2399 29.5647 81.8885 29.3758C82.1514 28.9298 82.2799 27.7729 82.3461 24.9917C82.4124 22.2105 82.4124 17.84 82.4124 13.3371" stroke="#B42B0C" stroke-width="2" stroke-linecap="round"/>
<path d="M54 12C54.3895 15.755 54.6466 18.6141 54.9076 21.7245C55.2034 25.2502 57.4979 27.4407 59.058 28.6813C59.4009 28.954 59.8351 29.0066 60.2265 28.88C62.2356 28.2303 62.6942 23.452 63.6056 19.3542C63.7381 17.8662 63.7381 15.5525 63.5453 14.232C63.3525 12.9115 62.9668 12.6544 62.5695 12.3895" stroke="#B42B0C" stroke-width="2" stroke-linecap="round"/>
<path d="M40 5.13861C40 5.2301 40 5.32158 40.2058 6.74099C40.4117 8.16039 40.8234 10.9049 41.0583 15.4751C41.2933 20.0452 41.339 26.3576 41.3861 32.8614" stroke="#B42B0C" stroke-width="2.10189" stroke-linecap="round"/>
<path d="M40.9703 5C41.7992 5.50594 43.7288 6.79366 46.1607 9.97693C47.1722 11.3008 47.6183 13.3057 48.5414 15.2436C49.1851 16.5946 49.3787 17.6097 49.5401 19.3542C49.8698 22.915 49.6573 25.4663 49.5194 25.9959C49.1928 27.2495 48.827 27.8685 47.3757 29.3441C46.4391 30.2963 45.3173 30.7351 44.6921 30.943C44.0212 31.2438 43.5596 31.6111 42.9366 32.0512C42.7737 32.1669 42.6365 32.3042 42.3565 32.4456" stroke="#B42B0C" stroke-width="2.10189" stroke-linecap="round"/>
<path d="M1.16443 7C1.38305 9.02516 1.49319 10.7676 1.76606 11.9561C2.03358 13.1212 2.53207 15.4261 2.67097 18.0324C2.80823 19.9745 2.75399 22.4501 2.6718 23.7002C2.64385 24.7876 2.64385 26.7947 2.64385 28.8626" stroke="#B42B0C" stroke-width="2" stroke-linecap="round"/>
<path d="M1 7C1.21698 7 3.93254 7 7.98616 7.08137C9.43798 7.11051 9.65297 7.32547 9.87324 7.49067C10.8668 8.23582 11.2442 9.95227 11.3017 11.5418C11.3281 12.2715 10.9187 12.8602 10.7001 13.3525C10.1356 14.6235 7.96315 15.3275 6.9218 15.9563C6.02173 16.4997 5.27717 16.6425 4.1824 16.9984C3.90816 17.0876 3.68926 17.1357 3.7131 17.1636C4.22949 17.7691 5.70456 17.4644 8.00506 18.4474C9.65383 19.1519 10.1494 20.9131 10.4782 22.252C10.9125 24.0208 10.3713 25.4632 10.0434 25.8733C9.47344 26.5861 8.62067 26.9426 7.90643 27.2179C7.24119 27.4744 6.48372 27.8204 5.60593 28.0398C5.16868 28.1492 4.78239 28.2593 4.4002 28.3415C4.18076 28.3694 3.90953 28.3694 3.63008 28.5338" stroke="#B42B0C" stroke-width="2" stroke-linecap="round"/>
<path d="M136.9 31.3546C136.013 31.0603 134.233 29.5799 132.448 28.0906C129.98 26.0327 128 20.9738 125.166 16.5794C123.756 14.3929 122.782 12.1894 122.114 9.81267C121.651 8.16874 121.293 6.39253 121.44 4.83408C121.648 2.63268 124.406 1.78182 126.856 1.10849C127.648 0.890749 128.704 1.03269 129.455 1.25341C130.207 1.47414 130.648 1.91559 130.949 2.36373C131.25 2.81187 131.397 3.25332 131.326 3.77504C130.861 7.17602 126.207 9.64768 124.421 11.1348C122.734 12.5398 120.41 13.9552 118.624 14.9273C116.343 16.1693 114.462 18.8602 112.975 21.0162C111.784 22.7419 112.081 25.103 112.003 27.2589C111.931 29.2351 113.414 30.4583 113.857 31.2008C114.779 32.7432 117.271 32.5407 123.128 32.5452C126.138 32.5475 127.973 29.5799 129.462 27.794C131.347 25.5335 132.441 22.4542 132.885 19.7699C133.034 19.1723 133.181 18.5837 133.257 18.0598C133.333 17.5358 133.333 17.0944 133.333 16.6396" stroke="#B42B0C" stroke-width="2" stroke-linecap="round"/>
</svg>
