<svg width="57" height="57" viewBox="0 0 57 57" fill="none" xmlns="http://www.w3.org/2000/svg">
<path d="M20.4894 56.4375C25.6956 56.4375 29.8956 52.2375 29.8956 47.0312V37.625H20.4894C15.2831 37.625 11.0831 41.825 11.0831 47.0312C11.0831 52.2375 15.2831 56.4375 20.4894 56.4375ZM11.0831 28.2188C11.0831 23.0125 15.2831 18.8125 20.4894 18.8125H29.8956V37.625H20.4894C15.2831 37.625 11.0831 33.425 11.0831 28.2188ZM11.0831 9.40625C11.0831 4.2 15.2831 0 20.4894 0H29.8956V18.8125H20.4894C15.2831 18.8125 11.0831 14.6125 11.0831 9.40625ZM29.8956 0H39.3019C44.5081 0 48.7081 4.2 48.7081 9.40625C48.7081 14.6125 44.5081 18.8125 39.3019 18.8125H29.8956V0ZM48.7081 28.2188C48.7081 33.425 44.5081 37.625 39.3019 37.625C34.0956 37.625 29.8956 33.425 29.8956 28.2188C29.8956 23.0125 34.0956 18.8125 39.3019 18.8125C44.5081 18.8125 48.7081 23.0125 48.7081 28.2188Z" fill="#B42B0C"/>
</svg>
