<svg width="14" height="24" viewBox="0 0 14 24" fill="none" xmlns="http://www.w3.org/2000/svg">
<path d="M1 5.98794C1.07637 5.57843 3.79918 4.20565 4.84 2.98581C5.98789 1.64049 8.69317 0.760442 9.47989 1.05787C10.8022 1.5578 11.4765 2.13789 12.04 3.48617C12.7898 5.28012 11.0471 8.56935 10.1828 9.35321C9.47989 9.99078 9.08416 10.5147 7.96813 11.0924C6.9631 11.6126 4.74038 11.5497 3.29921 11.6527C2.91482 11.6801 4.05422 11.6738 6.30826 11.7352C7.6943 11.773 8.57619 12.2508 9.47989 12.6429C10.4714 13.0732 11.278 13.4086 11.7206 13.9447C12.7214 15.1569 12.8586 17.0445 12.9969 19.8124C13.0305 20.4838 12.7857 20.9771 12.4976 21.6379C12.2376 22.2343 11.4759 22.8147 10.3361 22.9792C9.7158 23.0687 8.96845 22.8422 8.56404 22.8217C7.88075 22.7871 6.54547 21.5665 5.43985 20.673C4.86855 20.2113 4.03455 19.4544 3.31772 18.9965C3.06721 18.8315 2.87282 18.6243 2.71892 18.3767C2.56503 18.1291 1.55868 17.6227 1.48 17.4961" stroke="#C3CE72" stroke-width="1.47281" stroke-linecap="round"/>
</svg>
