<svg width="55" height="55" viewBox="0 0 55 55" fill="none" xmlns="http://www.w3.org/2000/svg">
<path d="M8.30633 12.1298L11.7389 50.2966L27.1421 54.4062L42.5881 50.3743L46.0245 12.1298H8.30633ZM38.8847 20.8188L38.6695 23.2951L38.5748 24.439H20.5061L20.9378 29.5325H38.1453L38.0302 30.4795L36.9203 42.7501L36.8388 43.4675L27.1654 46.0711V46.069L27.1539 46.0741L17.4861 43.563L16.8299 36.3239H21.5702L21.9059 39.9148L27.1629 41.2471L27.1654 41.1478V41.1529L32.4338 40.0285L32.9839 34.2016H16.6189L15.4584 21.113L15.3451 19.77H38.9976L38.8847 20.8188V20.8188ZM11.8663 1.36002H14.2526V3.7183H16.436V1.36002H18.8227V8.50024H16.436V6.10927H14.253V8.50024H11.8663V1.36002ZM21.9607 3.72806H19.8596V1.36002H26.4493V3.72806H24.3474V8.50024H21.9607V3.72806V3.72806ZM27.4952 1.36002H29.9834L31.5144 3.86898L33.0437 1.36002H35.5332V8.50024H33.1558V4.96111L31.5144 7.49979H31.4728L29.8301 4.96111V8.50024H27.4948V1.36002H27.4952ZM36.7212 1.36002H39.1084V6.14026H42.4645V8.50067H36.7212V1.36002V1.36002Z" fill="#B42B0C"/>
</svg>
