<svg width="55" height="55" viewBox="0 0 55 55" fill="none" xmlns="http://www.w3.org/2000/svg">
<path d="M1.17944 1.0939V54.1511H54.2366V1.0939H1.17944ZM29.2442 46.3041C28.461 47.8954 26.9661 48.9409 25.2339 49.4456C22.5721 50.0568 20.0262 49.7083 18.1323 48.5716C16.8648 47.794 15.875 46.597 15.2031 45.218L19.2439 42.7434C19.2792 42.7582 19.3853 42.9501 19.527 43.198C20.0423 44.0613 20.4867 44.6725 21.3603 45.1017C22.2185 45.3945 24.1027 45.5817 24.8302 44.0715C25.2746 43.3032 25.1333 40.8337 25.1333 38.1015C25.1329 33.8081 25.1528 29.5326 25.1528 25.288H30.1228C30.1228 29.957 30.1482 34.379 30.1228 38.9351C30.1334 41.7281 30.3758 44.2179 29.2442 46.3041ZM49.8618 44.9C48.1342 50.8093 38.5024 51.0012 34.6534 47.097C33.8402 46.1781 33.3304 45.698 32.8452 44.6373C34.8907 43.4607 34.8907 43.4607 36.881 42.3092C37.9621 43.9709 38.9617 44.8848 40.7601 45.2587C43.1999 45.5567 45.6545 44.7184 45.104 42.1271C44.5382 40.0107 40.1081 39.4958 37.0932 37.2326C34.0325 35.177 33.3151 30.182 35.8305 27.3279C36.6688 26.2723 38.0983 25.4845 39.5984 25.1059L41.1638 24.9034C44.1693 24.8427 46.048 25.6365 47.4271 27.1764C47.8108 27.5652 48.124 27.9846 48.7098 28.8933C47.1087 29.9137 47.1138 29.904 44.8205 31.3887C44.3306 30.3335 43.5178 29.6714 42.6587 29.3836C41.3251 28.9795 39.6434 29.4188 39.2945 30.828C39.1735 31.2622 39.1985 31.6663 39.3908 32.3836C39.9311 33.6158 41.7444 34.1515 43.3709 34.899C48.0531 36.798 49.6342 38.8341 50.023 41.2578C50.3974 43.3444 49.9326 44.698 49.8618 44.9V44.9Z" fill="#B42B0C"/>
</svg>
