<svg width="168" height="30" viewBox="0 0 168 30" fill="none" xmlns="http://www.w3.org/2000/svg">
<path d="M165.617 2C164.883 2 163.402 2.09149 162.524 2.57525C162.136 2.78941 162.014 3.47485 161.806 4.60109C161.46 6.4746 161.644 8.46079 161.437 9.91347C161.34 10.5915 161.184 11.1374 161.113 13.593C161.042 16.0485 161.042 20.3941 161.02 22.8157C160.993 25.6039 160.904 26.7121 161.544 27.5923C163.465 27.2832 165.288 26.7204 166.119 26.5818C166.447 26.5347 166.584 26.5347 166.726 26.3961" stroke="#B42B0C" stroke-width="2.10189" stroke-linecap="round"/>
<path d="M161.458 15.8614C161.458 15.9529 161.641 16.0457 162.376 16.1151C163.842 16.1386 164.922 16.0471 165.244 15.9085C165.43 15.8614 165.658 15.8614 165.894 15.8614" stroke="#B42B0C" stroke-width="2.10189" stroke-linecap="round"/>
<path d="M151.448 10.0404C150.95 9.87259 149.62 10.2057 147.864 11.4542C146.313 12.5572 145.027 14.9592 144.27 17.8732C143.644 20.2854 144.268 22.0594 144.517 22.683C145.185 24.354 146.434 24.7317 147.437 25.2739C149.283 26.2717 153.191 25.2376 154.948 24.2371C155.368 23.9027 155.781 23.4895 156.035 23.1526C156.289 22.8158 156.372 22.5678 156.457 22.3124" stroke="#B42B0C" stroke-width="2" stroke-linecap="round"/>
<path d="M137 8C137 11.8563 137 15.1283 137.193 17.5258C137.771 19.5377 138.169 21.4931 138.297 23.244C138.426 23.9666 138.683 24.3522 138.948 25.9181" stroke="#B42B0C" stroke-width="2" stroke-linecap="round"/>
<path d="M129.285 5.38953C129.799 9.50289 130.064 15.4782 130 21.5138C129.935 23.6932 129.807 24.0789 129.741 24.5346C129.674 24.9903 129.674 25.5045 129.674 26.0343" stroke="#B42B0C" stroke-width="2" stroke-linecap="round"/>
<path d="M125 5C125.257 5.12854 125.514 5.25709 126.418 5.3233C127.322 5.38952 128.864 5.38952 129.852 5.45379C130.839 5.51807 131.225 5.64661 132.401 5.77905" stroke="#B42B0C" stroke-width="2" stroke-linecap="round"/>
<path d="M113.118 11.2369C116.581 9.02834 120.71 8 123.172 8C123.958 8.6544 124.344 8.91148 124.736 9.17247C125.898 12.7288 125.376 19.1715 124.27 21.2516C122.907 23.1992 119.809 27.7105 115.371 26.9542C114.594 26.8218 114.165 26.5985 113.817 26.105C113.04 25.0027 111.871 23.6782 111.613 22.0774C111.096 18.8833 110.006 13.2221 113.118 11.2369Z" stroke="#B42B0C" stroke-width="2" stroke-linecap="round"/>
<path d="M92 9C92.1285 10.6711 92.2571 12.3421 92.3233 14.6812C92.3895 17.0203 92.3895 19.9768 92.3895 23.0228" stroke="#B42B0C" stroke-width="2" stroke-linecap="round"/>
<path d="M92 9.38951C92 9.6466 94.5709 14.0209 99.3016 21.2193C102.547 26.1575 105.24 27.5647 105.888 27.3758C106.151 26.9298 106.28 25.7729 106.346 22.9917C106.412 20.2105 106.412 15.84 106.412 11.3371" stroke="#B42B0C" stroke-width="2" stroke-linecap="round"/>
<path d="M65 7C65.2571 8.5503 66.8074 13.4583 67.7247 17.7002C68.2517 20.137 68.8952 22.1836 69.1523 23.4165C69.4094 23.8781 69.9236 24.0066 71.3453 24.0085C72.7671 24.0105 75.0809 23.8819 77.4648 23.7495" stroke="#B42B0C" stroke-width="2" stroke-linecap="round"/>
<path d="M47.0482 28.4483C46.9197 26.9019 46.9158 20.1826 48.7933 11.9189C49.5271 8.68896 53.1404 6.77523 55.1562 6.05071C56.0048 5.7457 56.7824 6.89208 57.431 7.47442C58.9113 8.80359 59.3727 14.2619 59.9668 21.7368C60.031 23.1196 60.1596 23.6338 60.2258 24.4128C60.292 25.1919 60.292 26.2202 60.292 27.2797" stroke="#B42B0C" stroke-width="2" stroke-linecap="round"/>
<path d="M48.6063 21.8264H60.292" stroke="#B42B0C" stroke-width="2" stroke-linecap="round"/>
<path d="M32.883 7C32.6259 7 32.1078 7.12854 31.3307 7.51612C29.6011 8.37876 29.2526 10.4979 28.5359 13.0259C27.3342 17.2646 28.3334 22.0434 29.761 24.3922C30.2873 25.2582 31.7066 25.6932 33.5179 26.2775C35.7391 26.994 37.939 26.0905 39.2361 25.3134C41.093 24.201 40.9306 21.4202 40.4826 19.6654C39.6451 19.2077 38.7297 18.9467 37.3099 18.7519C36.2757 18.6857 34.6047 18.6857 32.883 18.6857" stroke="#B42B0C" stroke-width="2" stroke-linecap="round"/>
<path d="M22.6167 3C21.8834 3 20.4016 3.09149 19.5242 3.57525C19.1358 3.78941 19.0141 4.47485 18.8062 5.60109C18.4603 7.4746 18.644 9.46079 18.4368 10.9135C18.3401 11.5915 18.1838 12.1374 18.1131 14.593C18.0424 17.0485 18.0424 21.3941 18.0196 23.8157C17.9932 26.6039 17.9038 27.7121 18.5442 28.5923C20.4654 28.2832 22.2882 27.7204 23.1192 27.5818C23.447 27.5347 23.5842 27.5347 23.7256 27.3961" stroke="#B42B0C" stroke-width="2.10189" stroke-linecap="round"/>
<path d="M18.4583 16.8614C18.4583 16.9529 18.6412 17.0457 19.3759 17.1151C20.8424 17.1386 21.9222 17.0471 22.2445 16.9085C22.4295 16.8614 22.6583 16.8614 22.8939 16.8614" stroke="#B42B0C" stroke-width="2.10189" stroke-linecap="round"/>
<path d="M1 7C1.25709 8.5503 2.80739 13.4583 3.72472 17.7002C4.25167 20.137 4.89523 22.1836 5.15232 23.4165C5.40941 23.8781 5.92358 24.0066 7.34534 24.0085C8.7671 24.0105 11.0809 23.8819 13.4648 23.7495" stroke="#B42B0C" stroke-width="2" stroke-linecap="round"/>
</svg>
