<svg width="125" height="29" viewBox="0 0 125 29" fill="none" xmlns="http://www.w3.org/2000/svg">
<path d="M110 5.21265C110.08 9.2507 110.243 10.8635 110.645 13.6877C110.728 15.8595 110.888 17.4165 111.13 19.2622C111.213 20.7877 111.213 23.5088 111.213 26.3124" stroke="#B42B0C" stroke-width="2" stroke-linecap="round"/>
<path d="M110.485 4C110.968 5.77286 111.775 7.39051 112.825 8.96572C113.23 9.57324 113.796 10.2208 114.482 10.7071C115.631 11.5211 116.301 7.48267 117.071 6.2276C117.43 5.64225 118.001 5.29509 118.445 5.17261C119.609 4.85147 119.774 11.0769 120.629 14.3813C121.021 15.8961 121.399 17.3292 121.801 18.828C122.486 21.3778 122.529 23.0722 122.853 24.126C123.014 24.6098 123.176 25.1774 123.338 25.7825C123.419 26.0674 123.499 26.3075 123.582 26.7974" stroke="#B42B0C" stroke-width="2" stroke-linecap="round"/>
<path d="M95 9C95.3895 12.755 95.6466 15.6141 95.9076 18.7245C96.2034 22.2502 98.4979 24.4407 100.058 25.6813C100.401 25.954 100.835 26.0066 101.227 25.88C103.236 25.2303 103.694 20.452 104.606 16.3542C104.738 14.8662 104.738 12.5525 104.545 11.232C104.352 9.91148 103.967 9.6544 103.57 9.38952" stroke="#B42B0C" stroke-width="2" stroke-linecap="round"/>
<path d="M76.0114 6.31073C75.7543 6.05364 74.7221 5.9212 73.166 6.04975C72.4994 6.10481 72.124 6.43537 71.861 6.95344C70.0876 10.4479 71.8513 16.2903 72.6323 18.3158C73.3098 20.0729 75.7388 22.0085 76.7242 23.8977C76.9372 24.306 76.7905 24.8676 76.5977 25.1968C76.0192 25.6545 74.0794 25.7869 71.4852 25.6584C70.4334 25.5298 69.9193 25.2727 69 24.6183" stroke="#B42B0C" stroke-width="2" stroke-linecap="round"/>
<path d="M89.0114 6.31073C88.7543 6.05364 87.7221 5.9212 86.166 6.04975C85.4994 6.10481 85.124 6.43537 84.861 6.95344C83.0876 10.4479 84.8513 16.2903 85.6323 18.3158C86.3098 20.0729 88.7388 22.0085 89.7242 23.8977C89.9372 24.306 89.7905 24.8676 89.5977 25.1968C89.0192 25.6545 87.0794 25.7869 84.4852 25.6584C83.4334 25.5298 82.9193 25.2727 82 24.6183" stroke="#B42B0C" stroke-width="2" stroke-linecap="round"/>
<path d="M62.6167 2C61.8834 2 60.4016 2.09149 59.5242 2.57525C59.1358 2.78941 59.0141 3.47485 58.8062 4.60109C58.4603 6.4746 58.644 8.46079 58.4368 9.91347C58.3401 10.5915 58.1838 11.1374 58.1131 13.593C58.0424 16.0485 58.0424 20.3941 58.0196 22.8157C57.9932 25.6039 57.9038 26.7121 58.5442 27.5923C60.4654 27.2832 62.2882 26.7204 63.1192 26.5818C63.447 26.5347 63.5842 26.5347 63.7256 26.3961" stroke="#B42B0C" stroke-width="2.10189" stroke-linecap="round"/>
<path d="M58.4583 15.8614C58.4583 15.9529 58.6412 16.0457 59.3759 16.1151C60.8424 16.1386 61.9222 16.0471 62.2445 15.9085C62.4295 15.8614 62.6583 15.8614 62.8939 15.8614" stroke="#B42B0C" stroke-width="2.10189" stroke-linecap="round"/>
<path d="M41 9.82173C41.3856 11.8784 41.7713 13.9351 41.9699 16.6014C42.1686 19.2677 42.1686 22.4812 42.1686 25.7922" stroke="#B42B0C" stroke-width="2" stroke-linecap="round"/>
<path d="M41.3895 10.6008C42.1608 9.82562 44.755 8.7856 49.032 9.03879C50.2678 9.11194 51.2367 10.1957 51.8307 10.7858C52.6921 11.6415 52.6857 13.4443 52.4286 15.8418C52.1989 17.9842 50.4849 19.0379 49.3183 19.5559C47.5067 20.3604 46.0677 20.4674 45.869 21.0478C48.3932 23.5797 50.3447 24.8807 51.1218 25.3345C51.5132 25.5312 51.8989 25.6598 52.2962 25.7922" stroke="#B42B0C" stroke-width="2" stroke-linecap="round"/>
<path d="M25 5C25.1285 5.25709 25.2571 5.51417 25.6447 7.18912C26.0322 8.86407 26.675 11.9491 27.0703 15.2094C27.4657 18.4697 27.5942 21.8118 27.7267 25.2552" stroke="#B42B0C" stroke-width="2" stroke-linecap="round"/>
<path d="M26.5581 5.77905C30.4494 5.65051 32.7749 5.64662 35.7022 6.48993C36.2999 6.66214 36.6779 6.81519 36.9409 7.20276C37.5596 8.11485 37.4648 9.53796 37.3362 10.7046C37.228 11.6865 36.3001 12.2685 35.523 12.7223C35.1315 12.919 34.7459 13.0476 33.3903 13.1138C32.0348 13.18 29.721 13.18 27.3372 13.18" stroke="#B42B0C" stroke-width="2" stroke-linecap="round"/>
<path d="M8 4.21265C8.08003 8.2507 8.24253 9.8635 8.64512 12.6877C8.72758 14.8595 8.88764 16.4165 9.13017 18.2622C9.21263 19.7877 9.21263 22.5088 9.21263 25.3124" stroke="#B42B0C" stroke-width="2" stroke-linecap="round"/>
<path d="M8.48511 3C8.96773 4.77286 9.77534 6.39051 10.8255 7.96572C11.2305 8.57324 11.7956 9.22079 12.4819 9.70705C13.6309 10.5211 14.3009 6.48267 15.0709 5.2276C15.43 4.64225 16.001 4.29509 16.4448 4.17261C17.6085 3.85147 17.7738 10.0769 18.6287 13.3813C19.0206 14.8961 19.3988 16.3292 19.8014 17.828C20.4862 20.3778 20.5289 22.0722 20.8527 23.126C21.014 23.6098 21.1765 24.1774 21.3378 24.7825C21.419 25.0674 21.499 25.3075 21.5815 25.7974" stroke="#B42B0C" stroke-width="2" stroke-linecap="round"/>
<path d="M1 5C1 8.85628 1 12.1283 1.19281 14.5258C1.77126 16.5377 2.16857 18.4931 2.29711 20.244C2.42566 20.9666 2.68274 21.3522 2.94762 22.9181" stroke="#B42B0C" stroke-width="2" stroke-linecap="round"/>
</svg>
