<svg width="26" height="31" viewBox="0 0 26 31" fill="none" xmlns="http://www.w3.org/2000/svg">
<path d="M16.0129 1.96139C15.1424 1.96139 13.7364 2.00492 11.8721 2.2232C10.0855 2.43239 8.32875 3.49533 6.46441 4.56895C4.59107 5.64776 3.57394 7.01296 2.89468 8.28179C2.46337 9.08747 2.08485 10.3341 1.77358 11.9412C1.46231 13.5483 1.28821 15.507 1.24204 16.8424C1.17334 18.83 1.72082 20.4609 2.37897 22.1512C2.86495 23.3992 4.04612 24.8135 5.51675 26.4602C6.53402 27.5992 7.47934 28.2058 8.33468 28.6885C9.12118 29.1324 10.6382 29.2636 13.0268 29.0677C14.3376 28.9603 15.8072 28.4801 17.0483 28.0172C18.2894 27.5542 19.247 27.0319 20.4584 26.197C23.1742 24.3255 24.7167 22.934 24.8492 22.6926C24.9628 22.4858 23.2368 22.4051 21.0183 22.3615C19.7942 22.3375 19.1375 22.0107 18.3059 21.53C16.9525 20.7475 15.9285 19.6828 15.1616 18.7852C14.141 17.5909 13.379 15.7325 12.7855 13.9111C12.0789 11.7426 13.0638 10.3235 13.7681 9.13119C14.3074 8.2182 15 7.54845 15.5051 6.82237C16.2204 5.79431 16.9784 4.69161 17.2428 4.0084C17.5842 3.12646 17.7276 2.6235 17.6405 2.22782C17.3794 2.09329 17.0694 2.04976 16.8063 1.96205C16.6737 1.91787 16.5431 1.87434 16.4086 1.8295" stroke="#B42B0C" stroke-width="2" stroke-linecap="round"/>
</svg>
