<svg width="31" height="31" viewBox="0 0 31 31" fill="none" xmlns="http://www.w3.org/2000/svg">
<path d="M16.5693 11.3564C15.6377 11.3564 14.3024 11.5329 13.5198 11.7568C12.9252 11.9269 12.3402 12.8214 11.8924 13.493C11.2358 14.478 11.8002 16.5212 12.1571 17.4348C12.4122 18.0878 12.9577 18.4834 13.759 18.8402C14.6608 19.2419 15.5855 19.2426 16.2545 19.3535C16.7792 19.4405 17.2363 19.288 17.5029 19.0882C18.1737 18.5856 18.3952 17.4648 18.5515 16.7945C18.7345 16.0102 18.7079 15.2808 18.8189 14.678C18.936 14.0414 18.5315 13.4977 18.1746 12.9624C17.8177 12.4271 17.5063 12.0702 17.2396 11.8704C17.1053 11.7588 16.973 11.6264 16.8366 11.4901" stroke="#B42B0C" stroke-width="2.11174" stroke-linecap="round"/>
<path d="M15.7673 2C15.8555 2 15.945 2.9704 15.9898 4.52891C15.9464 5.29347 15.945 5.60757 16.0119 6.00656C16.0346 6.27322 16.0346 6.6702 16.0346 7.07921" stroke="#B42B0C" stroke-width="2.11174" stroke-linecap="round"/>
<path d="M15.7673 23.2525C15.7673 24.1788 15.7673 25.105 15.7673 26.0013C15.7673 26.8975 15.7673 27.7355 15.7893 28.2334C15.8114 28.7313 15.8555 28.8637 15.9009 29" stroke="#B42B0C" stroke-width="2.11174" stroke-linecap="round"/>
<path d="M22.5841 15.099H28.9999" stroke="#B42B0C" stroke-width="2.11174" stroke-linecap="round"/>
<path d="M2 14.4307C2.26465 14.4307 2.52931 14.4307 3.41549 14.563C4.30168 14.6953 5.80139 14.96 7.74752 15.2327" stroke="#B42B0C" stroke-width="2.11174" stroke-linecap="round"/>
<path d="M6.9455 5.87624C7.25426 6.67153 8.23401 8.36772 8.70384 8.94849C8.81545 9.08282 8.94777 9.21515 9.06005 9.34948C9.17233 9.48381 9.26054 9.61614 9.35144 9.88614" stroke="#B42B0C" stroke-width="2.11174" stroke-linecap="round"/>
<path d="M20.4456 9.75248C20.7102 9.48782 21.3759 8.77807 22.244 7.8431C22.7152 7.34921 23.1603 6.90411 23.6942 6.39218C23.9195 6.18901 24.0518 6.10079 24.3218 6.0099" stroke="#B42B0C" stroke-width="2.11174" stroke-linecap="round"/>
<path d="M9.8861 21.6485C9.1309 22.4037 8.59491 23.1161 8.17253 23.6514C7.97204 23.9181 7.79293 24.1868 7.61516 24.4534C7.5256 24.5878 7.43738 24.7201 7.21283 24.9901" stroke="#B42B0C" stroke-width="2.11174" stroke-linecap="round"/>
<path d="M21.3811 20.8465C22.6162 21.5523 23.517 22.1364 23.9621 22.5367C24.2308 22.8488 24.4099 23.1175 24.5877 23.3841C24.6772 23.5185 24.7655 23.6508 25.1237 23.9208" stroke="#B42B0C" stroke-width="2.11174" stroke-linecap="round"/>
</svg>
