<svg width="54" height="54" viewBox="0 0 54 54" fill="none" xmlns="http://www.w3.org/2000/svg">
<path d="M49.3374 41.2624C46.4421 41.1835 44.2311 41.453 42.3406 42.25C41.8036 42.4765 40.9463 42.4828 40.8586 43.1557C41.1539 43.465 41.1999 43.9273 41.4344 44.3079C41.8859 45.0377 42.6478 46.0173 43.3278 46.5303C44.0712 47.0914 44.8369 47.6909 45.6334 48.1765C47.05 49.04 48.6316 49.5336 49.9956 50.3989C50.7997 50.9094 51.5983 51.5519 52.3825 52.1273C52.7707 52.4121 53.0309 52.8546 53.5351 53.0331V52.9512C53.2702 52.6137 53.2018 52.1505 52.9588 51.7983L51.8885 50.728C50.8423 49.3392 49.5138 48.1191 48.1018 47.1062C46.9758 46.2979 44.4559 45.206 43.9864 43.8961L43.9041 43.8139C44.7023 43.7236 45.6367 43.435 46.3738 43.2372C47.6115 42.9056 48.7177 42.9912 49.9956 42.6613L51.724 42.1673V41.8382C51.0781 41.1754 50.6174 40.2979 49.9133 39.698C48.0697 38.1287 46.0582 36.5606 43.9868 35.2527C42.8376 34.528 41.418 34.0567 40.2 33.4421C39.7904 33.2349 39.0707 33.1273 38.8003 32.7831C38.1603 31.968 37.8122 30.9344 37.3191 29.9848C36.2859 27.9948 35.2713 25.8217 34.3558 23.728C33.7314 22.3003 33.3235 20.893 32.5447 19.6121C28.8069 13.4667 24.7839 9.75799 18.5515 6.11215C17.2251 5.33674 15.6284 5.03088 13.9409 4.6301C13.0359 4.57568 12.1302 4.52041 11.2248 4.46515C10.6717 4.2348 10.0971 3.55854 9.57866 3.23032C7.51401 1.92588 2.21779 -0.911228 0.688913 2.81899C-0.276759 5.17348 2.13215 7.47016 2.99319 8.66365C3.59816 9.4998 4.3723 10.4385 4.8043 11.3797C5.08865 11.9986 5.13759 12.6191 5.38101 13.2735C5.9788 14.8859 6.49982 16.64 7.27396 18.1297C7.66504 18.884 8.09619 19.678 8.59105 20.3521C8.89396 20.766 9.41413 20.9482 9.49598 21.5869C8.98804 22.2982 8.95893 23.4027 8.67332 24.3038C7.3866 28.3602 7.87218 33.4024 9.74362 36.4045C10.3174 37.3267 11.6703 39.3032 13.5299 38.5446C15.1567 37.8823 14.7935 35.8286 15.2588 34.0171C15.3638 33.6066 15.2993 33.3045 15.5056 33.0295V33.1117L16.9876 36.075C18.0845 37.8414 20.0302 39.6871 21.6797 40.9324C22.5349 41.5783 23.2082 42.6946 24.3139 43.0726V42.9899H24.2316C24.0173 42.6562 23.6819 42.5179 23.4086 42.2495C22.7644 41.618 22.048 40.8329 21.5156 40.1094C20.0154 38.073 18.6899 35.8442 17.4821 33.5243C16.9049 32.4161 16.4033 31.1943 15.9173 30.0666C15.73 29.6321 15.7326 28.9744 15.3419 28.7495C14.8091 29.5756 14.0248 30.2438 13.6131 31.2192C12.9545 32.7784 12.8697 34.6803 12.6254 36.6521C12.4812 36.7036 12.5453 36.6681 12.4605 36.7339C11.3138 36.4576 10.9114 35.2776 10.4849 34.2647C9.40738 31.7039 9.20699 27.5814 10.1554 24.6337C10.4009 23.8706 11.5096 21.4692 11.0607 20.7643C10.8464 20.0614 10.1393 19.6548 9.74404 19.1177C9.25424 18.4537 8.76571 17.5796 8.4261 16.8126C7.54438 14.8167 7.13263 12.5753 6.20409 10.557C5.75985 9.5922 5.00934 8.61555 4.39298 7.7583C3.7108 6.80782 2.94637 6.10793 2.41734 4.95916C2.22918 4.55079 1.97394 3.89688 2.25238 3.47712C2.34098 3.19404 2.46669 3.07591 2.7464 2.98352C3.22396 2.61523 4.55371 3.10587 5.05068 3.31216C6.37073 3.8606 7.47266 4.38288 8.59105 5.12369C9.12726 5.47976 9.67063 6.16784 10.3195 6.35852H11.0603C12.2192 6.62473 13.5173 6.44079 14.6002 6.76985C16.5139 7.3512 18.2288 8.25612 19.7859 9.23951C24.5303 12.2357 28.4099 16.5 31.0635 21.5874C31.4904 22.4066 31.6752 23.188 32.0511 24.057C32.8096 25.8091 33.7652 27.6117 34.5199 29.3254C35.2734 31.0348 36.0074 32.7599 37.0723 34.1824C37.6321 34.93 39.7938 35.3312 40.7767 35.7468C41.4652 36.0374 42.5938 36.3412 43.2464 36.7339C44.4922 37.4857 45.6996 38.3805 46.8686 39.204C47.4521 39.6154 49.248 40.5186 49.3374 41.2624V41.2624ZM12.5419 9.89974C11.9382 9.88835 11.5113 9.96555 11.0599 10.0639V10.1461H11.1421C11.4303 10.7376 11.9386 11.119 12.2943 11.6282C12.5685 12.2049 12.8431 12.7807 13.1178 13.3566L13.1996 13.2752C13.7097 12.9153 13.943 12.3411 13.94 11.4636C13.7358 11.2489 13.7059 10.9797 13.5287 10.7232C13.2941 10.3811 12.8389 10.1866 12.5419 9.89974Z" fill="#B42B0C"/>
</svg>
