<svg width="55" height="55" viewBox="0 0 55 55" fill="none" xmlns="http://www.w3.org/2000/svg">
<path d="M49.124 34.6968C48.9994 34.6968 48.8757 34.6642 48.7665 34.6006L47.6279 33.9268C47.4577 33.8319 47.5406 33.7979 47.5969 33.7786C47.8238 33.6995 47.8698 33.681 48.1117 33.5444C48.137 33.5302 48.1701 33.5354 48.1963 33.5508L49.0707 34.0703C49.087 34.079 49.1052 34.0836 49.1236 34.0836C49.142 34.0836 49.1602 34.079 49.1764 34.0703L52.5869 32.1019C52.6029 32.0925 52.6162 32.079 52.6254 32.0627C52.6346 32.0465 52.6394 32.0282 52.6393 32.0096V28.0736C52.6393 28.0547 52.6345 28.0361 52.6252 28.0196C52.616 28.0032 52.6026 27.9893 52.5865 27.9795L49.1773 26.0128C49.1612 26.004 49.1431 25.9993 49.1247 25.9993C49.1063 25.9993 49.0882 26.004 49.072 26.0128L45.6633 27.9799C45.6472 27.9897 45.6337 28.0034 45.6243 28.0198C45.615 28.0362 45.6099 28.0547 45.6096 28.0736V32.0096C45.6096 32.0474 45.6307 32.083 45.6633 32.1007L46.5975 32.6408C47.1045 32.8939 47.4152 32.5957 47.4152 32.2957V28.4092C47.4152 28.3546 47.4594 28.3112 47.514 28.3112H47.9467C48.0004 28.3112 48.0451 28.3546 48.0451 28.4092V32.2957C48.0451 32.9721 47.6768 33.3601 47.0353 33.3601C46.8381 33.3601 46.683 33.3601 46.2498 33.1469L45.3557 32.6322C45.2469 32.5688 45.1566 32.478 45.0939 32.3688C45.0312 32.2596 44.9982 32.1359 44.9982 32.01V28.0741C44.9982 27.8184 45.1344 27.5799 45.3557 27.4527L48.7661 25.4817C48.876 25.4219 48.9991 25.3906 49.1242 25.3906C49.2494 25.3906 49.3725 25.4219 49.4824 25.4817L52.8928 27.4527C53.1137 27.5803 53.2507 27.8188 53.2507 28.0741V32.01C53.2505 32.1359 53.2174 32.2596 53.1546 32.3687C53.0918 32.4779 53.0016 32.5687 52.8928 32.6322L49.4824 34.601C49.3735 34.6642 49.2499 34.6972 49.124 34.6968ZM50.1781 31.9851C48.6849 31.9851 48.3725 31.2997 48.3725 30.7252C48.3726 30.6991 48.3831 30.6741 48.4016 30.6556C48.4201 30.6372 48.4452 30.6268 48.4713 30.6268H48.9122C48.9358 30.6267 48.9586 30.6351 48.9766 30.6504C48.9946 30.6657 49.0065 30.6869 49.0102 30.7102C49.0763 31.1592 49.2753 31.3857 50.1781 31.3857C50.8961 31.3857 51.202 31.2232 51.202 30.8417C51.202 30.6217 51.1152 30.4588 49.9989 30.3492C49.0656 30.2569 48.4885 30.051 48.4885 29.3038C48.4885 28.6159 49.0686 28.2051 50.0406 28.2051C51.1332 28.2051 51.6738 28.5845 51.7421 29.3983C51.7432 29.412 51.7415 29.4258 51.737 29.4388C51.7326 29.4518 51.7255 29.4638 51.7163 29.474C51.707 29.4837 51.6958 29.4916 51.6834 29.4969C51.671 29.5023 51.6577 29.5052 51.6441 29.5053H51.2011C51.1788 29.5054 51.1571 29.4978 51.1397 29.4838C51.1222 29.4698 51.1101 29.4503 51.1053 29.4284C50.9988 28.9558 50.7409 28.805 50.0401 28.805C49.2559 28.805 49.1648 29.0787 49.1648 29.2828C49.1648 29.5307 49.2723 29.6029 50.3315 29.743C51.3795 29.8817 51.8775 30.0777 51.8775 30.8146C51.8779 31.5592 51.2583 31.9851 50.1781 31.9851" fill="#B42B0C"/>
<path d="M42.1016 29.4035C42.2361 29.3249 42.3191 29.1814 42.3191 29.0254V28.0139C42.3191 27.8584 42.2366 27.7148 42.1016 27.6362L38.5077 25.5496C38.4413 25.511 38.3658 25.4906 38.2889 25.4904C38.212 25.4903 38.1365 25.5104 38.0699 25.5488L34.4536 27.6366C34.3873 27.675 34.3322 27.7302 34.2939 27.7965C34.2556 27.8629 34.2354 27.9381 34.2354 28.0148V32.1896C34.2354 32.3464 34.3196 32.4917 34.4562 32.5694L38.0497 34.6169C38.182 34.693 38.3445 34.6934 38.4781 34.6195L40.6514 33.4112C40.6853 33.3924 40.7135 33.365 40.7333 33.3317C40.753 33.2984 40.7635 33.2605 40.7638 33.2218C40.7641 33.1831 40.754 33.1451 40.7347 33.1115C40.7155 33.078 40.6876 33.0502 40.654 33.0309L37.0154 30.9427C36.9821 30.9236 36.9543 30.8961 36.935 30.8629C36.9157 30.8297 36.9055 30.792 36.9054 30.7536V29.4448C36.9054 29.3666 36.9471 29.2948 37.0146 29.2561L38.1477 28.603C38.1807 28.5838 38.2183 28.5737 38.2566 28.5737C38.2948 28.5737 38.3324 28.5838 38.3655 28.603L39.4986 29.2561C39.5318 29.2752 39.5595 29.3026 39.5787 29.3357C39.5979 29.3689 39.6081 29.4065 39.6082 29.4448V30.4743C39.6079 30.5128 39.6179 30.5507 39.6371 30.584C39.6563 30.6174 39.6839 30.6451 39.7173 30.6643C39.7506 30.6836 39.7885 30.6936 39.827 30.6934C39.8655 30.6932 39.9033 30.6829 39.9364 30.6634L42.1016 29.4035" fill="#B42B0C"/>
<path d="M38.2353 29.2076C38.2481 29.2004 38.2625 29.1967 38.2772 29.1967C38.2919 29.1967 38.3063 29.2004 38.3191 29.2076L39.0131 29.6085C39.0388 29.6235 39.0547 29.6514 39.0547 29.6811V30.4824C39.0547 30.5125 39.0388 30.54 39.0131 30.5551L38.3191 30.9555C38.3064 30.9629 38.2919 30.9668 38.2772 30.9668C38.2625 30.9668 38.248 30.9629 38.2353 30.9555L37.5418 30.5551C37.529 30.5478 37.5183 30.5372 37.5109 30.5244C37.5035 30.5117 37.4997 30.4972 37.4997 30.4824V29.6811C37.4997 29.6514 37.5156 29.6235 37.5418 29.6085L38.2353 29.2076Z" fill="#B42B0C"/>
<path d="M28.8247 30.8748C28.8247 30.9134 28.8041 30.9495 28.7702 30.9693L27.5284 31.6852C27.5118 31.6949 27.493 31.7 27.4738 31.7C27.4546 31.7 27.4358 31.6949 27.4192 31.6852L26.1774 30.9693C26.1609 30.9597 26.1471 30.9459 26.1375 30.9293C26.128 30.9127 26.1229 30.8939 26.1228 30.8748V29.4405C26.1228 29.4018 26.1439 29.3653 26.1774 29.3455L27.4192 28.6288C27.4358 28.6189 27.4547 28.6136 27.474 28.6136C27.4933 28.6136 27.5122 28.6189 27.5288 28.6288L28.771 29.3455C28.7875 29.3553 28.8011 29.3692 28.8106 29.3859C28.8201 29.4025 28.8251 29.4213 28.8252 29.4405V30.8748H28.8247ZM29.1603 20.2546C29.127 20.2364 29.0896 20.2272 29.0516 20.2277C29.0137 20.2283 28.9766 20.2387 28.9438 20.258C28.9111 20.2772 28.8839 20.3045 28.8649 20.3374C28.846 20.3702 28.8358 20.4074 28.8355 20.4454V25.9948C28.8354 26.0216 28.8283 26.0478 28.815 26.071C28.8016 26.0942 28.7825 26.1136 28.7594 26.1271C28.7361 26.1404 28.7098 26.1474 28.6829 26.1474C28.6561 26.1474 28.6297 26.1404 28.6064 26.1271L27.7007 25.6051C27.6343 25.5669 27.5591 25.5468 27.4826 25.5468C27.4061 25.5468 27.3309 25.5669 27.2645 25.6051L23.6474 27.6925C23.581 27.7309 23.5258 27.786 23.4874 27.8525C23.449 27.9189 23.4288 27.9943 23.4287 28.0711V32.2472C23.4287 32.4032 23.5121 32.5471 23.647 32.6257L27.2641 34.7145C27.399 34.7927 27.5657 34.7927 27.7011 34.7145L31.3191 32.6257C31.3854 32.5873 31.4404 32.532 31.4787 32.4656C31.517 32.3992 31.5373 32.3239 31.5373 32.2472V21.8371C31.5373 21.679 31.4514 21.5329 31.3135 21.4556L29.1603 20.2546Z" fill="#B42B0C"/>
<path d="M16.4304 25.5265C16.4967 25.4881 16.572 25.4678 16.6487 25.4678C16.7253 25.4678 16.8006 25.4881 16.8669 25.5265L20.4841 27.6134C20.619 27.6917 20.7023 27.836 20.7023 27.992V32.1694C20.7023 32.3254 20.619 32.4698 20.4841 32.548L16.8674 34.6367C16.8009 34.6749 16.7256 34.695 16.6489 34.695C16.5722 34.695 16.4969 34.6749 16.4304 34.6367L12.8146 32.548C12.7482 32.5095 12.6932 32.4543 12.6549 32.3878C12.6166 32.3214 12.5964 32.2461 12.5963 32.1694V27.9916C12.5963 27.836 12.6796 27.6917 12.8146 27.6134L16.4304 25.5265" fill="#B42B0C"/>
<path d="M9.85274 27.9572C9.85274 27.7999 9.77024 27.6556 9.63446 27.5778L6.01864 25.4968C5.95791 25.4616 5.88942 25.442 5.81926 25.4397H5.78188C5.71173 25.442 5.64325 25.4617 5.5825 25.4968L1.96625 27.5778C1.89973 27.6163 1.8445 27.6716 1.80611 27.7382C1.76772 27.8048 1.74753 27.8803 1.74754 27.9572L1.75528 33.5603C1.75528 33.6385 1.7961 33.7111 1.86442 33.749C1.89713 33.7688 1.93466 33.7793 1.97291 33.7793C2.01117 33.7793 2.0487 33.7688 2.08141 33.749L4.22985 32.5183C4.36563 32.4376 4.44856 32.2953 4.44856 32.1394V29.5217C4.44856 29.3653 4.53106 29.2213 4.66641 29.1431L5.58164 28.6163C5.6478 28.5775 5.7232 28.5571 5.79993 28.5575C5.87469 28.5575 5.95118 28.5764 6.01778 28.6163L6.93215 29.1431C7.0675 29.2213 7.15086 29.3653 7.15086 29.5217V32.1394C7.15086 32.2953 7.23465 32.4384 7.36957 32.5183L9.51801 33.749C9.55114 33.7679 9.58866 33.7778 9.62681 33.7777C9.66497 33.7776 9.70243 33.7675 9.73548 33.7484C9.76852 33.7294 9.79598 33.7019 9.81512 33.6689C9.83426 33.6359 9.84442 33.5985 9.84457 33.5603L9.85274 27.9572" fill="#B42B0C"/>
</svg>
