<svg width="37" height="52" viewBox="0 0 37 52" fill="none" xmlns="http://www.w3.org/2000/svg">
<path d="M11.181 2.48061L13.2212 1.58388C14.5204 1.01286 16.0364 1.60312 16.6075 2.90227L20.3884 11.5044C20.9594 12.8035 20.3692 14.3196 19.07 14.8906L13.1072 17.5115C12.1129 17.9485 11.5099 18.9727 11.61 20.0542C12.1892 26.306 14.7804 32.2013 18.9947 36.8553C19.7238 37.6604 20.8861 37.9086 21.8804 37.4716L27.8432 34.8507C29.1424 34.2797 30.6584 34.8699 31.2295 36.1691L35.0104 44.7712C35.5814 46.0703 34.9912 47.5864 33.692 48.1574L31.6519 49.0542C24.6281 52.1414 16.403 49.5941 12.3535 43.0775L10.305 39.7809C7.34922 35.0244 5.08453 29.872 3.57883 24.4781L2.53526 20.7398C0.472382 13.35 4.15725 5.56783 11.181 2.48061Z" stroke="#B42B0C" stroke-width="2.56952"/>
</svg>
