<svg width="118" height="31" viewBox="0 0 118 31" fill="none" xmlns="http://www.w3.org/2000/svg">
<path d="M53 7C53.5142 7.25709 56.607 7.38952 60.8917 10.4745C68.495 15.9489 61.8344 26.2152 60.7983 26.41C60.2812 26.5072 59.7621 26.4762 59.2402 26.2191C58.204 25.4478 57.5457 24.5325 57.351 23.6911C57.2848 23.2353 57.2848 22.7212 57.2848 22.1914" stroke="#B42B0C" stroke-width="2" stroke-linecap="round"/>
<path d="M81 6C81.1285 7.16078 81.9037 11.5546 83.5261 17.0819C84.2447 21.4407 84.6343 24.0427 84.829 25.2717C84.8952 25.9864 84.8952 26.8862 84.8952 27.8133" stroke="#B42B0C" stroke-width="2" stroke-linecap="round"/>
<path d="M83.7267 19.2438C85.016 17.565 87.6141 15.2239 89.8208 13.214C90.3447 12.7543 90.7303 12.4973 91.1218 12.3006C91.5133 12.1038 91.8989 11.9753 92.2962 11.8429" stroke="#B42B0C" stroke-width="2" stroke-linecap="round"/>
<path d="M84.5057 18.0752C85.0199 18.9789 86.8351 20.537 89.2346 22.6112C90.7225 23.5208 91.9028 24.0466 92.8727 24.627C93.457 25.0789 94.2282 25.8501 95.0229 26.6447" stroke="#B42B0C" stroke-width="2" stroke-linecap="round"/>
<path d="M36.118 10.2369C39.5809 8.02834 43.7098 7 46.1716 7C46.9585 7.6544 47.3441 7.91148 47.7356 8.17247C48.8983 11.7288 48.3763 18.1715 47.2701 20.2516C45.9068 22.1992 42.8089 26.7105 38.3714 25.9542C37.5943 25.8218 37.1651 25.5985 36.8172 25.105C36.0401 24.0027 34.8712 22.6782 34.6125 21.0774C34.0964 17.8833 33.0056 12.2221 36.118 10.2369Z" stroke="#B42B0C" stroke-width="2" stroke-linecap="round"/>
<path d="M1 7C1.12854 7.25709 1.25709 7.51417 1.64466 9.18912C2.03224 10.8641 2.67495 13.9491 3.07032 17.2094C3.46568 20.4697 3.59423 23.8118 3.72666 27.2552" stroke="#B42B0C" stroke-width="2" stroke-linecap="round"/>
<path d="M2.55811 7.77905C6.44944 7.65051 8.7749 7.64662 11.7022 8.48993C12.2999 8.66214 12.6779 8.81519 12.9409 9.20276C13.5596 10.1148 13.4648 11.538 13.3362 12.7046C13.228 13.6865 12.3001 14.2685 11.523 14.7223C11.1315 14.919 10.7459 15.0476 9.39035 15.1138C8.0348 15.18 5.72104 15.18 3.33715 15.18" stroke="#B42B0C" stroke-width="2" stroke-linecap="round"/>
<path d="M18 10.8217C18.3856 12.8784 18.7713 14.9351 18.9699 17.6014C19.1686 20.2677 19.1686 23.4812 19.1686 26.7922" stroke="#B42B0C" stroke-width="2" stroke-linecap="round"/>
<path d="M18.3895 11.6008C19.1608 10.8256 21.755 9.7856 26.032 10.0388C27.2678 10.1119 28.2367 11.1957 28.8307 11.7858C29.6921 12.6415 29.6857 14.4443 29.4286 16.8418C29.1989 18.9842 27.4849 20.0379 26.3183 20.5559C24.5067 21.3604 23.0677 21.4674 22.869 22.0478C25.3932 24.5797 27.3447 25.8807 28.1218 26.3345C28.5132 26.5312 28.8989 26.6598 29.2962 26.7922" stroke="#B42B0C" stroke-width="2" stroke-linecap="round"/>
<path d="M101.285 8.38953C101.799 12.5029 102.064 18.4782 102 24.5138C101.935 26.6932 101.807 27.0789 101.741 27.5346C101.674 27.9903 101.674 28.5045 101.674 29.0343" stroke="#B42B0C" stroke-width="2" stroke-linecap="round"/>
<path d="M97 8C97.2571 8.12854 97.5142 8.25709 98.4179 8.3233C99.3216 8.38952 100.864 8.38952 101.852 8.45379C102.839 8.51807 103.225 8.64661 104.401 8.77905" stroke="#B42B0C" stroke-width="2" stroke-linecap="round"/>
<path d="M115.617 3C114.883 3 113.402 3.09149 112.524 3.57525C112.136 3.78941 112.014 4.47485 111.806 5.60109C111.46 7.4746 111.644 9.46079 111.437 10.9135C111.34 11.5915 111.184 12.1374 111.113 14.593C111.042 17.0485 111.042 21.3941 111.02 23.8157C110.993 26.6039 110.904 27.7121 111.544 28.5923C113.465 28.2832 115.288 27.7204 116.119 27.5818C116.447 27.5347 116.584 27.5347 116.726 27.3961" stroke="#B42B0C" stroke-width="2.10189" stroke-linecap="round"/>
<path d="M111.458 16.8614C111.458 16.9529 111.641 17.0457 112.376 17.1151C113.842 17.1386 114.922 17.0471 115.244 16.9085C115.43 16.8614 115.658 16.8614 115.894 16.8614" stroke="#B42B0C" stroke-width="2.10189" stroke-linecap="round"/>
<path d="M75.6167 2C74.8834 2 73.4016 2.09149 72.5242 2.57525C72.1358 2.78941 72.0141 3.47485 71.8062 4.60109C71.4603 6.4746 71.644 8.46079 71.4368 9.91347C71.3401 10.5915 71.1838 11.1374 71.1131 13.593C71.0424 16.0485 71.0424 20.3941 71.0196 22.8157C70.9932 25.6039 70.9038 26.7121 71.5442 27.5923C73.4654 27.2832 75.2882 26.7204 76.1192 26.5818C76.447 26.5347 76.5842 26.5347 76.7256 26.3961" stroke="#B42B0C" stroke-width="2.10189" stroke-linecap="round"/>
<path d="M71.4583 15.8614C71.4583 15.9529 71.6412 16.0457 72.3759 16.1151C73.8424 16.1386 74.9222 16.0471 75.2445 15.9085C75.4295 15.8614 75.6583 15.8614 75.8939 15.8614" stroke="#B42B0C" stroke-width="2.10189" stroke-linecap="round"/>
</svg>
