<svg width="120" height="29" viewBox="0 0 120 29" fill="none" xmlns="http://www.w3.org/2000/svg">
<path d="M54 6C54.5142 6.25709 57.607 6.38952 61.8917 9.47455C69.495 14.9489 62.8344 25.2152 61.7983 25.41C61.2812 25.5072 60.7621 25.4762 60.2402 25.2191C59.204 24.4478 58.5457 23.5325 58.351 22.6911C58.2848 22.2353 58.2848 21.7212 58.2848 21.1914" stroke="#B42B0C" stroke-width="2" stroke-linecap="round"/>
<path d="M38.118 11.2369C41.5809 9.02834 45.7098 8 48.1716 8C48.9585 8.6544 49.3441 8.91148 49.7356 9.17247C50.8983 12.7288 50.3763 19.1715 49.2701 21.2516C47.9068 23.1992 44.8089 27.7105 40.3714 26.9542C39.5943 26.8218 39.1651 26.5985 38.8172 26.105C38.0401 25.0027 36.8712 23.6782 36.6125 22.0774C36.0964 18.8833 35.0056 13.2221 38.118 11.2369Z" stroke="#B42B0C" stroke-width="2" stroke-linecap="round"/>
<path d="M1 6C1.12854 6.25709 1.25709 6.51417 1.64466 8.18912C2.03224 9.86407 2.67495 12.9491 3.07032 16.2094C3.46568 19.4697 3.59423 22.8118 3.72666 26.2552" stroke="#B42B0C" stroke-width="2" stroke-linecap="round"/>
<path d="M2.55811 6.77905C6.44944 6.65051 8.7749 6.64662 11.7022 7.48993C12.2999 7.66214 12.6779 7.81519 12.9409 8.20276C13.5596 9.11485 13.4648 10.538 13.3362 11.7046C13.228 12.6865 12.3001 13.2685 11.523 13.7223C11.1315 13.919 10.7459 14.0476 9.39035 14.1138C8.0348 14.18 5.72104 14.18 3.33715 14.18" stroke="#B42B0C" stroke-width="2" stroke-linecap="round"/>
<path d="M18 10.8217C18.3856 12.8784 18.7713 14.9351 18.9699 17.6014C19.1686 20.2677 19.1686 23.4812 19.1686 26.7922" stroke="#B42B0C" stroke-width="2" stroke-linecap="round"/>
<path d="M18.3895 11.6008C19.1608 10.8256 21.755 9.7856 26.032 10.0388C27.2678 10.1119 28.2367 11.1957 28.8307 11.7858C29.6921 12.6415 29.6857 14.4443 29.4286 16.8418C29.1989 18.9842 27.4849 20.0379 26.3183 20.5559C24.5067 21.3604 23.0677 21.4674 22.869 22.0478C25.3932 24.5797 27.3447 25.8807 28.1218 26.3345C28.5132 26.5312 28.8989 26.6598 29.2962 26.7922" stroke="#B42B0C" stroke-width="2" stroke-linecap="round"/>
<path d="M118.011 6.31073C117.754 6.05364 116.722 5.9212 115.166 6.04975C114.499 6.10481 114.124 6.43537 113.861 6.95344C112.088 10.4479 113.851 16.2903 114.632 18.3158C115.31 20.0729 117.739 22.0085 118.724 23.8977C118.937 24.306 118.79 24.8676 118.598 25.1968C118.019 25.6545 116.079 25.7869 113.485 25.6584C112.433 25.5298 111.919 25.2727 111 24.6183" stroke="#B42B0C" stroke-width="2" stroke-linecap="round"/>
<path d="M101.285 6.38953C101.799 10.5029 102.064 16.4782 102 22.5138C101.935 24.6932 101.807 25.0789 101.741 25.5346C101.674 25.9903 101.674 26.5045 101.674 27.0343" stroke="#B42B0C" stroke-width="2" stroke-linecap="round"/>
<path d="M97 6C97.2571 6.12854 97.5142 6.25709 98.4179 6.3233C99.3216 6.38952 100.864 6.38952 101.852 6.45379C102.839 6.51807 103.225 6.64661 104.401 6.77905" stroke="#B42B0C" stroke-width="2" stroke-linecap="round"/>
<path d="M76.6167 2C75.8834 2 74.4016 2.09149 73.5242 2.57525C73.1358 2.78941 73.0141 3.47485 72.8062 4.60109C72.4603 6.4746 72.644 8.46079 72.4368 9.91347C72.3401 10.5915 72.1838 11.1374 72.1131 13.593C72.0424 16.0485 72.0424 20.3941 72.0196 22.8157C71.9932 25.6039 71.9038 26.7121 72.5442 27.5923C74.4654 27.2832 76.2882 26.7204 77.1192 26.5818C77.447 26.5347 77.5842 26.5347 77.7256 26.3961" stroke="#B42B0C" stroke-width="2.10189" stroke-linecap="round"/>
<path d="M72.4583 15.8614C72.4583 15.9529 72.6412 16.0457 73.3759 16.1151C74.8424 16.1386 75.9222 16.0471 76.2445 15.9085C76.4295 15.8614 76.6583 15.8614 76.8939 15.8614" stroke="#B42B0C" stroke-width="2.10189" stroke-linecap="round"/>
<path d="M91.4483 8.04039C90.9499 7.87259 89.62 8.20569 87.8644 9.45417C86.3133 10.5572 85.0268 12.9592 84.2704 15.8732C83.6443 18.2854 84.2679 20.0594 84.5171 20.683C85.1849 22.354 86.4343 22.7317 87.4374 23.2739C89.2831 24.2717 93.1914 23.2376 94.9483 22.2371C95.3678 21.9027 95.7811 21.4895 96.0353 21.1526C96.2895 20.8158 96.3721 20.5678 96.4573 20.3124" stroke="#B42B0C" stroke-width="2" stroke-linecap="round"/>
</svg>
