<svg width="55" height="55" viewBox="0 0 55 55" fill="none" xmlns="http://www.w3.org/2000/svg">
<path d="M27.1653 32.0041C29.8377 32.0041 32.0041 29.8377 32.0041 27.1653C32.0041 24.4929 29.8377 22.3265 27.1653 22.3265C24.4929 22.3265 22.3265 24.4929 22.3265 27.1653C22.3265 29.8377 24.4929 32.0041 27.1653 32.0041Z" fill="#B42B0C"/>
<path d="M45.5443 19.1855C44.6105 18.8459 43.6342 18.5064 42.6155 18.2092C42.8702 17.1905 43.0824 16.1718 43.2522 15.1956C44.1436 9.59274 43.1673 5.64529 40.4508 4.11724C39.6443 3.65034 38.753 3.43811 37.7343 3.43811C34.7631 3.43811 30.9854 5.64529 27.1653 9.33807C23.3452 5.64529 19.5675 3.43811 16.5963 3.43811C15.5776 3.43811 14.6862 3.65034 13.8798 4.11724C11.1632 5.68774 10.187 9.63519 11.0783 15.1956C11.2481 16.1718 11.4604 17.1905 11.715 18.2092C10.6963 18.5064 9.72008 18.8035 8.78627 19.1855C3.48055 21.2229 0.594238 24.0243 0.594238 27.1653C0.594238 30.3063 3.523 33.1077 8.78627 35.1451C9.72008 35.4847 10.6963 35.8242 11.715 36.1213C11.4604 37.14 11.2481 38.1587 11.0783 39.135C10.187 44.7378 11.1632 48.6853 13.8798 50.2133C14.6862 50.6802 15.5776 50.8925 16.5963 50.8925C19.6099 50.8925 23.3876 48.6853 27.1653 44.9925C30.9854 48.6853 34.7631 50.8925 37.7343 50.8925C38.753 50.8925 39.6443 50.6802 40.4508 50.2133C43.1673 48.6428 44.1436 44.6954 43.2522 39.135C43.0824 38.1587 42.8702 37.14 42.6155 36.1213C43.6342 35.8242 44.6105 35.5271 45.5443 35.1451C50.85 33.1077 53.7363 30.3063 53.7363 27.1653C53.7363 24.0243 50.85 21.2229 45.5443 19.1855V19.1855ZM39.2623 6.23953C41.0026 7.25823 41.5968 10.3992 40.8753 14.856C40.7479 15.7474 40.5357 16.6812 40.281 17.6574C38.0738 17.1481 35.7393 16.8085 33.2775 16.5963C31.8343 14.5589 30.3487 12.7337 28.8631 11.0783C32.0041 7.97981 35.1875 5.85752 37.7767 5.85752C38.3285 5.85752 38.8379 5.98486 39.2623 6.23953V6.23953ZM34.5084 31.4099C33.7444 32.7681 32.853 34.1264 31.9192 35.4847C30.3487 35.612 28.7782 35.6544 27.1653 35.6544C25.5099 35.6544 23.9394 35.612 22.4114 35.4847C21.4776 34.1264 20.6286 32.7681 19.8646 31.4099C19.0581 30.0092 18.2941 28.566 17.615 27.1653C18.2941 25.7646 19.0581 24.3214 19.8646 22.9207C20.6286 21.5624 21.52 20.2042 22.4538 18.8459C24.0243 18.7186 25.5948 18.6761 27.2077 18.6761C28.8631 18.6761 30.4336 18.7186 31.9617 18.8459C32.8955 20.2042 33.7444 21.5624 34.5084 22.9207C35.3149 24.3214 36.0789 25.7646 36.758 27.1653C36.0364 28.566 35.3149 29.9667 34.5084 31.4099ZM38.0314 30.0092C38.6681 31.4948 39.1774 32.9379 39.6443 34.3811C38.2012 34.7206 36.6731 34.9753 35.0602 35.1875C35.5695 34.3811 36.1213 33.5322 36.5882 32.6408C37.0976 31.7494 37.5645 30.8581 38.0314 30.0092ZM27.1653 41.512C26.1466 40.4084 25.1703 39.2199 24.2365 37.989C25.2128 38.0314 26.189 38.0738 27.1653 38.0738C28.1415 38.0738 29.1178 38.0314 30.094 37.989C29.1602 39.2199 28.184 40.4084 27.1653 41.512ZM19.2704 35.1451C17.6574 34.9329 16.1294 34.6782 14.6862 34.3386C15.1531 32.9379 15.6625 31.4523 16.2992 29.9667C16.7661 30.8156 17.233 31.707 17.7423 32.5559C18.2517 33.4897 18.761 34.2962 19.2704 35.1451V35.1451ZM16.2992 24.3214C15.6625 22.8358 15.1531 21.3927 14.6862 19.9495C16.1294 19.6099 17.6574 19.3553 19.2704 19.143C18.761 19.9495 18.2092 20.7984 17.7423 21.6898C17.233 22.5811 16.7661 23.4725 16.2992 24.3214V24.3214ZM27.1653 12.8186C28.184 13.9222 29.1602 15.1107 30.094 16.3416C29.1178 16.2992 28.1415 16.2567 27.1653 16.2567C26.189 16.2567 25.2128 16.2992 24.2365 16.3416C25.1703 15.1107 26.1466 13.9222 27.1653 12.8186ZM36.5882 21.7322L35.0602 19.1855C36.6731 19.3977 38.2012 19.6524 39.6443 19.992C39.1774 21.3927 38.6681 22.8783 38.0314 24.3639C37.5645 23.4725 37.0976 22.5811 36.5882 21.7322ZM13.4553 14.856C12.7337 10.3992 13.328 7.25823 15.0682 6.23953C15.4927 5.98486 16.002 5.85752 16.5538 5.85752C19.1006 5.85752 22.284 7.93736 25.4675 11.0783C23.9819 12.6913 22.4962 14.5589 21.0531 16.5963C18.5912 16.8085 16.2567 17.1905 14.0495 17.6574C13.7949 16.6812 13.6251 15.7474 13.4553 14.856V14.856ZM2.9712 27.1653C2.9712 25.1703 5.39061 23.0481 9.63519 21.4776C10.4841 21.138 11.4179 20.8409 12.3517 20.5862C13.0308 22.7085 13.8798 24.9581 14.8985 27.2077C13.8798 29.4574 12.9884 31.6645 12.3517 33.7868C6.4942 32.089 2.9712 29.5423 2.9712 27.1653ZM15.0682 48.091C13.328 47.0724 12.7337 43.9314 13.4553 39.4746C13.5826 38.5832 13.7949 37.6494 14.0495 36.6731C16.2567 37.1825 18.5912 37.5221 21.0531 37.7343C22.4962 39.7717 23.9819 41.5968 25.4675 43.2522C22.3265 46.3508 19.143 48.4731 16.5538 48.4731C16.002 48.4731 15.4927 48.3457 15.0682 48.091ZM40.8753 39.4746C41.5968 43.9314 41.0026 47.0724 39.2623 48.091C38.8379 48.3457 38.3285 48.4731 37.7767 48.4731C35.23 48.4731 32.0465 46.3932 28.8631 43.2522C30.3487 41.6393 31.8343 39.7717 33.2775 37.7343C35.7393 37.5221 38.0738 37.14 40.281 36.6731C40.5357 37.6494 40.7055 38.5832 40.8753 39.4746V39.4746ZM44.6954 32.853C43.8465 33.1926 42.9127 33.4897 41.9789 33.7444C41.2997 31.6221 40.4508 29.3725 39.4321 27.1228C40.4508 24.8732 41.3422 22.666 41.9789 20.5438C47.8364 22.2416 51.3594 24.7883 51.3594 27.1653C51.3594 29.1602 48.8975 31.2825 44.6954 32.853Z" fill="#B42B0C"/>
</svg>
