<svg width="145" height="31" viewBox="0 0 145 31" fill="none" xmlns="http://www.w3.org/2000/svg">
<path d="M1 6.38953V27.0343" stroke="#B42B0C" stroke-width="2" stroke-linecap="round"/>
<path d="M2.16858 6H6.45334" stroke="#B42B0C" stroke-width="2" stroke-linecap="round"/>
<path d="M2.16858 18.4648H6.06381" stroke="#B42B0C" stroke-width="2" stroke-linecap="round"/>
<path d="M61.883 6C61.6259 6 61.1078 6.12854 60.3307 6.51612C58.6011 7.37876 58.2526 9.49792 57.5359 12.0259C56.3342 16.2646 57.3334 21.0434 58.761 23.3922C59.2873 24.2582 60.7066 24.6932 62.5179 25.2775C64.7391 25.994 66.939 25.0905 68.2361 24.3134C70.093 23.201 69.9306 20.4202 69.4826 18.6654C68.6451 18.2077 67.7297 17.9467 66.3099 17.7519C65.2757 17.6857 63.6047 17.6857 61.883 17.6857" stroke="#B42B0C" stroke-width="2" stroke-linecap="round"/>
<path d="M31 5C31 9.11337 31.1285 14.1889 31.4518 19.5039C31.9037 23.5335 32.2971 25.8979 32.4919 27.1931C32.5581 27.8455 32.5581 28.4883 32.5581 29.1505" stroke="#B42B0C" stroke-width="2" stroke-linecap="round"/>
<path d="M41.5171 5.77905C41.5171 8.36159 42.2883 12.7749 43.009 15.7002C43.2037 19.1475 43.4647 22.5052 43.788 24.9241C43.8542 25.3799 43.8542 25.894 43.8542 26.4238" stroke="#B42B0C" stroke-width="2" stroke-linecap="round"/>
<path d="M31.3895 19.0229C31.9037 19.0229 34.868 19.0229 39.2151 18.9586C41.3769 18.7658 42.2923 18.7619 43.1979 18.9566C43.7179 19.0229 44.3607 19.0229 45.0228 19.0229" stroke="#B42B0C" stroke-width="2" stroke-linecap="round"/>
<path d="M103 7C103 10.8563 103 14.1283 103.193 16.5258C103.771 18.5377 104.169 20.4931 104.297 22.244C104.426 22.9666 104.683 23.3522 104.948 24.9181" stroke="#B42B0C" stroke-width="2" stroke-linecap="round"/>
<path d="M50 8C50 11.8563 50 15.1283 50.1928 17.5258C50.7713 19.5377 51.1686 21.4931 51.2971 23.244C51.4257 23.9666 51.6827 24.3522 51.9476 25.9181" stroke="#B42B0C" stroke-width="2" stroke-linecap="round"/>
<path d="M73 5C73.1285 6.16078 73.9037 10.5546 75.5261 16.0819C76.2447 20.4407 76.6343 23.0427 76.829 24.2717C76.8952 24.9864 76.8952 25.8862 76.8952 26.8133" stroke="#B42B0C" stroke-width="2" stroke-linecap="round"/>
<path d="M75.7267 18.2438C77.016 16.565 79.6141 14.2239 81.8208 12.214C82.3447 11.7543 82.7303 11.4973 83.1218 11.3006C83.5133 11.1038 83.8989 10.9753 84.2962 10.8429" stroke="#B42B0C" stroke-width="2" stroke-linecap="round"/>
<path d="M76.5057 17.0752C77.0199 17.9789 78.8351 19.537 81.2346 21.6112C82.7225 22.5208 83.9028 23.0466 84.8727 23.627C85.457 24.0789 86.2282 24.8501 87.0229 25.6447" stroke="#B42B0C" stroke-width="2" stroke-linecap="round"/>
<path d="M129 9C129.129 10.6711 129.257 12.3421 129.323 14.6812C129.39 17.0203 129.39 19.9768 129.39 23.0228" stroke="#B42B0C" stroke-width="2" stroke-linecap="round"/>
<path d="M129 9.38951C129 9.6466 131.571 14.0209 136.302 21.2193C139.547 26.1575 142.24 27.5647 142.888 27.3758C143.151 26.9298 143.28 25.7729 143.346 22.9917C143.412 20.2105 143.412 15.84 143.412 11.3371" stroke="#B42B0C" stroke-width="2" stroke-linecap="round"/>
<path d="M111.285 6.38953C111.799 10.5029 112.064 16.4782 112 22.5138C111.935 24.6932 111.807 25.0789 111.741 25.5346C111.674 25.9903 111.674 26.5045 111.674 27.0343" stroke="#B42B0C" stroke-width="2" stroke-linecap="round"/>
<path d="M107 6C107.257 6.12854 107.514 6.25709 108.418 6.3233C109.322 6.38952 110.864 6.38952 111.852 6.45379C112.839 6.51807 113.225 6.64661 114.401 6.77905" stroke="#B42B0C" stroke-width="2" stroke-linecap="round"/>
<path d="M124.617 4C123.883 4 122.402 4.09149 121.524 4.57525C121.136 4.78941 121.014 5.47485 120.806 6.60109C120.46 8.4746 120.644 10.4608 120.437 11.9135C120.34 12.5915 120.184 13.1374 120.113 15.593C120.042 18.0485 120.042 22.3941 120.02 24.8157C119.993 27.6039 119.904 28.7121 120.544 29.5923C122.465 29.2832 124.288 28.7204 125.119 28.5818C125.447 28.5347 125.584 28.5347 125.726 28.3961" stroke="#B42B0C" stroke-width="2.10189" stroke-linecap="round"/>
<path d="M120.458 17.8614C120.458 17.9529 120.641 18.0457 121.376 18.1151C122.842 18.1386 123.922 18.0471 124.244 17.9085C124.43 17.8614 124.658 17.8614 124.894 17.8614" stroke="#B42B0C" stroke-width="2.10189" stroke-linecap="round"/>
<path d="M94.6167 2C93.8834 2 92.4016 2.09149 91.5242 2.57525C91.1358 2.78941 91.0141 3.47485 90.8062 4.60109C90.4603 6.4746 90.644 8.46079 90.4368 9.91347C90.3401 10.5915 90.1838 11.1374 90.1131 13.593C90.0424 16.0485 90.0424 20.3941 90.0196 22.8157C89.9932 25.6039 89.9038 26.7121 90.5442 27.5923C92.4654 27.2832 94.2882 26.7204 95.1192 26.5818C95.447 26.5347 95.5842 26.5347 95.7256 26.3961" stroke="#B42B0C" stroke-width="2.10189" stroke-linecap="round"/>
<path d="M90.4583 15.8614C90.4583 15.9529 90.6412 16.0457 91.3759 16.1151C92.8424 16.1386 93.9222 16.0471 94.2445 15.9085C94.4295 15.8614 94.6583 15.8614 94.8939 15.8614" stroke="#B42B0C" stroke-width="2.10189" stroke-linecap="round"/>
<path d="M10.0482 29.2738C9.91968 27.7274 9.91579 21.0081 11.7933 12.7443C12.5271 9.51442 16.1404 7.60068 18.1562 6.87617C19.0048 6.57115 19.7824 7.71754 20.431 8.29988C21.9113 9.62905 22.3727 15.0873 22.9668 22.5623C23.031 23.9451 23.1596 24.4593 23.2258 25.2383C23.292 26.0174 23.292 27.0457 23.292 28.1052" stroke="#B42B0C" stroke-width="2" stroke-linecap="round"/>
<path d="M11.6063 22.6519H23.292" stroke="#B42B0C" stroke-width="2" stroke-linecap="round"/>
<path d="M13.1136 4H13.5091" stroke="#B42B0C" stroke-width="2" stroke-linecap="round"/>
<path d="M24.292 4.79104V4.39551" stroke="#B42B0C" stroke-width="2" stroke-linecap="round"/>
</svg>
