<svg width="32" height="32" viewBox="0 0 32 32" fill="none" xmlns="http://www.w3.org/2000/svg">
<path d="M8.19939 5.80876C7.873 5.80876 7.21527 5.97196 6.22867 6.46402C4.03277 7.55922 3.59033 10.2497 2.68039 13.4592C1.15469 18.8406 2.42323 24.9077 4.2357 27.8897C4.90396 28.9892 6.7059 29.5414 9.00548 30.2832C11.8255 31.1929 14.6184 30.0459 16.2652 29.0593C18.6228 27.6469 18.4165 24.1164 17.8477 21.8885C16.7845 21.3074 15.6223 20.9761 13.8198 20.7288C12.5068 20.6448 10.3852 20.6448 8.19939 20.6448" stroke="#B42B0C" stroke-width="2.53917" stroke-linecap="round"/>
<path d="M28.7571 2C27.9353 2 26.2746 2.10253 25.2912 2.64472C24.8559 2.88474 24.7195 3.65296 24.4865 4.9152C24.0988 7.01497 24.3047 9.24101 24.0725 10.8691C23.9641 11.629 23.789 12.2409 23.7097 14.993C23.6305 17.745 23.6305 22.6154 23.6049 25.3294C23.5753 28.4544 23.4751 29.6964 24.1929 30.6829C26.3461 30.3364 28.389 29.7057 29.3203 29.5503C29.6877 29.4975 29.8415 29.4975 30 29.3422" stroke="#B42B0C" stroke-width="2.35572" stroke-linecap="round"/>
<path d="M24.0966 20.0745C24.0966 20.177 24.3016 20.2811 25.125 20.3588C26.7686 20.3852 27.9788 20.2827 28.34 20.1273C28.5474 20.0745 28.8038 20.0745 29.0679 20.0745" stroke="#B42B0C" stroke-width="2.35572" stroke-linecap="round"/>
</svg>
