<svg width="24" height="31" viewBox="0 0 24 31" fill="none" xmlns="http://www.w3.org/2000/svg">
<path d="M2 2.13861C2 2.2301 2 2.32158 2.20584 3.74099C2.41168 5.16039 2.82337 7.90495 3.05832 12.4751C3.29327 17.0452 3.33901 23.3576 3.38614 29.8614" stroke="#B42B0C" stroke-width="2.10189" stroke-linecap="round"/>
<path d="M2.97034 2C3.79925 2.50594 5.72875 3.79366 8.16074 6.97693C9.17216 8.30081 9.61826 10.3057 10.5414 12.2436C11.1851 13.5946 11.3787 14.6097 11.5401 16.3542C11.8698 19.915 11.6573 22.4663 11.5194 22.9959C11.1928 24.2495 10.827 24.8685 9.37569 26.3441C8.43908 27.2963 7.31727 27.7351 6.69212 27.943C6.02123 28.2438 5.55964 28.6111 4.93658 29.0512C4.7737 29.1669 4.63648 29.3042 4.35648 29.4456" stroke="#B42B0C" stroke-width="2.10189" stroke-linecap="round"/>
<path d="M21.6167 3C20.8834 3 19.4016 3.09149 18.5242 3.57525C18.1358 3.78941 18.0141 4.47485 17.8062 5.60109C17.4603 7.4746 17.644 9.46079 17.4368 10.9135C17.3401 11.5915 17.1838 12.1374 17.1131 14.593C17.0424 17.0485 17.0424 21.3941 17.0196 23.8157C16.9932 26.6039 16.9038 27.7121 17.5442 28.5923C19.4654 28.2832 21.2882 27.7204 22.1192 27.5818C22.447 27.5347 22.5842 27.5347 22.7256 27.3961" stroke="#B42B0C" stroke-width="2.10189" stroke-linecap="round"/>
<path d="M17.4583 16.8614C17.4583 16.9529 17.6412 17.0457 18.3759 17.1151C19.8424 17.1386 20.9222 17.0471 21.2445 16.9085C21.4295 16.8614 21.6583 16.8614 21.8939 16.8614" stroke="#B42B0C" stroke-width="2.10189" stroke-linecap="round"/>
</svg>
