<svg width="33" height="32" viewBox="0 0 33 32" fill="none" xmlns="http://www.w3.org/2000/svg">
<path d="M13.1542 5.71808C13.3135 7.78912 13.4729 9.86016 13.5549 12.7591C13.637 15.6581 13.637 19.3223 13.637 23.0974" stroke="#B42B0C" stroke-width="2.47872" stroke-linecap="round"/>
<path d="M13.1542 6.20082C13.1542 6.51944 16.3405 11.9408 22.2036 20.8622C26.2257 26.9824 29.5633 28.7264 30.367 28.4923C30.6929 27.9395 30.8522 26.5057 30.9343 23.0588C31.0164 19.6119 31.0164 14.1953 31.0164 8.61462" stroke="#B42B0C" stroke-width="2.47872" stroke-linecap="round"/>
<path d="M7.05102 2C6.24876 2 4.62758 2.10009 3.6676 2.62937C3.24262 2.86368 3.10951 3.61361 2.88203 4.8458C2.50361 6.89557 2.7046 9.06862 2.47787 10.658C2.37205 11.3998 2.2011 11.9971 2.12376 14.6836C2.04641 17.3702 2.04641 22.1246 2.02139 24.774C1.99258 27.8245 1.89476 29.037 2.5954 30C4.69734 29.6618 6.6916 29.0461 7.60077 28.8944C7.95943 28.8429 8.10957 28.8429 8.26425 28.6912" stroke="#B42B0C" stroke-width="2.29963" stroke-linecap="round"/>
<path d="M2.50134 19.6442C2.50134 19.7443 2.70153 19.8459 3.5053 19.9217C5.1098 19.9475 6.29119 19.8474 6.64379 19.6957C6.84625 19.6442 7.09648 19.6442 7.35429 19.6442" stroke="#B42B0C" stroke-width="2.29963" stroke-linecap="round"/>
</svg>
