<svg width="55" height="55" viewBox="0 0 55 55" fill="none" xmlns="http://www.w3.org/2000/svg">
<path d="M1.29782 27.7965V54.3251H54.355V1.26791H1.29782V27.7965ZM44.0534 25.6742C45.3242 25.9691 46.4792 26.6338 47.3727 27.5843C47.8646 28.0964 48.2922 28.6665 48.6461 29.2821C48.6461 29.35 46.354 30.8993 44.9575 31.7652C44.9066 31.7991 44.7029 31.5784 44.4779 31.2431C44.223 30.8032 43.8607 30.4351 43.4251 30.1731C42.9894 29.9111 42.4944 29.7637 41.9863 29.7448C40.3776 29.6344 39.342 30.4791 39.3504 31.8671C39.3371 32.2126 39.4163 32.5555 39.5797 32.8603C39.932 33.5946 40.5899 34.0318 42.6527 34.9232C46.4516 36.5573 48.0773 37.6354 49.0875 39.1677C50.2166 40.8656 50.467 43.6076 49.703 45.6365C48.854 47.8436 46.7742 49.342 43.8327 49.8386C42.4892 49.9925 41.1318 49.9782 39.7919 49.7961C37.7382 49.4576 35.8465 48.4716 34.3928 46.982C33.9047 46.4429 32.9539 45.038 33.0133 44.9361C33.1682 44.8211 33.3314 44.7175 33.5014 44.6263L35.4667 43.5396L36.9905 42.6568L37.3088 43.1279C37.8461 43.8964 38.5298 44.5513 39.3207 45.055C41.0186 45.9463 43.3361 45.8232 44.4821 44.7918C44.8669 44.4138 45.107 43.9129 45.1605 43.3762C45.214 42.8395 45.0776 42.301 44.775 41.8545C44.3506 41.2645 43.5016 40.7679 41.1289 39.7323C38.3912 38.5523 37.2112 37.8222 36.1331 36.6592C35.46 35.8917 34.9631 34.9862 34.6772 34.0063C34.4639 32.8868 34.4324 31.7402 34.5838 30.6107C35.1483 27.9663 37.1305 26.1199 40.0253 25.5724C41.3659 25.4065 42.7239 25.4437 44.0534 25.6827V25.6742ZM31.5998 27.8984V30.0716H24.7109V49.6943H19.8254V30.0674H12.9195V27.9451C12.898 27.2132 12.915 26.4807 12.9704 25.7506C13.0044 25.7124 17.215 25.7124 22.3085 25.7124H31.5744L31.5998 27.8984Z" fill="#B42B0C"/>
</svg>
